SplineFontDB: 3.0
FontName: Sawasdee-Oblique
FullName: Sawasdee Oblique
FamilyName: Sawasdee
Weight: Regular
Copyright: Copyright (c) 2007 Pol Udomwittayanukul. All rights reserved.
Version: 001.007: 2012-02-13
ItalicAngle: -12
UnderlinePosition: -153
UnderlineWidth: 102
Ascent: 1536
Descent: 512
LayerCount: 2
Layer: 0 0 "Back"  1
Layer: 1 0 "Fore"  0
XUID: [1021 180 1442959360 14105407]
UniqueID: 4256560
FSType: 8
OS2Version: 0
OS2_WeightWidthSlopeOnly: 0
OS2_UseTypoMetrics: 1
CreationTime: 1178430034
ModificationTime: 1329145088
PfmFamily: 17
TTFWeight: 400
TTFWidth: 5
LineGap: 184
VLineGap: 0
OS2TypoAscent: 0
OS2TypoAOffset: 1
OS2TypoDescent: 0
OS2TypoDOffset: 1
OS2TypoLinegap: 184
OS2WinAscent: 0
OS2WinAOffset: 1
OS2WinDescent: 0
OS2WinDOffset: 1
HheadAscent: 4
HheadAOffset: 1
HheadDescent: 82
HheadDOffset: 1
OS2Vendor: 'PfEd'
Lookup: 4 0 1 "'liga' Standard Ligatures in Latin lookup 0"  {"'liga' Standard Ligatures in Latin lookup 0"  } ['liga' ('latn' <'dflt' > ) ]
Lookup: 4 0 0 "'frac' Diagonal Fractions in Latin lookup 42"  {"'frac' Diagonal Fractions in Latin lookup 42"  } ['frac' ('latn' <'dflt' > ) ]
Lookup: 6 0 0 "'ccmp' Thai Conditional Descender Removal"  {"'ccmp' Thai Conditional Descender Removal"  } ['ccmp' ('DFLT' <'dflt' > 'thai' <'KUY ' 'THA ' 'dflt' > ) ]
Lookup: 1 0 0 "'ccmp' Pali-Sanskrit Descender Removal"  {"'ccmp' Pali-Sanskrit Descender Removal" ("descless" ) } ['ccmp' ('thai' <'PAL ' 'SAN ' > ) ]
Lookup: 6 0 0 "'ccmp' Thai General Composition"  {"'ccmp' Thai Below Vowel Tone Reordering"  "'ccmp' Thai General Composition"  } ['ccmp' ('DFLT' <'dflt' > 'thai' <'KUY ' 'PAL ' 'SAN ' 'THA ' 'dflt' > ) ]
Lookup: 1 0 0 "Thai Descender Removal Single Substitution"  {"Thai Descender Removal Single Substitution" ("descless" ) } []
Lookup: 2 0 0 "Thai Sara Am Decomposition"  {"Thai Sara Am Decomposition"  } []
Lookup: 2 0 0 "Thai Tone Nikhahit Attachment"  {"Thai Tone Nikhahit Attachment"  } []

StartChar: exclam
Encoding: 33 33 1
Width: 498
VWidth: 2982
Flags: W
HStem: -15 167<198.177 332> 1473 20G<504.242 626>
VStem: 179 173<6.04936 131.986>
LayerCount: 2
Fore
SplineSet
338 269 m 1
 278 269 l 1
 508 1493 l 1
 626 1493 l 1
 338 269 l 1
179 54 m 0
 179 111 237 152 282 152 c 0
 322 152 352 124 352 85 c 0
 352 27 293 -15 248 -15 c 0
 208 -15 179 15 179 54 c 0
EndSplineSet
EndChar

StartChar: quotedbl
Encoding: 34 34 2
Width: 690
VWidth: 2982
Flags: W
HStem: 1164 387<497 504 737 743>
VStem: 446 409
LayerCount: 2
Fore
SplineSet
504 1164 m 1
 446 1164 l 1
 497 1551 l 1
 615 1551 l 1
 504 1164 l 1
743 1164 m 1
 683 1164 l 1
 737 1551 l 1
 855 1551 l 1
 743 1164 l 1
EndSplineSet
EndChar

StartChar: numbersign
Encoding: 35 35 3
Width: 1066
VWidth: 2982
Flags: W
HStem: 0 21G<105 206.028 521 620.114> 463 90<116 314 444 732 859 1063> 940 90<320 528 660 942 1079 1269> 1473 20G<767.972 869 1186.89 1288>
DStem2: 105 0 197 0 0.410441 0.911887<37.7606 507.986 643.413 1030.79 1167.04 1637.26> 521 0 611 0 0.412975 0.910742<37.1678 508.811 643.226 1029.96 1168.5 1638.5>
LayerCount: 2
Fore
SplineSet
611 0 m 1
 521 0 l 1
 732 463 l 1
 406 463 l 1
 197 0 l 1
 105 0 l 1
 314 463 l 1
 98 463 l 1
 116 553 l 1
 354 553 l 1
 528 940 l 1
 302 940 l 1
 320 1030 l 1
 568 1030 l 1
 777 1493 l 1
 869 1493 l 1
 660 1030 l 1
 985 1030 l 1
 1196 1493 l 1
 1288 1493 l 1
 1079 1030 l 1
 1288 1030 l 1
 1269 940 l 1
 1036 940 l 1
 859 553 l 1
 1081 553 l 1
 1063 463 l 1
 822 463 l 1
 611 0 l 1
444 553 m 1
 767 553 l 1
 942 940 l 1
 618 940 l 1
 444 553 l 1
EndSplineSet
EndChar

StartChar: dollar
Encoding: 36 36 4
Width: 1179
VWidth: 2982
Flags: W
HStem: -27 91<432.697 544 654 774.365> 1198 21G<1128 1200.57> 1403 99<726.805 848 959 1054.16>
VStem: 208 91<199.179 414> 477 91<993.627 1242.72> 1063 97<326.112 616.705> 1137 89<1221.49 1317.04>
DStem2: 517 -150 609 -150 0.207912 0.978148<19.1279 125.926 237.807 952.096 1075.58 1587.88 1707.8 1825.98>
LayerCount: 2
Fore
SplineSet
609 -150 m 1xfc
 517 -150 l 1
 544 -27 l 1
 361 -11 208 109 208 363 c 0
 208 378 208 396 211 414 c 1
 302 427 l 1
 299 412 299 396 299 383 c 0
 299 175 419 81 564 64 c 1
 720 806 l 1
 593 869 477 940 477 1088 c 0
 477 1265 634 1480 869 1502 c 1
 897 1636 l 1
 987 1636 l 1
 959 1502 l 1
 1092 1484 1207 1390 1226 1226 c 1
 1137 1198 l 1xfa
 1119 1325 1038 1395 942 1412 c 1
 826 869 l 1
 985 795 1160 716 1160 515 c 0
 1160 278 944 17 638 -15 c 1
 609 -150 l 1xfc
654 64 m 1
 904 101 1063 312 1063 485 c 0xfc
 1063 634 938 701 801 763 c 1
 654 64 l 1
848 1403 m 1
 660 1379 568 1209 568 1104 c 0
 568 1008 645 951 741 902 c 1
 848 1403 l 1
EndSplineSet
EndChar

StartChar: percent
Encoding: 37 37 5
Width: 1568
VWidth: 2982
Flags: W
HStem: -17 91<1053.91 1306.64> 0 21G<199 330.433> 474 92<1121.37 1372.89> 920 92<513.164 766.003> 1412 92<581.185 832.211>
VStem: 374 92<1057.5 1296.22> 880 92<1124.78 1363.77> 914 92<121.531 363.171> 1421 92<186.026 428.188>
DStem2: 199 0 312 0 0.677973 0.735087<76.611 2031.05>
LayerCount: 2
Fore
SplineSet
914 215 m 0xbd80
 914 385 1079 566 1276 566 c 0
 1417 566 1513 468 1513 336 c 0
 1513 166 1345 -17 1151 -17 c 0
 1010 -17 914 83 914 215 c 0xbd80
1256 474 m 0
 1132 474 1006 363 1006 235 c 0
 1006 143 1070 74 1171 74 c 0
 1314 74 1421 205 1421 316 c 0
 1421 406 1356 474 1256 474 c 0
374 1149 m 0
 374 1327 544 1504 734 1504 c 0
 875 1504 972 1403 972 1271 c 0x3e80
 972 1097 806 920 611 920 c 0
 472 920 374 1019 374 1149 c 0
714 1412 m 0
 589 1412 466 1298 466 1168 c 0
 466 1079 532 1012 628 1012 c 0
 750 1012 880 1117 880 1254 c 0
 880 1345 812 1412 714 1412 c 0
1576 1493 m 1
 1688 1493 l 1
 312 0 l 1
 199 0 l 1x7c80
 1576 1493 l 1
EndSplineSet
EndChar

StartChar: ampersand
Encoding: 38 38 6
Width: 1354
VWidth: 2982
Flags: W
HStem: -15 87<514.324 908.296> 0 21G<1198.75 1318> 1424 89<878.089 1157.65>
VStem: 226 90<261.409 640.104> 673 94<1039.11 1315.82> 1209 92<1191 1374.53> 1269 94<405.956 534>
DStem2: 797 1041 720 967 0.447557 -0.894255<28.3113 820.637 937.769 1115.31>
LayerCount: 2
Fore
SplineSet
1027 1424 m 0xbc
 884 1424 767 1323 767 1175 c 0
 767 1135 775 1090 797 1041 c 1
 1164 307 l 1
 1218 376 1251 450 1269 534 c 1
 1363 534 l 1xba
 1341 421 1283 316 1204 231 c 1
 1318 0 l 1
 1209 0 l 1x7c
 1128 158 l 1
 1006 51 844 -15 683 -15 c 0
 412 -15 226 175 226 425 c 0
 226 662 396 938 692 1047 c 1
 681 1083 673 1121 673 1155 c 0
 673 1341 828 1513 1047 1513 c 0
 1186 1513 1301 1435 1301 1276 c 0
 1301 1249 1298 1222 1292 1191 c 1
 1202 1191 l 1
 1207 1215 1209 1235 1209 1256 c 0
 1209 1377 1119 1424 1027 1424 c 0xbc
720 967 m 1
 544 906 316 712 316 440 c 0
 316 231 472 72 701 72 c 0
 844 72 987 134 1092 231 c 1
 720 967 l 1
EndSplineSet
EndChar

StartChar: quoteright
Encoding: 8217 8217 7
Width: 523
VWidth: 2982
Flags: W
HStem: 1305 201<454.836 530>
VStem: 423 228<1317.04 1471.88>
LayerCount: 2
Fore
SplineSet
423 1386 m 0
 423 1455 495 1506 551 1506 c 0
 600 1506 651 1476 651 1403 c 0
 651 1339 598 1191 430 1077 c 1
 354 1077 l 1
 438 1135 517 1238 530 1307 c 1
 524 1305 515 1305 508 1305 c 0
 459 1305 423 1341 423 1386 c 0
EndSplineSet
EndChar

StartChar: parenleft
Encoding: 40 40 8
Width: 487
VWidth: 2982
Flags: W
VStem: 224 92<-139.963 631.92>
LayerCount: 2
Fore
SplineSet
224 280 m 0
 224 850 474 1290 687 1574 c 1
 754 1574 l 1
 524 1222 316 756 316 213 c 0
 316 54 333 -107 369 -269 c 1
 299 -269 l 1
 250 -85 224 98 224 280 c 0
EndSplineSet
EndChar

StartChar: parenright
Encoding: 41 41 9
Width: 457
VWidth: 2982
Flags: W
VStem: 457 96<697.564 1437.71>
LayerCount: 2
Fore
SplineSet
4 -269 m 1
 226 78 457 562 457 1115 c 0
 457 1269 438 1421 403 1574 c 1
 472 1574 l 1
 526 1403 553 1231 553 1057 c 0
 553 894 542 400 74 -269 c 1
 4 -269 l 1
EndSplineSet
EndChar

StartChar: asterisk
Encoding: 42 42 10
Width: 910
VWidth: 2982
Flags: W
HStem: 1224 542
VStem: 491 577
DStem2: 530 1612 491 1525 0.968777 -0.247933<0 194.536> 519 1273 581 1224 0.657189 0.753726<3.81319 269.329> 670.006 1224 764.006 1224 0.207912 0.978148<361.005 553.857> 844 1476 759 1424 0.412789 -0.910827<12.276 222.874> 835 1558 844 1476 0.974179 0.225775<0 221.482>
LayerCount: 2
Fore
SplineSet
784 1766 m 1
 880 1766 l 1
 835 1558 l 1
 1068 1612 l 1
 1070 1525 l 1
 844 1476 l 1
 936 1273 l 1
 850 1224 l 1
 759 1424 l 1
 581 1224 l 1
 519 1273 l 1
 696 1476 l 1
 491 1525 l 1
 530 1612 l 1
 741 1558 l 1
 784 1766 l 1
EndSplineSet
EndChar

StartChar: plus
Encoding: 43 43 11
Width: 1036
VWidth: 2982
Flags: W
HStem: 701 89<291 624 732 1066>
DStem2: 549 349 638 349 0.207912 0.978148<18.5041 359.901 469.411 812.764>
LayerCount: 2
Fore
SplineSet
638 349 m 1
 549 349 l 1
 624 701 l 1
 271 701 l 1
 291 790 l 1
 643 790 l 1
 718 1144 l 1
 808 1144 l 1
 732 790 l 1
 1083 790 l 1
 1066 701 l 1
 714 701 l 1
 638 349 l 1
EndSplineSet
EndChar

StartChar: comma
Encoding: 44 44 12
Width: 523
VWidth: 2982
Flags: W
HStem: -15 167<198.177 294.207>
VStem: 179 190<2.13867 131.986>
LayerCount: 2
Fore
SplineSet
179 54 m 0
 179 111 237 152 282 152 c 0
 325 152 369 126 369 62 c 0
 369 -101 161 -242 161 -242 c 1
 116 -242 l 1
 186 -195 280 -74 295 0 c 1
 278 -11 267 -15 248 -15 c 0
 208 -15 179 15 179 54 c 0
EndSplineSet
EndChar

StartChar: hyphen
Encoding: 45 45 13
Width: 856
VWidth: 2982
Flags: W
HStem: 553 90<260 855>
VStem: 239 634
LayerCount: 2
Fore
SplineSet
873 643 m 5
 855 553 l 5
 239 553 l 5
 260 643 l 5
 873 643 l 5
EndSplineSet
EndChar

StartChar: period
Encoding: 46 46 14
Width: 498
VWidth: 2982
Flags: W
HStem: -15 167<198.177 332>
VStem: 179 173<6.04936 131.986>
LayerCount: 2
Fore
SplineSet
179 54 m 0
 179 111 237 152 282 152 c 0
 322 152 352 124 352 85 c 0
 352 27 293 -15 248 -15 c 0
 208 -15 179 15 179 54 c 0
EndSplineSet
EndChar

StartChar: slash
Encoding: 47 47 15
Width: 1168
VWidth: 2982
Flags: W
HStem: 0 21G<0 127.446> 1473 20G<1358.55 1486>
DStem2: 0 0 109 0 0.677973 0.735087<73.8991 2031.05>
LayerCount: 2
Fore
SplineSet
1377 1493 m 1
 1486 1493 l 1
 109 0 l 1
 0 0 l 1
 1377 1493 l 1
EndSplineSet
EndChar

StartChar: zero
Encoding: 48 48 16
Width: 1192
VWidth: 2982
Flags: W
HStem: -15 89<484.485 757.713> 1417 89<750.349 1026.51>
VStem: 233 92<275.749 816.664> 1186 92<681.489 1216.07>
LayerCount: 2
Fore
SplineSet
1278 985 m 0
 1278 502 940 -15 593 -15 c 0
 363 -15 233 213 233 508 c 0
 233 969 555 1506 918 1506 c 0
 1149 1506 1278 1278 1278 985 c 0
897 1417 m 0
 640 1417 325 983 325 526 c 0
 325 255 448 74 613 74 c 0
 871 74 1186 506 1186 965 c 0
 1186 1238 1063 1417 897 1417 c 0
EndSplineSet
EndChar

StartChar: one
Encoding: 49 49 17
Width: 1192
VWidth: 2982
Flags: W
HStem: 0 21G<553 647.233> 1473 20G<921.346 954.767>
VStem: 553 406
DStem2: 553 0 643 0 0.207912 0.978148<18.7121 1361.11> 622 1314 651 1235 0.88315 0.469091<0 194.788>
LayerCount: 2
Fore
SplineSet
553 0 m 1
 833 1332 l 1
 651 1235 l 1
 622 1314 l 1
 959 1493 l 1
 643 0 l 1
 553 0 l 1
EndSplineSet
EndChar

StartChar: two
Encoding: 50 50 18
Width: 1192
VWidth: 2982
Flags: W
HStem: 0 90<211 1074> 1032 21G<383 495.5> 1417 89<738.196 1050.59>
VStem: 383 89<1032 1148.85> 1171 89<947.424 1289.25>
LayerCount: 2
Fore
SplineSet
1260 1141 m 0
 1260 577 361 528 211 90 c 1
 1092 90 l 1
 1074 0 l 1
 101 0 l 1
 109 43 l 1
 220 553 1077 628 1162 1032 c 0
 1168 1063 1171 1094 1171 1124 c 0
 1171 1296 1059 1417 902 1417 c 0
 714 1417 519 1251 472 1032 c 1
 383 1032 l 1
 438 1292 675 1506 918 1506 c 0
 1124 1506 1260 1350 1260 1141 c 0
EndSplineSet
EndChar

StartChar: three
Encoding: 51 51 19
Width: 1192
VWidth: 2982
Flags: W
HStem: -15 89<452.919 794.548> 814 90<792 933.415> 1417 89<748.336 1038.73>
VStem: 222 94<209.12 446> 485 90<1153 1250.36> 1074 88<350.778 673.838> 1119 92<1057.08 1338.42>
LayerCount: 2
Fore
SplineSet
1162 542 m 0xfc
 1162 265 895 -15 593 -15 c 0
 374 -15 222 139 222 346 c 0
 222 378 226 412 233 446 c 1
 325 446 l 1
 320 419 316 393 316 369 c 0
 316 201 438 74 615 74 c 0
 842 74 1074 286 1074 519 c 0xfc
 1074 687 949 814 773 814 c 1
 792 904 l 1
 965 904 1119 1038 1119 1209 c 0
 1119 1327 1030 1417 902 1417 c 0
 752 1417 607 1298 575 1153 c 1
 485 1153 l 1
 528 1350 724 1506 920 1506 c 0
 1092 1506 1211 1388 1211 1226 c 0xfa
 1211 1144 1173 965 972 861 c 1
 1088 803 1162 685 1162 542 c 0xfc
EndSplineSet
EndChar

StartChar: four
Encoding: 52 52 20
Width: 1192
VWidth: 2982
Flags: W
HStem: 0 21G<844 937.388> 278 89<258 904 1012 1128> 1491 20G<1236.57 1251.73>
DStem2: 58 278 258 367 0.696854 0.717213<203.203 1423.81> 844 0 933 0 0.207912 0.978148<18.5041 284.4 393.909 1270.73>
LayerCount: 2
Fore
SplineSet
922 367 m 1
 1108 1243 l 1
 258 367 l 1
 922 367 l 1
933 0 m 1
 844 0 l 1
 904 278 l 1
 58 278 l 1
 1256 1511 l 1
 1012 367 l 1
 1177 367 l 1
 1128 278 l 1
 994 278 l 1
 933 0 l 1
EndSplineSet
EndChar

StartChar: five
Encoding: 53 53 21
Width: 1192
VWidth: 2982
Flags: W
HStem: -17 89<446.267 787.53> 978 85<623.655 963.971> 1403 90<579 1215>
VStem: 190 92<237.391 440> 1128 92<425.338 811.625>
DStem2: 293 745 432 904 0.284525 0.958669<27.8834 108.773 191.977 712.178>
LayerCount: 2
Fore
SplineSet
609 72 m 0
 867 72 1128 338 1128 628 c 0
 1128 831 994 978 801 978 c 0
 649 978 493 884 391 745 c 1
 293 745 l 1
 515 1493 l 1
 1262 1493 l 1
 1215 1403 l 1
 579 1403 l 1
 432 904 l 1
 544 1003 683 1063 820 1063 c 0
 1061 1063 1220 882 1220 643 c 0
 1220 318 925 -17 591 -17 c 0
 349 -17 190 166 190 403 c 0
 190 416 192 427 192 440 c 1
 282 440 l 1
 282 421 l 2
 282 222 416 72 609 72 c 0
EndSplineSet
EndChar

StartChar: six
Encoding: 54 54 22
Width: 1192
VWidth: 2982
Flags: W
HStem: 0 87<450.274 791.411> 994 87<648.312 968.334> 1484 20G<720 1047>
VStem: 195 91<251.823 636.593> 1132 92<447.354 828.333>
LayerCount: 2
Fore
SplineSet
613 87 m 0
 871 87 1132 349 1132 645 c 0
 1132 846 998 994 806 994 c 0
 549 994 286 728 286 436 c 0
 286 235 421 87 613 87 c 0
195 419 m 0
 195 777 500 1003 940 1504 c 1
 1047 1504 l 1
 643 1047 l 1
 701 1068 763 1081 824 1081 c 0
 1066 1081 1224 900 1224 660 c 0
 1224 336 931 0 593 0 c 0
 354 0 195 179 195 419 c 0
EndSplineSet
EndChar

StartChar: seven
Encoding: 55 55 23
Width: 1192
VWidth: 2982
Flags: W
HStem: 0 21G<396 508.222> 1403 90<481 1325>
DStem2: 396 0 495 0 0.551473 0.834193<54.5958 1682.69>
LayerCount: 2
Fore
SplineSet
481 1493 m 1
 1482 1493 l 1
 495 0 l 1
 396 0 l 1
 1325 1403 l 1
 432 1403 l 1
 481 1493 l 1
EndSplineSet
EndChar

StartChar: eight
Encoding: 56 56 24
Width: 1192
VWidth: 2982
Flags: W
HStem: -15 89<451.919 785.843> 814 90<656.638 930.869> 1417 89<744.278 1034.63>
VStem: 222 92<208.857 540.849> 481 92<980.714 1253.7> 1070 92<350.768 681.127> 1115 92<1068.49 1339.66>
LayerCount: 2
Fore
SplineSet
481 1092 m 0xfc
 481 1298 685 1506 918 1506 c 0
 1085 1506 1207 1388 1207 1231 c 0xfa
 1207 1085 1102 936 967 867 c 1
 1088 808 1162 687 1162 542 c 0
 1162 267 897 -15 593 -15 c 0
 374 -15 222 139 222 346 c 0
 222 524 338 761 596 867 c 1
 524 914 481 996 481 1092 c 0xfc
771 814 m 0
 549 814 314 609 314 367 c 0
 314 201 436 74 613 74 c 0
 833 74 1070 282 1070 521 c 0xfc
 1070 687 947 814 771 814 c 0
897 1417 m 0
 743 1417 573 1276 573 1110 c 0
 573 994 660 904 790 904 c 0
 947 904 1115 1047 1115 1211 c 0xfa
 1115 1327 1027 1417 897 1417 c 0
EndSplineSet
EndChar

StartChar: nine
Encoding: 57 57 25
Width: 1192
VWidth: 2982
Flags: W
HStem: 0 21G<459 788> 423 87<540.468 860.305> 1417 87<716.929 1057.97>
VStem: 284 92<675.667 1056.65> 1222 92<861.656 1251.75>
LayerCount: 2
Fore
SplineSet
895 1417 m 0
 638 1417 376 1155 376 859 c 0
 376 658 510 510 703 510 c 0
 961 510 1222 777 1222 1068 c 0
 1222 1269 1088 1417 895 1417 c 0
1314 1085 m 0
 1314 728 1010 502 566 0 c 1
 459 0 l 1
 865 457 l 1
 806 436 743 423 685 423 c 0
 444 423 284 604 284 844 c 0
 284 1168 579 1504 914 1504 c 0
 1155 1504 1314 1323 1314 1085 c 0
EndSplineSet
EndChar

StartChar: colon
Encoding: 58 58 26
Width: 498
VWidth: 2982
Flags: W
HStem: -15 167<198.177 332> 867 165<386.23 518.25>
VStem: 179 173<6.04936 131.986> 367 171<888.008 1011.89>
LayerCount: 2
Fore
SplineSet
179 54 m 0
 179 111 237 152 282 152 c 0
 322 152 352 124 352 85 c 0
 352 27 293 -15 248 -15 c 0
 208 -15 179 15 179 54 c 0
367 933 m 0
 367 991 425 1032 470 1032 c 0
 508 1032 538 1003 538 967 c 0
 538 908 479 867 434 867 c 0
 393 867 367 895 367 933 c 0
EndSplineSet
EndChar

StartChar: semicolon
Encoding: 59 59 27
Width: 498
VWidth: 2982
Flags: W
HStem: -15 167<198.177 294.207> 867 165<386.23 518.25>
VStem: 179 190<2.13867 131.986> 367 171<888.008 1011.89>
LayerCount: 2
Fore
SplineSet
179 54 m 0xe0
 179 111 237 152 282 152 c 0
 325 152 369 126 369 62 c 0
 369 -101 161 -242 161 -242 c 1
 116 -242 l 1
 186 -195 280 -74 295 0 c 1
 278 -11 267 -15 248 -15 c 0
 208 -15 179 15 179 54 c 0xe0
367 933 m 0xd0
 367 991 425 1032 470 1032 c 0
 508 1032 538 1003 538 967 c 0
 538 908 479 867 434 867 c 0
 393 867 367 895 367 933 c 0xd0
EndSplineSet
EndChar

StartChar: less
Encoding: 60 60 28
Width: 1183
VWidth: 2982
Flags: W
HStem: 0 21G<922.654 1126> 994 20G<1130.96 1341>
DStem2: 231 508 403 508 0.880109 0.474771<151.379 1064.9> 403 508 231 508 0.81822 -0.574905<0 740.436>
LayerCount: 2
Fore
SplineSet
1126 0 m 1
 951 0 l 1
 231 508 l 1
 1168 1014 l 1
 1341 1014 l 1
 403 508 l 1
 1126 0 l 1
EndSplineSet
EndChar

StartChar: equal
Encoding: 61 61 29
Width: 1036
VWidth: 2982
Flags: W
HStem: 432 89<233 1008> 671 90<284 1059>
LayerCount: 2
Fore
SplineSet
1079 761 m 1
 1059 671 l 1
 265 671 l 1
 284 761 l 1
 1079 761 l 1
1027 521 m 1
 1008 432 l 1
 215 432 l 1
 233 521 l 1
 1027 521 l 1
EndSplineSet
EndChar

StartChar: greater
Encoding: 62 62 30
Width: 1203
VWidth: 2982
Flags: W
HStem: 0 21G<124 331.929> 994 20G<338 538.577>
DStem2: 124 0 295 0 0.879325 0.476223<150.365 1065.85> 510 1014 338 1014 0.819285 -0.573386<0 741.56>
LayerCount: 2
Fore
SplineSet
295 0 m 1
 124 0 l 1
 1061 508 l 1
 338 1014 l 1
 510 1014 l 1
 1233 508 l 1
 295 0 l 1
EndSplineSet
EndChar

StartChar: question
Encoding: 63 63 31
Width: 1036
VWidth: 2982
Flags: W
HStem: -15 167<438.13 568.9> 1417 89<667.091 987.423>
VStem: 363 90<1130 1227.2> 419 172<7.28543 131.986> 1074 92<1053.63 1334.04>
DStem2: 444.557 -15 533.557 -15 0.207912 0.978148<347.698 680.715>
LayerCount: 2
Fore
SplineSet
419 54 m 0xd8
 419 111 477 152 521 152 c 0
 562 152 591 124 591 85 c 0
 591 38 540 -15 485 -15 c 0
 446 -15 419 15 419 54 c 0xd8
602 307 m 1
 513 307 l 1
 544 457 l 1
 620 806 1023 929 1068 1130 c 1
 1072 1153 1074 1175 1074 1198 c 0
 1074 1330 980 1417 842 1417 c 0
 651 1417 481 1269 453 1130 c 1
 363 1130 l 1xe8
 406 1327 626 1506 859 1506 c 0
 1045 1506 1166 1390 1166 1215 c 0
 1166 869 709 799 634 457 c 1
 602 307 l 1
EndSplineSet
EndChar

StartChar: at
Encoding: 64 64 32
Width: 2029
VWidth: 2982
Flags: W
HStem: -495 85<705.337 1174.52> -17 91<702.317 1023.97 1516.02 1724.41> 938 89<1099.47 1422.14> 1412 92<1071.76 1551.88>
VStem: 203 94<20.8941 567.212> 532 100<143.269 465.767> 1372 92<128.032 275> 1954 92<453.459 989.857>
DStem2: 1574 822 1760 1014 0.415457 0.909613<0 212.037>
LayerCount: 2
Fore
SplineSet
2046 745 m 0
 2046 416 1865 -20 1591 -20 c 0
 1459 -20 1372 96 1372 258 c 2
 1372 275 l 1
 1220 105 1008 -17 820 -17 c 0
 638 -17 532 96 532 267 c 0
 532 607 947 1027 1296 1027 c 0
 1448 1027 1547 947 1574 822 c 1
 1664 1014 l 1
 1760 1014 l 1
 1533 517 l 2
 1518 485 1464 385 1464 275 c 0
 1464 145 1538 72 1612 72 c 0
 1790 72 1954 419 1954 728 c 0
 1954 1124 1690 1412 1318 1412 c 0
 803 1412 297 865 297 284 c 0
 297 -116 557 -410 931 -410 c 0
 1070 -410 1211 -367 1343 -295 c 1
 1374 -369 l 1
 1229 -450 1070 -495 914 -495 c 0
 487 -495 203 -168 203 271 c 0
 203 884 743 1504 1337 1504 c 0
 1758 1504 2046 1177 2046 745 c 0
842 74 m 0
 1121 74 1495 425 1495 724 c 0
 1495 850 1419 938 1283 938 c 0
 998 938 632 579 632 284 c 0
 632 158 705 74 842 74 c 0
EndSplineSet
EndChar

StartChar: A
Encoding: 65 65 33
Width: 1322
VWidth: 2982
Flags: W
HStem: 0 21G<36 144.484 1190.03 1290> 463 90<481 1083> 1491 20G<970.465 987.064>
DStem2: 36 0 132 0 0.531057 0.847336<50.9815 596.774 704.897 1561.91> 983 1511 938 1278 0.199109 -0.979977<219.375 958.729 1050.71 1522.76>
LayerCount: 2
Fore
SplineSet
481 553 m 1
 1083 553 l 1
 938 1278 l 1
 481 553 l 1
1102 463 m 1
 421 463 l 1
 132 0 l 1
 36 0 l 1
 983 1511 l 1
 1290 0 l 1
 1194 0 l 1
 1102 463 l 1
EndSplineSet
EndChar

StartChar: B
Encoding: 66 66 34
Width: 1293
VWidth: 2982
Flags: W
HStem: 0 90<275 903.445> 786 89<444 1024.68> 1403 90<555 1124.22>
VStem: 1184 92<344.35 652.263> 1218 91<1047.16 1311.74>
DStem2: 168 0 255.87 0 0.207912 0.978148<110.28 821.841 913.263 1452.8>
LayerCount: 2
Fore
SplineSet
712 90 m 2xf0
 947 90 1184 282 1184 504 c 0
 1184 662 1055 786 859 786 c 2
 423 786 l 1
 275 90 l 1
 712 90 l 2xf0
1218 1186 m 0xe8
 1218 1307 1119 1403 974 1403 c 2
 555 1403 l 1
 444 875 l 1
 859 875 l 1
 1045 882 1218 1021 1218 1186 c 0xe8
1276 521 m 0xf0
 1276 265 1008 0 692 0 c 2
 168 0 l 1
 483 1493 l 1
 998 1493 l 2
 1182 1493 1309 1367 1309 1204 c 0xe8
 1309 1059 1211 918 1061 839 c 1
 1194 784 1276 665 1276 521 c 0xf0
EndSplineSet
EndChar

StartChar: C
Encoding: 67 67 35
Width: 1608
VWidth: 2982
Flags: W
HStem: -11 85<673.857 1130.97> 1417 94<951.421 1408.57>
VStem: 265 91<387.088 841.617>
LayerCount: 2
Fore
SplineSet
1182 1417 m 0
 759 1417 356 1027 356 602 c 0
 356 302 575 74 895 74 c 0
 1117 74 1335 181 1491 346 c 1
 1553 297 l 1
 1374 109 1128 -11 878 -11 c 0
 515 -11 265 246 265 591 c 0
 265 1055 709 1511 1202 1511 c 0
 1453 1511 1647 1388 1743 1200 c 1
 1661 1147 l 1
 1574 1309 1403 1417 1182 1417 c 0
EndSplineSet
EndChar

StartChar: D
Encoding: 68 68 36
Width: 1346
VWidth: 2982
Flags: W
HStem: 0 90<275 737.425> 1403 90<555 993.27>
VStem: 1312 91<650.962 1101.59>
DStem2: 168 0 255.87 0 0.207912 0.978148<110.28 1452.8>
LayerCount: 2
Fore
SplineSet
487 90 m 2
 906 90 1312 461 1312 884 c 0
 1312 1186 1090 1403 767 1403 c 2
 555 1403 l 1
 275 90 l 1
 487 90 l 2
1403 904 m 0
 1403 440 963 0 468 0 c 2
 168 0 l 1
 483 1493 l 1
 786 1493 l 2
 1151 1493 1403 1245 1403 904 c 0
EndSplineSet
EndChar

StartChar: E
Encoding: 69 69 37
Width: 1094
VWidth: 2982
Flags: W
HStem: 0 90<275 1032> 822 90<450 1149> 1403 90<555 1335>
DStem2: 168 0 255.87 0 0.207912 0.978148<110.28 858.926 950.702 1452.8>
LayerCount: 2
Fore
SplineSet
1166 912 m 1
 1149 822 l 1
 432 822 l 1
 275 90 l 1
 1053 90 l 1
 1032 0 l 1
 168 0 l 1
 483 1493 l 1
 1352 1493 l 1
 1335 1403 l 1
 555 1403 l 1
 450 912 l 1
 1166 912 l 1
EndSplineSet
EndChar

StartChar: F
Encoding: 70 70 38
Width: 1094
VWidth: 2982
Flags: W
HStem: 0 21G<168 262.234> 822 90<450 1149> 1403 90<555 1335>
DStem2: 168 0 258 0 0.207912 0.978148<18.7121 858.926 950.702 1452.8>
LayerCount: 2
Fore
SplineSet
1166 912 m 1
 1149 822 l 1
 432 822 l 1
 258 0 l 1
 168 0 l 1
 483 1493 l 1
 1352 1493 l 1
 1335 1403 l 1
 555 1403 l 1
 450 912 l 1
 1166 912 l 1
EndSplineSet
EndChar

StartChar: G
Encoding: 71 71 39
Width: 1758
VWidth: 2982
Flags: W
HStem: -15 89<673.47 1135.15> 701 89<1047 1694> 1417 89<941.713 1406.94>
VStem: 265 91<384.582 840.891>
CounterMasks: 1 e0
LayerCount: 2
Fore
SplineSet
265 585 m 0
 265 1061 718 1506 1200 1506 c 0
 1448 1506 1645 1386 1743 1200 c 1
 1661 1147 l 1
 1574 1309 1403 1417 1182 1417 c 0
 759 1417 356 1027 356 602 c 0
 356 302 575 74 895 74 c 0
 1251 74 1600 352 1694 701 c 1
 1030 701 l 1
 1047 790 l 1
 1807 790 l 1
 1798 745 l 1
 1708 325 1296 -15 878 -15 c 0
 513 -15 265 242 265 585 c 0
EndSplineSet
EndChar

StartChar: H
Encoding: 72 72 40
Width: 1393
VWidth: 2982
Flags: W
HStem: 0 21G<168 262.234 1139 1233.26> 822 90<450 1314> 1473 20G<478.78 573 1452.8 1547>
DStem2: 168 0 258 0 0.207912 0.978148<18.7121 858.926 950.702 1525.87> 1139 0 1229 0 0.207912 0.978148<18.7121 840.422 932.821 1526.49>
LayerCount: 2
Fore
SplineSet
1457 1493 m 1
 1547 1493 l 1
 1229 0 l 1
 1139 0 l 1
 1314 822 l 1
 432 822 l 1
 258 0 l 1
 168 0 l 1
 483 1493 l 1
 573 1493 l 1
 450 912 l 1
 1335 912 l 1
 1457 1493 l 1
EndSplineSet
EndChar

StartChar: I
Encoding: 73 73 41
Width: 422
VWidth: 2982
Flags: W
HStem: 0 21G<168 262.22> 1473 20G<478.78 573>
VStem: 168 405
DStem2: 168 0 258 0 0.207912 0.978148<18.7121 1525.87>
LayerCount: 2
Fore
SplineSet
258 0 m 1
 168 0 l 1
 483 1493 l 1
 573 1493 l 1
 258 0 l 1
EndSplineSet
EndChar

StartChar: J
Encoding: 74 74 42
Width: 1021
VWidth: 2982
Flags: W
HStem: -15 89<377.607 655.008> 1473 20G<1085.75 1173>
VStem: 195 91<166.498 387>
DStem2: 769.552 -15 854.552 -15 0.207912 0.978148<244.307 1541.67>
LayerCount: 2
Fore
SplineSet
1090 1493 m 1
 1173 1493 l 1
 940 387 l 2
 893 168 692 -15 485 -15 c 0
 309 -15 195 119 195 295 c 0
 195 325 199 356 205 387 c 1
 295 387 l 1
 291 363 286 338 286 314 c 0
 286 175 378 74 508 74 c 0
 660 74 818 213 855 387 c 2
 1090 1493 l 1
EndSplineSet
EndChar

StartChar: K
Encoding: 75 75 43
Width: 1149
VWidth: 2982
Flags: W
HStem: 0 21G<168 262.233 1013.59 1139> 1473 20G<478.78 573 1242.79 1403>
DStem2: 168 0 258 0 0.207912 0.978148<18.7121 772.041 896.365 1525.87> 438 859 414 737 0.794472 0.607301<0 149.448 243.463 1045.23> 681 942 607 884 0.437257 -0.899337<19.8045 996.717>
LayerCount: 2
Fore
SplineSet
483 1493 m 1
 573 1493 l 1
 438 859 l 1
 1269 1493 l 1
 1403 1493 l 1
 681 942 l 1
 1139 0 l 1
 1023 0 l 1
 607 884 l 1
 414 737 l 1
 258 0 l 1
 168 0 l 1
 483 1493 l 1
EndSplineSet
EndChar

StartChar: L
Encoding: 76 76 44
Width: 1094
VWidth: 2982
Flags: W
HStem: 0 90<275 1036> 1473 20G<478.78 573>
DStem2: 168 0 255.87 0 0.207912 0.978148<110.28 1525.87>
LayerCount: 2
Fore
SplineSet
1036 0 m 1
 168 0 l 1
 483 1493 l 1
 573 1493 l 1
 275 90 l 1
 1055 90 l 1
 1036 0 l 1
EndSplineSet
EndChar

StartChar: M
Encoding: 77 77 45
Width: 1732
VWidth: 2982
Flags: W
HStem: 0 21G<36 132.05 854.859 871.851 1605 1699.56> 1491 20G<634.966 647.151 1728.21 1740.44>
VStem: 1605 94<0 477.867> 1641 100<995.245 1200>
DStem2: 36 0 124 0 0.372767 0.927925<32.8035 1326.36> 643 1511 607 1200 0.20323 -0.979131<297.193 1323.62> 912 215 859 -17 0.538851 0.842401<0 1222.59>
LayerCount: 2
Fore
SplineSet
124 0 m 1xd0
 36 0 l 1
 643 1511 l 1
 912 215 l 1
 1741 1511 l 1xd0
 1699 0 l 1
 1605 0 l 1xe0
 1641 1200 l 1
 859 -17 l 1
 607 1200 l 1
 124 0 l 1xd0
EndSplineSet
EndChar

StartChar: N
Encoding: 78 78 46
Width: 1678
VWidth: 2982
Flags: W
HStem: 0 21G<168 262.248 1494.05 1513.25> 1491 2G<484.751 503.943 1736.76 1830>
DStem2: 164.387 -17 254.387 -17 0.207912 0.978148<36.0918 1354.87> 489 1511 532 1290 0.59853 -0.8011<202.78 1634> 1420.45 -17 1509 -17 0.207912 0.978148<223.893 1543.65>
LayerCount: 2
Fore
SplineSet
168 0 m 1
 489 1511 l 1
 1467 202 l 1
 1741 1493 l 1
 1830 1493 l 1
 1509 -17 l 1
 532 1290 l 1
 258 0 l 1
 168 0 l 1
EndSplineSet
EndChar

StartChar: O
Encoding: 79 79 47
Width: 1758
VWidth: 2982
Flags: W
HStem: -15 89<673.47 1125.93> 1417 89<941.713 1404.79>
VStem: 265 91<384.582 840.891> 1724 91<649.325 1105.75>
LayerCount: 2
Fore
SplineSet
265 585 m 0
 265 1061 718 1506 1200 1506 c 0
 1565 1506 1815 1249 1815 904 c 0
 1815 440 1370 -15 878 -15 c 0
 513 -15 265 242 265 585 c 0
1182 1417 m 0
 759 1417 356 1027 356 602 c 0
 356 302 575 74 895 74 c 0
 1312 74 1724 457 1724 886 c 0
 1724 1191 1504 1417 1182 1417 c 0
EndSplineSet
EndChar

StartChar: P
Encoding: 80 80 48
Width: 1203
VWidth: 2982
Flags: W
HStem: 0 21G<168 262.223> 701 94<425 1026.16> 1406 89<555 1135.63>
VStem: 1231 94<999.253 1309.81>
DStem2: 168 0 258 0 0.207912 0.978148<18.7121 735.164 831.061 1455.74>
LayerCount: 2
Fore
SplineSet
1325 1186 m 0
 1325 947 1106 701 850 701 c 2
 406 701 l 1
 258 0 l 1
 168 0 l 1
 485 1495 l 1
 1016 1495 l 2
 1202 1495 1325 1361 1325 1186 c 0
871 795 m 2
 1050 795 1231 967 1231 1166 c 0
 1231 1303 1135 1406 996 1406 c 2
 555 1406 l 1
 425 795 l 1
 871 795 l 2
EndSplineSet
EndChar

StartChar: Q
Encoding: 81 81 49
Width: 1758
VWidth: 2982
Flags: W
HStem: -15 89<673.47 1139.72> 0 21G<1529.73 1664> 1417 89<941.713 1404.79>
VStem: 265 91<384.582 840.891> 1724 91<652.997 1105.75>
DStem2: 1345 508 1231 508 0.531796 -0.846873<0 222.496 322.662 534.975>
LayerCount: 2
Fore
SplineSet
1182 1417 m 0xb8
 759 1417 356 1027 356 602 c 0
 356 302 575 74 895 74 c 0
 1072 74 1245 143 1388 252 c 1
 1231 508 l 1
 1345 508 l 1
 1464 320 l 1
 1610 461 1724 660 1724 886 c 0
 1724 1191 1504 1417 1182 1417 c 0xb8
1815 904 m 0
 1815 833 1802 521 1506 248 c 1
 1664 0 l 1
 1542 0 l 1x78
 1431 181 l 1
 1269 60 1074 -15 878 -15 c 0
 513 -15 265 242 265 585 c 0
 265 1061 718 1506 1200 1506 c 0
 1565 1506 1815 1249 1815 904 c 0
EndSplineSet
EndChar

StartChar: R
Encoding: 82 82 50
Width: 1203
VWidth: 2982
Flags: W
HStem: 0 21G<168 262.223 1056.24 1164> 701 89<425 826> 1403 90<555 1135.63>
VStem: 1231 94<997.647 1307>
DStem2: 168 0 258 0 0.207912 0.978148<18.7121 735.164 826.17 1452.8> 927 707 826 701 0.317837 -0.948146<0 713.565>
LayerCount: 2
Fore
SplineSet
1325 1182 m 0
 1325 976 1160 752 927 707 c 1
 1164 0 l 1
 1063 0 l 1
 826 701 l 1
 406 701 l 1
 258 0 l 1
 168 0 l 1
 483 1493 l 1
 1016 1493 l 2
 1202 1493 1325 1359 1325 1182 c 0
869 790 m 2
 1050 790 1231 965 1231 1162 c 0
 1231 1301 1135 1403 996 1403 c 2
 555 1403 l 1
 425 790 l 1
 869 790 l 2
EndSplineSet
EndChar

StartChar: S
Encoding: 83 83 51
Width: 1177
VWidth: 2982
Flags: W
HStem: -17 92<431.184 799.202> 1200 21G<1126.5 1197.76> 1417 94<732.475 1038.62>
VStem: 211 92<202.859 421> 478 93<1009.92 1256.57> 1065 93<327.945 621.848> 1135 91<1224.43 1316.55>
LayerCount: 2
Fore
SplineSet
478 1095 m 0xfc
 478 1284 656 1511 910 1511 c 0
 1062 1511 1203 1414 1226 1229 c 1
 1135 1200 l 1xfa
 1118 1350 1008 1417 890 1417 c 0
 695 1417 571 1245 571 1116 c 0
 571 842 1158 885 1158 515 c 0
 1158 237 885 -17 581 -17 c 0
 385 -17 211 98 211 366 c 0
 211 384 211 402 213 421 c 1
 305 432 l 1
 304 417 303 402 303 388 c 0
 303 165 440 75 601 75 c 0
 850 75 1065 280 1065 495 c 0
 1065 816 478 766 478 1095 c 0xfc
EndSplineSet
EndChar

StartChar: T
Encoding: 84 84 52
Width: 982
VWidth: 2982
Flags: W
HStem: 0 21G<448 542.234> 1403 90<376 745 835 1224>
DStem2: 448 0 538 0 0.207912 0.978148<18.7121 1434.09>
LayerCount: 2
Fore
SplineSet
1243 1493 m 1
 1224 1403 l 1
 835 1403 l 1
 538 0 l 1
 448 0 l 1
 745 1403 l 1
 359 1403 l 1
 376 1493 l 1
 1243 1493 l 1
EndSplineSet
EndChar

StartChar: U
Encoding: 85 85 53
Width: 1393
VWidth: 2982
Flags: W
HStem: -15 89<543.917 902.262> 1473 20G<478.814 573 1452.75 1547>
VStem: 273 92<261.73 696.359>
DStem2: 165.505 -15 254.505 -15 0.207912 0.978148<500.814 1541.06> 1136.5 -15 1226.5 -15 0.207912 0.978148<374.172 1541.68>
LayerCount: 2
Fore
SplineSet
483 1493 m 1
 573 1493 l 1
 378 566 l 2
 369 526 365 487 365 453 c 0
 365 231 513 74 716 74 c 0
 955 74 1202 289 1260 566 c 2
 1457 1493 l 1
 1547 1493 l 1
 1350 566 l 2
 1283 248 991 -15 696 -15 c 0
 444 -15 273 177 273 432 c 0
 273 477 280 521 289 566 c 2
 483 1493 l 1
EndSplineSet
EndChar

StartChar: V
Encoding: 86 86 54
Width: 1286
VWidth: 2982
Flags: W
HStem: -17 21G<645.093 661.225> 1473 20G<354 451.94 1460.79 1572>
DStem2: 448 1493 354 1493 0.191739 -0.981446<0 1293.39> 698 224 649 -17 0.521541 0.853226<0 1486.94>
LayerCount: 2
Fore
SplineSet
1473 1493 m 1
 1572 1493 l 1
 649 -17 l 1
 354 1493 l 1
 448 1493 l 1
 698 224 l 1
 1473 1493 l 1
EndSplineSet
EndChar

StartChar: W
Encoding: 87 87 55
Width: 1965
VWidth: 2982
Flags: W
HStem: -17 21G<552.152 566.108 1405.42 1419.28> 1473 20G<340 432.866 1291.89 1305.6 2152.7 2260>
DStem2: 430 1493 340 1493 0.140962 -0.990015<0 1247.62> 607 258 555 -17 0.485584 0.87419<0 1159.61> 1303 1511 1247 1229 0.129001 -0.991645<272.42 1263.56> 1466 258 1408 -17 0.491411 0.870928<0 1418.6>
LayerCount: 2
Fore
SplineSet
340 1493 m 1
 430 1493 l 1
 607 258 l 1
 1303 1511 l 1
 1466 258 l 1
 2164 1493 l 1
 2260 1493 l 1
 1408 -17 l 1
 1247 1229 l 1
 555 -17 l 1
 340 1493 l 1
EndSplineSet
EndChar

StartChar: X
Encoding: 88 88 56
Width: 964
VWidth: 2982
Flags: W
HStem: 0 21G<25 140.411 836.099 942> 1473 20G<401 507.874 1085.57 1200>
DStem2: 25 0 126 0 0.584319 0.811524<59.0162 927.975 1113.43 1839.75> 502 1493 401 1493 0.283279 -0.959038<0 613.88 793.114 1528.16>
LayerCount: 2
Fore
SplineSet
401 1493 m 1
 502 1493 l 1
 675 904 l 1
 1100 1493 l 1
 1200 1493 l 1
 705 806 l 1
 942 0 l 1
 842 0 l 1
 634 705 l 1
 126 0 l 1
 25 0 l 1
 604 806 l 1
 401 1493 l 1
EndSplineSet
EndChar

StartChar: Y
Encoding: 89 89 57
Width: 1228
VWidth: 2982
Flags: W
HStem: 0 21G<571 664.248> 1473 20G<354 465.404 1389.16 1511>
DStem2: 457 1493 354 1493 0.384306 -0.923206<0 815.691> 571 0 660 0 0.207912 0.978148<18.5041 659.181> 773 741 797 645 0.64408 0.764958<0 982.951>
LayerCount: 2
Fore
SplineSet
354 1493 m 1
 457 1493 l 1
 773 741 l 1
 1406 1493 l 1
 1511 1493 l 1
 797 645 l 1
 660 0 l 1
 571 0 l 1
 707 645 l 1
 354 1493 l 1
EndSplineSet
EndChar

StartChar: Z
Encoding: 90 90 58
Width: 1185
VWidth: 2982
Flags: W
HStem: 0 90<222 1121> 1403 90<453 1262>
DStem2: 36 0 222 90 0.65801 0.753009<190.161 1863.19>
LayerCount: 2
Fore
SplineSet
453 1493 m 1
 1448 1493 l 1
 222 90 l 1
 1171 90 l 1
 1121 0 l 1
 36 0 l 1
 1262 1403 l 1
 403 1403 l 1
 453 1493 l 1
EndSplineSet
EndChar

StartChar: bracketleft
Encoding: 91 91 59
Width: 433
VWidth: 2982
Flags: W
HStem: -314 90<208 369> 1493 90<573 752>
VStem: 101 672
DStem2: 101 -314 188.87 -314 0.207912 0.978148<110.28 1865.65>
LayerCount: 2
Fore
SplineSet
573 1493 m 1
 208 -224 l 1
 387 -224 l 1
 369 -314 l 1
 101 -314 l 1
 504 1583 l 1
 773 1583 l 1
 752 1493 l 1
 573 1493 l 1
EndSplineSet
EndChar

StartChar: backslash
Encoding: 92 92 60
Width: 1168
VWidth: 2982
Flags: W
HStem: 0 21G<1049.07 1171> 1473 20G<318 436.967>
DStem2: 427 1493 318 1493 0.446014 -0.895026<0 1618.15>
LayerCount: 2
Fore
SplineSet
318 1493 m 1
 427 1493 l 1
 1171 0 l 1
 1059 0 l 1
 318 1493 l 1
EndSplineSet
EndChar

StartChar: bracketright
Encoding: 93 93 61
Width: 433
VWidth: 2982
Flags: W
HStem: -314 90<-47 132> 1493 90<336 497>
VStem: -67 671
DStem2: 112.87 -314 201 -314 0.207912 0.978148<92.0107 1847.38>
LayerCount: 2
Fore
SplineSet
497 1493 m 1
 318 1493 l 1
 336 1583 l 1
 604 1583 l 1
 201 -314 l 1
 -67 -314 l 1
 -47 -224 l 1
 132 -224 l 1
 497 1493 l 1
EndSplineSet
EndChar

StartChar: asciicircum
Encoding: 94 94 62
Width: 1196
VWidth: 2982
Flags: W
HStem: 1473 20G<853.305 979.032>
DStem2: 282 745 385 745 0.617357 0.786683<63.5878 896.017> 972 1493 900 1399 0.331698 -0.943385<64.796 758.724>
LayerCount: 2
Fore
SplineSet
869 1493 m 1
 972 1493 l 1
 1235 745 l 1
 1132 745 l 1
 900 1399 l 1
 385 745 l 1
 282 745 l 1
 869 1493 l 1
EndSplineSet
EndChar

StartChar: underscore
Encoding: 95 95 63
Width: 970
VWidth: 2982
Flags: W
HStem: -90 90<0 953>
LayerCount: 2
Fore
SplineSet
974 0 m 1
 953 -90 l 1
 -20 -90 l 1
 0 0 l 1
 974 0 l 1
EndSplineSet
EndChar

StartChar: quoteleft
Encoding: 8216 8216 64
Width: 523
VWidth: 2982
Flags: W
HStem: 1083 430
VStem: 380 224<1114.07 1279.5>
LayerCount: 2
Fore
SplineSet
604 1207 m 0
 604 1141 544 1083 481 1083 c 0
 432 1083 380 1117 380 1186 c 0
 380 1254 434 1401 602 1513 c 1
 679 1513 l 1
 591 1455 515 1354 502 1285 c 1
 508 1285 515 1288 524 1288 c 0
 571 1288 604 1254 604 1207 c 0
EndSplineSet
EndChar

StartChar: a
Encoding: 97 97 65
Width: 1060
VWidth: 2982
Flags: W
HStem: -17 89<292.78 600.75> 0 21G<824 920> 517 64<558.311 916> 942 90<535.257 832.057>
VStem: 150 92<124.328 342.647> 824 96<0 171.638> 938 92<501.429 832.005>
DStem2: 802.904 -17 892.904 -17 0.207912 0.978148<88.7154 234.766 270.719 545.845 611.149 697.902>
LayerCount: 2
Fore
SplineSet
920 0 m 1x7e
 824 0 l 1x7e
 824 27 l 2
 824 58 826 94 835 134 c 1
 850 213 l 1
 739 90 575 -17 416 -17 c 0xbe
 224 -17 150 96 150 205 c 0
 150 226 152 244 156 262 c 0
 224 577 649 581 902 581 c 2
 929 581 l 1
 936 613 938 643 938 669 c 0
 938 846 826 942 694 942 c 0
 602 942 497 895 410 797 c 1
 346 844 l 1
 459 974 596 1032 714 1032 c 0
 889 1032 1030 912 1030 694 c 0
 1030 658 1025 622 1019 581 c 1
 925 134 l 2
 918 101 914 72 914 49 c 0
 914 30 916 13 920 0 c 1x7e
436 72 m 0xbe
 600 72 786 205 875 325 c 1
 916 517 l 1
 698 513 297 502 246 262 c 0
 244 250 242 239 242 228 c 0
 242 152 295 72 436 72 c 0xbe
EndSplineSet
EndChar

StartChar: b
Encoding: 98 98 66
Width: 1215
VWidth: 2982
Flags: W
HStem: -15 89<496.938 814.47> 0 21G<143 249.5> 940 90<681.346 984.625> 1473 20G<478.762 573>
VStem: 1128 90<411.494 792.963>
DStem2: 163.329 -15 252.329 -15 0.207912 0.978148<32.3562 299.901 804.729 1541.51>
LayerCount: 2
Fore
SplineSet
1218 626 m 0x78
 1218 293 920 -15 628 -15 c 0xb8
 474 -15 333 126 312 260 c 1
 284 134 l 1
 275 83 260 38 239 0 c 1
 143 0 l 1
 164 30 184 74 195 134 c 1
 483 1493 l 1
 573 1493 l 1
 416 754 l 1
 500 897 696 1030 850 1030 c 0
 1072 1030 1218 853 1218 626 c 0x78
833 940 m 0
 598 940 354 685 354 406 c 0
 354 215 474 74 649 74 c 0
 882 74 1128 331 1128 611 c 0
 1128 801 1008 940 833 940 c 0
EndSplineSet
EndChar

StartChar: c
Encoding: 99 99 67
Width: 1098
VWidth: 2982
Flags: W
HStem: -11 92<449.083 776.821> 940 92<613.384 939.104>
VStem: 218 89<229.235 614.104>
LayerCount: 2
Fore
SplineSet
786 940 m 0
 553 940 307 694 307 410 c 0
 307 220 427 81 602 81 c 0
 734 81 867 158 961 280 c 1
 1030 235 l 1
 918 90 750 -11 581 -11 c 0
 361 -11 218 161 218 387 c 0
 218 724 510 1032 803 1032 c 0
 972 1032 1097 931 1147 786 c 1
 1059 741 l 1
 1016 861 916 940 786 940 c 0
EndSplineSet
EndChar

StartChar: d
Encoding: 100 100 68
Width: 1215
VWidth: 2982
Flags: W
HStem: -15 89<448.779 746.707> 0 21G<978 1074> 940 90<614.407 936.456> 1473 20G<1273.75 1367>
VStem: 218 89<225.204 604.204> 978 90<0 258.031>
DStem2: 957.329 -15 1047.33 -15 0.207912 0.978148<86.6707 281.189 786.225 1541.72>
LayerCount: 2
Fore
SplineSet
218 385 m 0xbc
 218 718 513 1030 803 1030 c 0
 959 1030 1102 897 1121 754 c 1
 1278 1493 l 1
 1367 1493 l 1
 1079 134 l 2
 1072 101 1068 72 1068 49 c 0
 1068 30 1070 13 1074 0 c 1
 978 0 l 1x7c
 978 27 l 2
 978 58 980 94 989 134 c 2
 1016 260 l 1
 938 126 737 -15 581 -15 c 0
 361 -15 218 158 218 385 c 0xbc
600 74 m 0xbc
 835 74 1081 327 1081 607 c 0
 1081 799 959 940 786 940 c 0
 555 940 307 694 307 406 c 0
 307 215 427 74 600 74 c 0xbc
EndSplineSet
EndChar

StartChar: e
Encoding: 101 101 69
Width: 1177
VWidth: 2982
Flags: W
HStem: -15 94<446.019 784.081> 508 85<346 1083> 940 90<616.149 940.586>
VStem: 218 89<225.941 499.983> 1083 92<594.085 786.578>
LayerCount: 2
Fore
SplineSet
346 593 m 1
 1083 593 l 1
 1083 609 l 2
 1083 801 963 940 788 940 c 0
 611 940 425 795 346 593 c 1
218 385 m 0
 218 720 515 1030 806 1030 c 0
 1030 1030 1175 855 1175 628 c 0
 1175 604 1175 577 1171 553 c 2
 1164 508 l 1
 318 508 l 1
 312 472 307 438 307 406 c 0
 307 215 427 79 602 79 c 0
 732 79 895 154 989 278 c 1
 1059 233 l 1
 947 87 750 -15 581 -15 c 0
 361 -15 218 158 218 385 c 0
EndSplineSet
EndChar

StartChar: f
Encoding: 102 102 70
Width: 532
VWidth: 2982
Flags: W
HStem: 0 21G<164 256.281> 925 89<293 361 470 701> 1448 58<731.122 842>
DStem2: 164 0 252 0 0.207912 0.978148<18.2962 945.745 1055.46 1323.75>
LayerCount: 2
Fore
SplineSet
164 0 m 1
 361 925 l 1
 275 925 l 1
 293 1014 l 1
 380 1014 l 1
 399 1104 l 2
 446 1325 649 1506 855 1506 c 1
 842 1448 l 1
 690 1448 526 1280 487 1104 c 1
 470 1014 l 1
 750 1014 l 1
 701 925 l 1
 450 925 l 1
 252 0 l 1
 164 0 l 1
EndSplineSet
EndChar

StartChar: g
Encoding: 103 103 71
Width: 1215
VWidth: 2982
Flags: W
HStem: -521 89<336.797 662.207> -15 89<445.83 749.038> 940 90<615.255 932.992> 994 20G<1185.5 1290>
VStem: 218 81<233.137 596.357>
DStem2: 850.258 -521 939.258 -521 0.207912 0.978148<324.938 798.393 1303.43 1571.39>
LayerCount: 2
Fore
SplineSet
218 385 m 0xd8
 218 718 513 1030 803 1030 c 0xe8
 959 1030 1100 889 1121 754 c 1
 1149 880 l 2
 1160 931 1175 976 1196 1014 c 1
 1290 1014 l 1
 1269 985 1251 940 1238 880 c 2
 1050 0 l 2
 989 -284 730 -521 470 -521 c 0
 352 -521 255 -472 192 -391 c 1
 271 -329 l 1
 322 -393 401 -432 493 -432 c 0
 696 -432 908 -242 961 0 c 1
 1016 260 l 1
 936 116 737 -15 581 -15 c 0
 361 -15 218 158 218 385 c 0xd8
596 74 m 0
 828 74 1074 331 1074 611 c 0
 1074 801 953 940 779 940 c 0
 544 940 299 685 299 406 c 0
 299 215 421 74 596 74 c 0
EndSplineSet
EndChar

StartChar: h
Encoding: 104 104 72
Width: 1071
VWidth: 2982
Flags: W
HStem: 0 21G<168 262.213 818 910.313> 940 90<682.595 915.301> 1473 20G<478.78 573>
VStem: 963 92<565.77 889.562>
DStem2: 168 0 258 0 0.207912 0.978148<18.7121 718.607 760.866 1525.87> 818 0 906 0 0.207912 0.978148<18.2962 751.255>
LayerCount: 2
Fore
SplineSet
168 0 m 1
 483 1493 l 1
 573 1493 l 1
 412 726 l 1
 513 884 694 1030 820 1030 c 0
 985 1030 1055 914 1055 756 c 0
 1055 716 1050 671 1041 626 c 2
 906 0 l 1
 818 0 l 1
 951 626 l 2
 959 662 963 701 963 739 c 0
 963 844 927 940 797 940 c 0
 634 940 396 660 365 508 c 2
 258 0 l 1
 168 0 l 1
EndSplineSet
EndChar

StartChar: i
Encoding: 105 105 73
Width: 422
VWidth: 2982
Flags: W
HStem: 0 21G<168 262.221> 994 20G<378.759 472> 1173 162<415.29 544.224>
VStem: 396 166<1192.39 1315.93>
DStem2: 168 0 258 0 0.207912 0.978148<18.7121 1036.54>
LayerCount: 2
Fore
SplineSet
396 1235 m 0
 396 1288 444 1335 495 1335 c 0
 534 1335 562 1307 562 1269 c 0
 562 1222 515 1173 461 1173 c 0
 423 1173 396 1200 396 1235 c 0
258 0 m 1
 168 0 l 1
 383 1014 l 1
 472 1014 l 1
 258 0 l 1
EndSplineSet
EndChar

StartChar: j
Encoding: 106 106 74
Width: 415
VWidth: 2982
Flags: W
HStem: -312 77<-81 28.8277> 994 20G<378.751 472> 1173 162<410.19 538.875>
VStem: 391 166<1191.25 1315.27>
DStem2: 101.257 -312 191.257 -312 0.207912 0.978148<166.252 1355.6>
LayerCount: 2
Fore
SplineSet
383 1014 m 1
 472 1014 l 1
 258 2 l 2
 222 -168 64 -312 -96 -312 c 1
 -81 -235 l 1
 27 -235 141 -126 168 2 c 2
 383 1014 l 1
391 1238 m 0
 391 1285 438 1335 493 1335 c 0
 530 1335 557 1307 557 1271 c 0
 557 1220 510 1173 459 1173 c 0
 419 1173 391 1200 391 1238 c 0
EndSplineSet
EndChar

StartChar: k
Encoding: 107 107 75
Width: 950
VWidth: 2982
Flags: W
HStem: 0 21G<168 262.247 822.102 951> 994 20G<895.612 1057> 1473 20G<478.78 573>
DStem2: 168 0 258 0 0.207912 0.978148<18.7121 514.529 638.852 1525.87> 385 607 470 566 0.79614 0.605112<0 42.8623 142.064 673.808> 549 626 470 566 0.54035 -0.84144<7.79879 681.282>
LayerCount: 2
Fore
SplineSet
258 0 m 1
 168 0 l 1
 483 1493 l 1
 573 1493 l 1
 385 607 l 1
 922 1014 l 1
 1057 1014 l 1
 549 626 l 1
 951 0 l 1
 835 0 l 1
 470 566 l 1
 361 485 l 1
 258 0 l 1
EndSplineSet
EndChar

StartChar: l
Encoding: 108 108 76
Width: 422
VWidth: 2982
Flags: W
HStem: 0 21G<168 262.22> 1473 20G<478.78 573>
VStem: 168 405
DStem2: 168 0 258 0 0.207912 0.978148<18.7121 1525.87>
LayerCount: 2
Fore
SplineSet
258 0 m 1
 168 0 l 1
 483 1493 l 1
 573 1493 l 1
 258 0 l 1
EndSplineSet
EndChar

StartChar: m
Encoding: 109 109 77
Width: 1595
VWidth: 2982
Flags: W
HStem: 0 21G<168 262.213 752 846.246 1341 1435.23> 940 90<662.293 859.522 1244.88 1444.09> 994 20G<359 456>
VStem: 365 92<833.488 1014> 900 106<734 900.789> 1486 92<487.5 898.073>
DStem2: 168 0 258 0 0.207912 0.978148<18.7121 726.727 768.691 983.812> 752 0 842 0 0.207912 0.978148<18.7121 717.21> 1341 0 1431 0 0.207912 0.978148<18.7121 759.829>
LayerCount: 2
Fore
SplineSet
359 1014 m 1xbc
 455 1014 l 1xbc
 457 1006 457 994 457 983 c 0
 457 951 453 918 444 880 c 2
 412 734 l 1
 508 886 675 1030 786 1030 c 0
 938 1030 1006 916 1006 771 c 0
 1006 759 1003 745 1003 734 c 1
 1100 889 1254 1027 1367 1027 c 0
 1518 1027 1578 914 1578 767 c 0
 1578 720 1574 673 1563 624 c 2
 1431 0 l 1
 1341 0 l 1
 1473 624 l 2
 1482 662 1486 705 1486 748 c 0
 1486 846 1455 938 1345 938 c 0
 1204 938 983 662 949 504 c 2
 842 0 l 1
 752 0 l 1
 886 626 l 2
 895 665 900 709 900 750 c 0
 900 850 869 940 759 940 c 0xdc
 626 940 401 679 365 508 c 2
 258 0 l 1
 168 0 l 1
 354 880 l 2
 361 914 365 942 365 965 c 0
 365 985 363 1000 359 1014 c 1xbc
EndSplineSet
EndChar

StartChar: n
Encoding: 110 110 78
Width: 1071
VWidth: 2982
Flags: W
HStem: 0 21G<168 262.213 818 910.313> 940 90<683.029 915.301> 994 20G<359 456>
VStem: 365 92<831.576 1014> 963 92<565.77 889.562>
DStem2: 168 0 258 0 0.207912 0.978148<18.7121 718.607 762.822 983.812> 818 0 906 0 0.207912 0.978148<18.2962 751.255>
LayerCount: 2
Fore
SplineSet
359 1014 m 1xb8
 455 1014 l 1xb8
 457 1006 457 994 457 983 c 0
 457 951 453 918 444 880 c 2
 412 728 l 1
 517 889 694 1030 820 1030 c 0
 985 1030 1055 914 1055 756 c 0
 1055 716 1050 671 1041 626 c 2
 906 0 l 1
 818 0 l 1
 951 626 l 2
 959 662 963 701 963 739 c 0
 963 844 927 940 797 940 c 0xd8
 634 940 396 660 365 508 c 2
 258 0 l 1
 168 0 l 1
 354 880 l 2
 361 914 365 942 365 965 c 0
 365 985 363 1000 359 1014 c 1xb8
EndSplineSet
EndChar

StartChar: o
Encoding: 111 111 79
Width: 1282
VWidth: 2982
Flags: W
HStem: -15 89<483.606 855.049> 940 90<649.395 1023.34>
VStem: 220 92<242.125 605.092> 1196 84<411.622 761.926>
LayerCount: 2
Fore
SplineSet
220 396 m 0
 220 726 530 1030 859 1030 c 0
 1110 1030 1280 853 1280 615 c 0
 1280 305 980 -15 638 -15 c 0
 389 -15 220 158 220 396 c 0
844 940 m 0
 581 940 312 696 312 416 c 0
 312 222 453 74 660 74 c 0
 927 74 1196 320 1196 596 c 0
 1196 792 1053 940 844 940 c 0
EndSplineSet
EndChar

StartChar: p
Encoding: 112 112 80
Width: 1215
VWidth: 2982
Flags: W
HStem: -448 21G<72 165.266> -15 89<496.752 814.47> 940 90<680.997 984.625> 994 20G<359 456>
VStem: 365 92<745.359 1014> 1128 90<411.494 792.963>
DStem2: 72 -448 161 -448 0.207912 0.978148<18.5041 742.427 1247.26 1441.98>
LayerCount: 2
Fore
SplineSet
1218 626 m 0xec
 1218 293 920 -15 628 -15 c 0
 474 -15 331 116 312 260 c 1
 161 -448 l 1
 72 -448 l 1
 354 880 l 2
 361 914 365 942 365 965 c 0
 365 985 363 1000 359 1014 c 1
 455 1014 l 1xdc
 457 1006 457 994 457 983 c 0
 457 951 453 918 444 880 c 2
 416 754 l 1
 497 889 696 1030 850 1030 c 0
 1072 1030 1218 853 1218 626 c 0xec
833 940 m 0xec
 598 940 354 685 354 406 c 0
 354 215 474 74 649 74 c 0
 882 74 1128 331 1128 611 c 0
 1128 801 1008 940 833 940 c 0xec
EndSplineSet
EndChar

StartChar: q
Encoding: 113 113 81
Width: 1215
VWidth: 2982
Flags: W
HStem: -448 21G<867 959.262> -15 89<448.779 751.823> 940 90<614.407 936.27> 994 20G<1185.5 1290>
VStem: 218 89<225.204 604.204>
DStem2: 867 -448 955 -448 0.207912 0.978148<18.2962 723.507 1228.54 1496.5>
LayerCount: 2
Fore
SplineSet
218 385 m 0xd8
 218 718 513 1030 803 1030 c 0xe8
 959 1030 1100 889 1121 754 c 1
 1149 880 l 2
 1160 931 1175 976 1196 1014 c 1
 1290 1014 l 1
 1269 985 1251 940 1238 880 c 2
 955 -448 l 1
 867 -448 l 1
 1016 260 l 1
 936 116 737 -15 581 -15 c 0
 361 -15 218 158 218 385 c 0xd8
600 74 m 0
 835 74 1081 327 1081 607 c 0
 1081 799 959 940 786 940 c 0
 555 940 307 694 307 406 c 0
 307 215 427 74 600 74 c 0
EndSplineSet
EndChar

StartChar: r
Encoding: 114 114 82
Width: 648
VWidth: 2982
Flags: W
HStem: 0 21G<168 262.184> 994 20G<359 456 693 775.944>
VStem: 365 92<835.943 1014>
DStem2: 168 0 258 0 0.207912 0.978148<18.7121 746.033 789.085 983.812>
LayerCount: 2
Fore
SplineSet
359 1014 m 1
 455 1014 l 1
 457 1006 457 994 457 983 c 0
 457 951 453 918 444 880 c 2
 416 754 l 1
 472 859 634 987 752 1030 c 1
 837 959 l 1
 658 959 416 745 367 521 c 1
 258 0 l 1
 168 0 l 1
 354 880 l 2
 361 914 365 942 365 965 c 0
 365 985 363 1000 359 1014 c 1
EndSplineSet
EndChar

StartChar: s
Encoding: 115 115 83
Width: 892
VWidth: 2982
Flags: W
HStem: -17 89<333.642 609.479> 944 88<529.156 753.824>
VStem: 181 92<136.213 289> 359 96<679.504 870.852> 750 92<208.014 434.8> 799 90<830.381 897.842>
LayerCount: 2
Fore
SplineSet
359 739 m 0xf8
 359 882 491 1032 667 1032 c 0
 773 1032 871 969 889 835 c 1
 799 806 l 1xf4
 786 900 718 944 647 944 c 0
 530 944 455 839 455 761 c 0
 455 591 842 613 842 359 c 0
 842 161 651 -17 438 -17 c 0
 302 -17 181 64 181 250 c 0
 181 262 181 275 184 289 c 1
 275 302 l 1
 275 291 273 282 273 271 c 0
 273 132 361 72 459 72 c 0
 607 72 750 197 750 336 c 0
 750 542 359 513 359 739 c 0xf8
EndSplineSet
EndChar

StartChar: t
Encoding: 116 116 84
Width: 551
VWidth: 2982
Flags: W
HStem: 0 21G<168 262.259> 925 89<293 365 472 705>
VStem: 168 584
DStem2: 168 0 258 0 0.207912 0.978148<18.7121 945.745 1055.05 1281.9>
LayerCount: 2
Fore
SplineSet
258 0 m 1
 168 0 l 1
 365 925 l 1
 275 925 l 1
 293 1014 l 1
 383 1014 l 1
 434 1254 l 1
 524 1254 l 1
 472 1014 l 1
 752 1014 l 1
 705 925 l 1
 455 925 l 1
 258 0 l 1
EndSplineSet
EndChar

StartChar: u
Encoding: 117 117 85
Width: 1066
VWidth: 2982
Flags: W
HStem: -15 89<416.819 692.137> 994 20G<378.758 472 1022.79 1117>
VStem: 239 92<164.038 543.75>
DStem2: 164.552 -15 254.552 -15 0.207912 0.978148<355.562 1051.93> 809.552 -15 899.552 -15 0.207912 0.978148<235.748 1051.72>
LayerCount: 2
Fore
SplineSet
383 1014 m 1
 472 1014 l 1
 340 387 l 1
 333 361 331 336 331 312 c 0
 331 175 416 74 546 74 c 0
 698 74 857 213 895 387 c 1
 1027 1014 l 1
 1117 1014 l 1
 985 387 l 2
 938 168 737 -15 530 -15 c 0
 354 -15 239 119 239 295 c 0
 239 325 244 356 250 387 c 2
 383 1014 l 1
EndSplineSet
EndChar

StartChar: v
Encoding: 118 118 86
Width: 946
VWidth: 2982
Flags: W
HStem: 994 20G<250 350.217 1017.35 1128>
DStem2: 346 1014 250 1014 0.206199 -0.97851<0 828.832> 517 203 470 -30 0.5332 0.845989<0 959.629>
LayerCount: 2
Fore
SplineSet
250 1014 m 1
 346 1014 l 1
 517 203 l 1
 1030 1014 l 1
 1128 1014 l 1
 470 -30 l 1
 250 1014 l 1
EndSplineSet
EndChar

StartChar: w
Encoding: 119 119 87
Width: 1600
VWidth: 2982
Flags: W
HStem: -17 21G<454.984 471.667 1138.78 1155.42> 994 20G<252 354.111 1012.37 1029.17 1674.57 1783>
DStem2: 350 1014 252 1014 0.196848 -0.980434<0 809.57> 513 221 459 -17 0.533836 0.845588<0 728.707> 1025 1032 972 793 0.204002 -0.97897<223.162 828.421> 1194 221 1143 -17 0.527404 0.849615<0 933.755>
LayerCount: 2
Fore
SplineSet
252 1014 m 1
 350 1014 l 1
 513 221 l 1
 1025 1032 l 1
 1194 221 l 1
 1687 1014 l 1
 1783 1014 l 1
 1143 -17 l 1
 972 793 l 1
 459 -17 l 1
 252 1014 l 1
EndSplineSet
EndChar

StartChar: x
Encoding: 120 120 88
Width: 906
VWidth: 2982
Flags: W
HStem: 0 21G<36 158.865 757.588 871> 994 20G<293 400.524 922.005 1045>
DStem2: 36 0 141 0 0.66546 0.746434<69.8733 685.325 821.732 1358.46> 391 1014 293 1014 0.427856 -0.903847<0 441.928 570.092 1077.37>
LayerCount: 2
Fore
SplineSet
293 1014 m 1
 391 1014 l 1
 581 615 l 1
 940 1014 l 1
 1045 1014 l 1
 618 538 l 1
 871 0 l 1
 767 0 l 1
 551 459 l 1
 141 0 l 1
 36 0 l 1
 517 538 l 1
 293 1014 l 1
EndSplineSet
EndChar

StartChar: y
Encoding: 121 121 89
Width: 946
VWidth: 2982
Flags: W
HStem: -521 21G<126 231.831> 994 20G<250 347.575 1022.16 1128>
DStem2: 126 -521 220 -521 0.509126 0.860692<47.8578 602.492 743.292 1783.45> 344 1014 250 1014 0.176327 -0.984332<0 909.189>
LayerCount: 2
Fore
SplineSet
250 1014 m 1
 344 1014 l 1
 504 119 l 1
 1034 1014 l 1
 1128 1014 l 1
 220 -521 l 1
 126 -521 l 1
 432 -2 l 1
 250 1014 l 1
EndSplineSet
EndChar

StartChar: z
Encoding: 122 122 90
Width: 888
VWidth: 2982
Flags: W
HStem: 0 90<224 822> 925 89<374 884>
DStem2: 36 0 224 90 0.675761 0.737121<193.384 1254.88>
LayerCount: 2
Fore
SplineSet
374 1014 m 1
 1070 1014 l 1
 224 90 l 1
 869 90 l 1
 822 0 l 1
 36 0 l 1
 884 925 l 1
 325 925 l 1
 374 1014 l 1
EndSplineSet
EndChar

StartChar: braceleft
Encoding: 123 123 91
Width: 570
VWidth: 2982
Flags: W
HStem: -312 62<381.734 448> 1506 61<743.282 833>
VStem: 248 92<-220.614 163.938> 340 92<196.422 550.11>
DStem2: 191.455 -312 280.455 -312 0.207912 0.978148<254.487 757.294 1070.09 1799.7>
LayerCount: 2
Fore
SplineSet
607 1224 m 2xd0
 544 929 l 2
 510 771 455 696 363 628 c 1
 403 591 432 544 432 457 c 0xd0
 432 423 427 380 416 331 c 2
 354 34 l 2
 344 -11 340 -51 340 -85 c 0
 340 -190 383 -250 461 -250 c 1
 448 -312 l 1
 365 -312 248 -275 248 -94 c 0xe0
 248 -58 252 -15 265 34 c 1
 327 331 l 2
 336 372 340 403 340 432 c 0
 340 508 307 546 250 591 c 1
 267 665 l 1
 369 726 421 773 455 925 c 1
 517 1224 l 1
 579 1515 745 1567 846 1567 c 1
 833 1506 l 1
 730 1506 645 1403 607 1224 c 2xd0
EndSplineSet
EndChar

StartChar: bar
Encoding: 124 124 92
Width: 422
VWidth: 2982
Flags: W
VStem: 134 473
DStem2: 134 -150 224 -150 0.207912 0.978148<18.7121 1831.49>
LayerCount: 2
Fore
SplineSet
224 -150 m 1
 134 -150 l 1
 517 1641 l 1
 607 1641 l 1
 224 -150 l 1
EndSplineSet
EndChar

StartChar: braceright
Encoding: 125 125 93
Width: 574
VWidth: 2982
Flags: W
HStem: -314 62<7 96.7256> 1506 59<391 455.357>
VStem: 408 96<701.804 1063.42> 502 91<1084.41 1477.72>
DStem2: 161.881 -314 251.881 -314 0.207912 0.978148<140.165 871.883 1185.46 1687.99>
LayerCount: 2
Fore
SplineSet
380 1506 m 1xd0
 391 1565 l 1
 479 1565 593 1529 593 1345 c 0xd0
 593 1309 589 1267 579 1220 c 2
 515 922 l 2
 506 882 504 850 504 824 c 0
 504 745 534 707 591 662 c 1
 575 589 l 1
 472 528 421 481 389 329 c 2
 325 30 l 1
 265 -262 94 -314 -7 -314 c 1
 7 -252 l 1
 109 -252 197 -150 235 30 c 2
 299 329 l 2
 336 502 403 573 479 626 c 1
 434 671 408 724 408 806 c 0xe0
 408 839 414 878 423 925 c 1
 487 1224 l 2
 497 1267 502 1307 502 1341 c 0
 502 1448 459 1506 380 1506 c 1xd0
EndSplineSet
EndChar

StartChar: asciitilde
Encoding: 126 126 94
Width: 1058
VWidth: 2982
Flags: W
HStem: 378 94<709.862 965.521> 513 94<305.892 574.942>
VStem: 205 60<387 455.362> 1006 57<530.641 598>
LayerCount: 2
Fore
SplineSet
1006 598 m 1
 1063 598 l 1
 1030 438 938 378 839 378 c 0
 687 378 557 513 419 513 c 0
 369 513 286 495 265 387 c 1
 205 387 l 1
 239 553 344 607 438 607 c 0
 609 607 724 472 857 472 c 0
 902 472 980 485 1006 598 c 1
EndSplineSet
EndChar

StartChar: exclamdown
Encoding: 161 161 95
Width: 570
VWidth: 2982
Flags: W
HStem: -477 21G<126 247.764> 861 169<423.725 552.239>
VStem: 403 170<881.932 1009.14>
LayerCount: 2
Fore
SplineSet
416 745 m 1
 474 745 l 1
 244 -477 l 1
 126 -477 l 1
 416 745 l 1
403 929 m 0
 403 987 461 1030 506 1030 c 0
 546 1030 573 1000 573 963 c 0
 573 904 515 861 470 861 c 0
 432 861 403 891 403 929 c 0
EndSplineSet
EndChar

StartChar: cent
Encoding: 162 162 96
Width: 1105
VWidth: 2982
Flags: W
HStem: -11 92<446.222 542 651 790.389> 940 87<613.016 743 850 941.163>
VStem: 218 91<227.215 606.858>
DStem2: 493 -239 581 -239 0.207912 0.978148<18.2962 233.205 343.901 1205.21 1315.49 1526.28>
LayerCount: 2
Fore
SplineSet
810 1254 m 1
 900 1254 l 1
 850 1030 l 1
 998 1014 1106 920 1153 786 c 1
 1066 741 l 1
 1027 848 944 922 835 938 c 1
 651 79 l 1
 767 92 884 168 965 275 c 1
 1034 231 l 1
 931 98 784 2 632 -11 c 1
 581 -239 l 1
 493 -239 l 1
 542 -11 l 1
 342 7 218 173 218 385 c 0
 218 683 463 998 761 1027 c 1
 810 1254 l 1
743 940 m 1
 519 912 309 665 309 408 c 0
 309 233 410 101 560 81 c 1
 743 940 l 1
EndSplineSet
EndChar

StartChar: sterling
Encoding: 163 163 97
Width: 1033
VWidth: 2982
Flags: W
HStem: 0 90<96 178.623 250 933> 701 89<280 500 598 871> 1424 87<779.342 1068.72>
VStem: 1147 62<1202 1329.58>
DStem2: 500 696 589 701 0.112379 0.993665<-263.299 0 104.418 635.76>
LayerCount: 2
Fore
SplineSet
871 701 m 1
 589 701 l 1
 530 318 356 166 250 90 c 1
 983 90 l 1
 933 0 l 1
 96 0 l 1
 90 83 l 1
 346 215 440 401 483 607 c 1
 491 636 497 665 500 696 c 1
 231 696 l 1
 280 786 l 1
 510 786 l 1
 526 931 528 1072 557 1200 c 1
 598 1395 786 1511 951 1511 c 0
 1090 1511 1209 1424 1209 1233 c 2
 1209 1202 l 1
 1147 1191 l 1
 1147 1213 l 2
 1147 1356 1045 1424 933 1424 c 0
 810 1424 673 1343 645 1202 c 1
 618 1085 615 940 598 790 c 1
 920 790 l 1
 871 701 l 1
EndSplineSet
EndChar

StartChar: fraction
Encoding: 8260 8260 98
Width: 1177
VWidth: 2982
Flags: W
HStem: 0 21G<2 132.446> 1473 20G<1360.55 1491>
DStem2: 2 0 114 0 0.677973 0.735087<75.933 2031.05>
LayerCount: 2
Fore
SplineSet
1379 1493 m 1
 1491 1493 l 1
 114 0 l 1
 2 0 l 1
 1379 1493 l 1
EndSplineSet
EndChar

StartChar: yen
Encoding: 165 165 99
Width: 1228
VWidth: 2982
Flags: W
HStem: 0 21G<571 664.239> 401 94<314 656 765 1097> 645 96<369 667 878 1157> 1473 20G<354 465.404 1389.16 1511>
DStem2: 457 1493 354 1493 0.387399 -0.921912<0 774.632> 571 0 660 0 0.207912 0.978148<18.5041 409.91 524.518 659.181> 773 741 878 741 0.643979 0.765043<67.6178 982.951>
LayerCount: 2
Fore
SplineSet
1117 495 m 1
 1097 401 l 1
 745 401 l 1
 660 0 l 1
 571 0 l 1
 656 401 l 1
 293 401 l 1
 314 495 l 1
 675 495 l 1
 707 645 l 1
 349 645 l 1
 369 741 l 1
 667 741 l 1
 354 1493 l 1
 457 1493 l 1
 773 741 l 1
 1406 1493 l 1
 1511 1493 l 1
 878 741 l 1
 1177 741 l 1
 1157 645 l 1
 797 645 l 1
 765 495 l 1
 1117 495 l 1
EndSplineSet
EndChar

StartChar: florin
Encoding: 402 402 100
Width: 809
VWidth: 2982
Flags: W
HStem: -164 59<-96 50.6064> 786 89<408 546 675 1021> 1448 58<1043.77 1188>
DStem2: 286 158 374 141 0.382352 0.924017<-188.04 679.694 811.255 1333.7>
LayerCount: 2
Fore
SplineSet
1072 875 m 1
 1021 786 l 1
 638 786 l 1
 374 141 l 1
 289 -79 90 -164 -109 -164 c 1
 -96 -105 l 1
 64 -105 222 -11 286 158 c 1
 546 786 l 1
 359 786 l 1
 408 875 l 1
 581 875 l 1
 718 1202 l 1
 806 1421 1000 1506 1200 1506 c 1
 1188 1448 l 1
 1027 1448 871 1354 803 1184 c 1
 675 875 l 1
 1072 875 l 1
EndSplineSet
EndChar

StartChar: section
Encoding: 167 167 101
Width: 897
VWidth: 2982
Flags: W
HStem: -134 89<300.921 590.4> 1202 21G<940 1032> 1417 89<604.592 881.544>
VStem: 156 90<9.79263 173> 271 94<597.267 828.098> 369 97<1055.21 1289.12> 726 96<86.6578 317.522> 828 92<552.644 775.527> 940 94<1202 1357.92>
LayerCount: 2
Fore
SplineSet
822 242 m 0
 822 51 634 -134 419 -134 c 0
 282 -134 156 -51 156 139 c 0
 156 150 158 161 158 173 c 1
 248 173 l 1
 248 161 246 152 246 141 c 0
 246 4 333 -45 434 -45 c 0
 593 -45 726 85 726 218 c 0
 726 436 271 393 271 671 c 0
 271 720 289 869 446 974 c 1
 401 1012 369 1061 369 1135 c 0
 369 1325 553 1506 771 1506 c 0
 908 1506 1034 1426 1034 1235 c 0
 1034 1224 1032 1213 1032 1202 c 1
 940 1202 l 1
 940 1226 l 2
 940 1361 855 1417 754 1417 c 0
 602 1417 466 1294 466 1157 c 0
 466 936 920 980 920 705 c 0
 920 656 902 508 745 403 c 1
 790 365 822 316 822 242 c 0
669 455 m 1
 799 519 828 626 828 679 c 0
 828 812 651 855 519 922 c 1
 391 857 365 748 365 696 c 0
 365 560 534 524 669 455 c 1
EndSplineSet
EndChar

StartChar: currency
Encoding: 164 164 102
Width: 1301
VWidth: 2982
Flags: W
HStem: 331 92<583.709 916.121> 1104 90<715.153 1045.17>
VStem: 376 92<539.497 859.77> 1164 94<663.673 986.674>
DStem2: 211 316 260 252 0.774047 0.633128<0 279.585 1220.47 1480.52> 493 1254 416 1191 0.618935 -0.785442<1.82485 201.949 970.36 1189.14>
LayerCount: 2
Fore
SplineSet
376 673 m 0
 376 839 470 967 540 1036 c 1
 416 1191 l 1
 493 1254 l 1
 615 1100 l 1
 703 1157 803 1194 904 1194 c 0
 1010 1194 1097 1155 1157 1092 c 1
 1359 1254 l 1
 1408 1191 l 1
 1215 1030 l 1
 1243 978 1258 918 1258 853 c 0
 1258 690 1166 562 1094 493 c 1
 1229 320 l 1
 1153 258 l 1
 1019 427 l 1
 931 367 828 331 728 331 c 0
 622 331 534 367 472 427 c 1
 260 252 l 1
 211 316 l 1
 423 491 l 1
 393 542 376 607 376 673 c 0
889 1104 m 0
 679 1104 468 912 468 692 c 0
 468 538 579 423 743 423 c 0
 947 423 1164 611 1164 833 c 0
 1164 987 1053 1104 889 1104 c 0
EndSplineSet
EndChar

StartChar: quotesingle
Encoding: 39 39 103
Width: 451
VWidth: 2982
Flags: W
HStem: 1164 387<497 504>
VStem: 446 169
LayerCount: 2
Fore
SplineSet
504 1164 m 1
 446 1164 l 1
 497 1551 l 1
 615 1551 l 1
 504 1164 l 1
EndSplineSet
EndChar

StartChar: quotedblleft
Encoding: 8220 8220 104
Width: 737
VWidth: 2982
Flags: W
HStem: 1083 205<502 572.345 771 841.008>
VStem: 380 224<1114.07 1279.5> 649 224<1115.45 1279.5>
LayerCount: 2
Fore
SplineSet
604 1207 m 0
 604 1141 544 1083 481 1083 c 0
 432 1083 380 1117 380 1186 c 0
 380 1254 434 1401 602 1513 c 1
 679 1513 l 1
 591 1455 515 1354 502 1285 c 1
 508 1285 515 1288 524 1288 c 0
 571 1288 604 1254 604 1207 c 0
873 1207 m 0
 873 1141 812 1083 750 1083 c 0
 701 1083 649 1117 649 1186 c 0
 649 1254 703 1401 871 1513 c 1
 947 1513 l 1
 859 1455 784 1354 771 1285 c 1
 777 1285 784 1288 792 1288 c 0
 839 1288 873 1254 873 1207 c 0
EndSplineSet
EndChar

StartChar: guillemotleft
Encoding: 171 171 105
Width: 874
VWidth: 2982
Flags: W
DStem2: 340 508 231 508 0.451198 -0.892424<0 351.072> 231 508 340 508 0.680059 0.733157<74.1265 489.663> 669 508 560 508 0.447214 -0.894427<0 351.51> 560 508 669 508 0.681155 0.732139<74.2459 488.3>
LayerCount: 2
Fore
SplineSet
891 867 m 1
 1003 867 l 1
 669 508 l 1
 848 150 l 1
 739 150 l 1
 560 508 l 1
 891 867 l 1
564 867 m 1
 673 867 l 1
 340 508 l 1
 521 150 l 1
 410 150 l 1
 231 508 l 1
 564 867 l 1
EndSplineSet
EndChar

StartChar: guilsinglleft
Encoding: 8249 8249 106
Width: 472
VWidth: 2982
Flags: W
VStem: 143 444
DStem2: 255 508 143 508 0.45318 -0.891419<0 350.851> 143 508 255 508 0.681155 0.732139<76.2893 490.344>
LayerCount: 2
Fore
SplineSet
477 867 m 1
 587 867 l 1
 255 508 l 1
 434 150 l 1
 325 150 l 1
 143 508 l 1
 477 867 l 1
EndSplineSet
EndChar

StartChar: guilsinglright
Encoding: 8250 8250 107
Width: 472
VWidth: 2982
Flags: W
VStem: 103 443
DStem2: 103 150 215 150 0.681078 0.73221<76.2808 488.93> 367 867 255 867 0.450196 -0.89293<0 351.625>
LayerCount: 2
Fore
SplineSet
255 867 m 1
 367 867 l 1
 546 508 l 1
 215 150 l 1
 103 150 l 1
 436 508 l 1
 255 867 l 1
EndSplineSet
EndChar

StartChar: endash
Encoding: 8211 8211 108
Width: 530
VWidth: 2982
Flags: W
HStem: 446 125<121 626>
VStem: 94 557
LayerCount: 2
Fore
SplineSet
651 571 m 1
 626 446 l 1
 94 446 l 1
 121 571 l 1
 651 571 l 1
EndSplineSet
EndChar

StartChar: dagger
Encoding: 8224 8224 109
Width: 1168
VWidth: 2982
Flags: W
HStem: 940 90<363 728.568 874.056 1226> 1473 20G<853.409 947>
DStem2: 479 -286 568 -286 0.207912 0.978148<18.5041 1272.1 1344.78 1818.72>
LayerCount: 2
Fore
SplineSet
568 -286 m 1
 479 -286 l 1
 759 955 l 1
 342 940 l 1
 363 1030 l 1
 771 1014 l 1
 857 1493 l 1
 947 1493 l 1
 831 1014 l 1
 1245 1030 l 1
 1226 940 l 1
 818 955 l 1
 568 -286 l 1
EndSplineSet
EndChar

StartChar: daggerdbl
Encoding: 8225 8225 110
Width: 1168
VWidth: 2982
Flags: W
HStem: 262 90<218 569.944 715.64 1083> 278 60<242.056 613 687 1040.36> 857 90<344 709.568 855.056 1209> 871 60<386.432 741 812 1182.94> 1473 20G<853.263 947>
DStem2: 479 -286 568 -286 0.207912 0.978148<18.5041 579.535 653.61 1186.19 1259.64 1818.72>
LayerCount: 2
Fore
SplineSet
568 -286 m 1x48
 479 -286 l 1
 613 278 l 1x48
 199 262 l 1
 218 352 l 1x88
 626 338 l 1
 741 871 l 1x58
 325 857 l 1
 344 947 l 1x28
 752 931 l 1
 857 1493 l 1
 947 1493 l 1
 812 931 l 1x18
 1226 947 l 1
 1209 857 l 1x28
 799 871 l 1
 687 338 l 1x58
 1102 352 l 1
 1083 262 l 1x88
 673 278 l 1
 568 -286 l 1x48
EndSplineSet
EndChar

StartChar: periodcentered
Encoding: 183 183 111
Width: 498
VWidth: 2982
Flags: W
HStem: 662 169<347.42 475.247>
VStem: 325 170<682.638 809.041>
LayerCount: 2
Fore
SplineSet
325 728 m 0
 325 781 378 831 427 831 c 0
 468 831 495 799 495 761 c 0
 495 703 436 662 391 662 c 0
 354 662 325 692 325 728 c 0
EndSplineSet
EndChar

StartChar: paragraph
Encoding: 182 182 112
Width: 1260
VWidth: 2982
Flags: W
HStem: 1403 90<1155 1305>
DStem2: 714 -248 803 -248 0.207912 0.978148<18.5041 711.354> 953 -248 1043 -248 0.207912 0.978148<18.7121 1688.11>
LayerCount: 2
Fore
SplineSet
318 869 m 0
 318 1144 579 1493 1063 1493 c 2
 1412 1493 l 1
 1043 -248 l 1
 953 -248 l 1
 1305 1403 l 1
 1155 1403 l 1
 803 -248 l 1
 714 -248 l 1
 861 448 l 1
 842 448 l 2
 483 448 318 645 318 869 c 0
EndSplineSet
EndChar

StartChar: bullet
Encoding: 8226 8226 113
Width: 989
VWidth: 2982
Flags: W
HStem: 239 716<522.724 721.41>
VStem: 262 721<498.988 695.496>
LayerCount: 2
Fore
SplineSet
262 521 m 0
 262 752 481 955 698 955 c 0
 867 955 983 835 983 673 c 0
 983 444 763 239 546 239 c 0
 378 239 262 361 262 521 c 0
EndSplineSet
EndChar

StartChar: quotesinglbase
Encoding: 8218 8218 114
Width: 523
VWidth: 2982
Flags: W
HStem: -260 431
VStem: 201 224<-26.0552 136.522>
LayerCount: 2
Fore
SplineSet
201 47 m 0
 201 116 271 171 325 171 c 0
 374 171 425 137 425 67 c 0
 425 0 374 -148 205 -260 c 1
 130 -260 l 1
 215 -201 291 -101 307 -32 c 1
 299 -32 291 -34 282 -34 c 0
 235 -34 201 2 201 47 c 0
EndSplineSet
EndChar

StartChar: quotedblbase
Encoding: 8222 8222 115
Width: 737
VWidth: 2982
Flags: W
HStem: -15 203<174.836 250 443.652 519>
VStem: 143 226<-1.22581 154.5> 412 226<-1.22581 155.549>
LayerCount: 2
Fore
SplineSet
412 67 m 0
 412 139 483 188 540 188 c 0
 587 188 638 154 638 85 c 0
 638 20 591 -126 419 -242 c 1
 342 -242 l 1
 427 -184 504 -83 519 -13 c 1
 513 -13 504 -15 497 -15 c 0
 448 -15 412 20 412 67 c 0
143 67 m 0
 143 139 215 188 271 188 c 0
 318 188 369 154 369 85 c 0
 369 20 322 -126 150 -242 c 1
 74 -242 l 1
 158 -184 235 -83 250 -13 c 1
 244 -13 235 -15 228 -15 c 0
 179 -15 143 20 143 67 c 0
EndSplineSet
EndChar

StartChar: quotedblright
Encoding: 8221 8221 116
Width: 737
VWidth: 2982
Flags: W
HStem: 1305 201<454.836 530 723.652 799>
VStem: 423 228<1317.04 1471.88> 692 228<1317.04 1473.41>
LayerCount: 2
Fore
SplineSet
692 1386 m 0
 692 1455 763 1506 820 1506 c 0
 869 1506 920 1476 920 1403 c 0
 920 1339 867 1191 698 1077 c 1
 622 1077 l 1
 707 1135 786 1238 799 1307 c 1
 792 1305 784 1305 777 1305 c 0
 728 1305 692 1341 692 1386 c 0
423 1386 m 0
 423 1455 495 1506 551 1506 c 0
 600 1506 651 1476 651 1403 c 0
 651 1339 598 1191 430 1077 c 1
 354 1077 l 1
 438 1135 517 1238 530 1307 c 1
 524 1305 515 1305 508 1305 c 0
 459 1305 423 1341 423 1386 c 0
EndSplineSet
EndChar

StartChar: guillemotright
Encoding: 187 187 117
Width: 874
VWidth: 2982
Flags: W
DStem2: 154 150 265 150 0.681078 0.73221<75.5997 488.93> 416 867 307 867 0.452176 -0.891929<0 352.307> 481 150 593 150 0.682173 0.731191<76.4033 488.93> 745 867 636 867 0.452176 -0.891929<0 351.403>
LayerCount: 2
Fore
SplineSet
307 867 m 1
 416 867 l 1
 598 508 l 1
 265 150 l 1
 154 150 l 1
 487 508 l 1
 307 867 l 1
636 867 m 1
 745 867 l 1
 927 508 l 1
 593 150 l 1
 481 150 l 1
 814 508 l 1
 636 867 l 1
EndSplineSet
EndChar

StartChar: ellipsis
Encoding: 8230 8230 118
Width: 1765
VWidth: 2982
Flags: W
HStem: -15 167<234.177 367.823 833.471 967.823 1430.72 1560.38>
VStem: 215 172<6.04936 131.986> 814 173<6.04936 130.842> 1410 170<5.47309 130.842>
LayerCount: 2
Fore
SplineSet
215 54 m 0
 215 111 273 152 318 152 c 0
 359 152 387 124 387 85 c 0
 387 27 329 -15 284 -15 c 0
 244 -15 215 15 215 54 c 0
1410 51 m 0
 1410 109 1468 152 1513 152 c 0
 1553 152 1580 124 1580 85 c 0
 1580 27 1523 -15 1478 -15 c 0
 1439 -15 1410 13 1410 51 c 0
814 54 m 0
 814 111 873 152 918 152 c 0
 959 152 987 124 987 85 c 0
 987 27 929 -15 884 -15 c 0
 844 -15 814 15 814 54 c 0
EndSplineSet
EndChar

StartChar: perthousand
Encoding: 8240 8240 119
Width: 2213
VWidth: 2982
Flags: W
HStem: -17 91<1003.81 1255.15 1750.55 1998.32> 474 92<1069.55 1322.44 1813.81 2069.54> 916 94<462.792 716.322> 1408 94<528.31 779.74>
VStem: 322 92<1057 1296.33> 827 93<1121 1362.34> 864 92<122.144 360.724> 1370 92<187.154 426.687> 1610 91<122.153 361.659> 2116 91<186.763 426.935>
DStem2: 148 -9 258 -9 0.677707 0.735332<74.5478 2030.38>
LayerCount: 2
Fore
SplineSet
864 214 m 0xfbc0
 864 391 1033 566 1224 566 c 0
 1364 566 1462 467 1462 335 c 0
 1462 151 1282 -17 1100 -17 c 0
 959 -17 864 82 864 214 c 0xfbc0
1205 474 m 0
 1072 474 956 354 956 233 c 0
 956 142 1022 74 1120 74 c 0
 1255 74 1370 197 1370 317 c 0
 1370 407 1304 474 1205 474 c 0
1610 213 m 0
 1610 398 1790 567 1973 567 c 0
 2112 567 2207 467 2207 335 c 0
 2207 150 2030 -17 1848 -17 c 0
 1707 -17 1610 81 1610 213 c 0
1953 475 m 0
 1814 475 1701 351 1701 233 c 0
 1701 143 1768 75 1868 75 c 0
 1990 75 2116 185 2116 316 c 0
 2116 407 2050 475 1953 475 c 0
322 1148 m 0
 322 1335 503 1502 684 1502 c 0
 824 1502 920 1402 920 1270 c 0xfdc0
 920 1085 743 916 560 916 c 0
 419 916 322 1016 322 1148 c 0
664 1408 m 0
 537 1408 414 1295 414 1168 c 0
 414 1078 480 1010 580 1010 c 0
 711 1010 827 1129 827 1250 c 0
 827 1340 762 1408 664 1408 c 0
1524 1484 m 1
 1633 1484 l 1
 258 -9 l 1
 148 -9 l 1
 1524 1484 l 1
EndSplineSet
EndChar

StartChar: questiondown
Encoding: 191 191 120
Width: 1036
VWidth: 2982
Flags: W
HStem: -493 90<262.25 586.495> 861 169<684.616 812.088>
VStem: 90 89<-320.755 -43.7298> 665 170<882.966 1009.5> 801 90<-211.96 -116>
DStem2: 396.816 -493 485.816 -493 0.207912 0.978148<894.401 1226.62>
LayerCount: 2
Fore
SplineSet
835 965 m 0xf0
 835 912 781 861 732 861 c 0
 692 861 665 893 665 931 c 0
 665 989 724 1030 767 1030 c 0
 806 1030 835 1000 835 965 c 0xf0
651 707 m 1
 741 707 l 1
 709 557 l 1
 636 208 231 87 188 -116 c 1
 184 -141 179 -164 179 -186 c 0
 179 -318 273 -403 412 -403 c 0
 604 -403 773 -252 801 -116 c 1
 891 -116 l 1xe8
 850 -314 626 -493 393 -493 c 0
 208 -493 90 -374 90 -203 c 0
 90 148 549 215 620 557 c 2
 651 707 l 1
EndSplineSet
EndChar

StartChar: grave
Encoding: 96 96 121
Width: 425
VWidth: 2982
Flags: W
HStem: 1229 294<477 508>
VStem: 396 148
LayerCount: 2
Fore
SplineSet
544 1229 m 1
 477 1229 l 1
 396 1523 l 1
 508 1523 l 1
 544 1229 l 1
EndSplineSet
EndChar

StartChar: acute
Encoding: 180 180 122
Width: 630
VWidth: 2982
Flags: W
HStem: 1194 357
VStem: 457 470
LayerCount: 2
Fore
SplineSet
759 1551 m 1
 927 1551 l 1
 564 1194 l 1
 457 1194 l 1
 759 1551 l 1
EndSplineSet
EndChar

StartChar: circumflex
Encoding: 710 710 123
Width: 690
VWidth: 2982
Flags: W
HStem: 1461 267
VStem: 383 548
DStem2: 383 1461 506 1461 0.744784 0.667306<91.6084 340.911> 745 1728 692 1627 0.571605 -0.820529<52.5784 256.236>
LayerCount: 2
Fore
SplineSet
681 1728 m 1
 745 1728 l 1
 931 1461 l 1
 810 1461 l 1
 692 1627 l 1
 506 1461 l 1
 383 1461 l 1
 681 1728 l 1
EndSplineSet
EndChar

StartChar: tilde
Encoding: 732 732 124
Width: 648
VWidth: 2982
Flags: W
HStem: 1305 92<662.961 820.828> 1414 88<433.032 592.492>
VStem: 354 58<1323 1381.62> 839 56<1428.25 1489>
LayerCount: 2
Fore
SplineSet
839 1489 m 1
 895 1489 l 1
 889 1457 878 1421 867 1397 c 0
 824 1305 761 1305 737 1305 c 0
 681 1305 626 1343 598 1367 c 1
 557 1399 524 1414 502 1414 c 0
 477 1414 432 1399 412 1323 c 1
 354 1323 l 1
 359 1350 363 1372 378 1406 c 1
 416 1478 472 1502 519 1502 c 0
 581 1502 638 1459 662 1442 c 0
 703 1412 737 1397 756 1397 c 0
 777 1397 824 1417 839 1489 c 1
EndSplineSet
EndChar

StartChar: macron
Encoding: 175 175 125
Width: 856
VWidth: 2982
Flags: W
HStem: 1209 89<399 994>
VStem: 378 636
LayerCount: 2
Fore
SplineSet
1014 1298 m 1
 994 1209 l 1
 378 1209 l 1
 399 1298 l 1
 1014 1298 l 1
EndSplineSet
EndChar

StartChar: dotaccent
Encoding: 729 729 126
Width: 570
VWidth: 2982
Flags: W
HStem: 1238 168<500.625 633.275>
VStem: 481 173<1258.55 1385.61>
LayerCount: 2
Fore
SplineSet
481 1307 m 0
 481 1365 540 1406 585 1406 c 0
 624 1406 654 1377 654 1339 c 0
 654 1280 596 1238 551 1238 c 0
 510 1238 481 1269 481 1307 c 0
EndSplineSet
EndChar

StartChar: dieresis
Encoding: 168 168 127
Width: 767
VWidth: 2982
Flags: W
HStem: 1209 168<415.755 546.823 774.033 905.823>
VStem: 393 173<1229.39 1352.75> 752 173<1229.39 1354.35>
LayerCount: 2
Fore
SplineSet
393 1276 m 0
 393 1323 446 1377 500 1377 c 0
 540 1377 566 1345 566 1307 c 0
 566 1249 508 1209 463 1209 c 0
 423 1209 393 1238 393 1276 c 0
752 1276 m 0
 752 1323 803 1377 857 1377 c 0
 897 1377 925 1345 925 1307 c 0
 925 1249 867 1209 822 1209 c 0
 781 1209 752 1238 752 1276 c 0
EndSplineSet
EndChar

StartChar: ring
Encoding: 730 730 128
Width: 570
VWidth: 2982
Flags: W
HStem: 1121 90<458.425 646.354> 1461 90<495.242 683.02>
VStem: 352 92<1227.44 1410.87> 698 92<1261.05 1445.91>
LayerCount: 2
Fore
SplineSet
352 1292 m 0
 352 1433 485 1551 615 1551 c 0
 720 1551 790 1480 790 1382 c 0
 790 1256 671 1121 526 1121 c 0
 421 1121 352 1196 352 1292 c 0
598 1461 m 0
 519 1461 444 1390 444 1309 c 0
 444 1254 483 1211 544 1211 c 0
 613 1211 698 1276 698 1361 c 0
 698 1419 658 1461 598 1461 c 0
EndSplineSet
EndChar

StartChar: cedilla
Encoding: 184 184 129
Width: 624
VWidth: 2982
Flags: W
HStem: -401 89<104.24 330.13> -20 20G<300.146 401>
VStem: 342 94<-295.44 -185.866>
LayerCount: 2
Fore
SplineSet
436 -203 m 0
 436 -305 349 -401 213 -401 c 0
 164 -401 111 -385 69 -352 c 1
 132 -278 l 1
 164 -302 199 -312 233 -312 c 0
 307 -312 342 -265 342 -235 c 0
 342 -199 297 -181 250 -173 c 1
 186 -164 l 1
 316 0 l 1
 401 0 l 1
 327 -96 l 1
 419 -111 436 -164 436 -203 c 0
EndSplineSet
EndChar

StartChar: hungarumlaut
Encoding: 733 733 130
Width: 1017
VWidth: 2982
Flags: W
HStem: 1194 357
LayerCount: 2
Fore
SplineSet
759 1551 m 1
 927 1551 l 1
 564 1194 l 1
 457 1194 l 1
 759 1551 l 1
1149 1551 m 1
 1314 1551 l 1
 951 1194 l 1
 844 1194 l 1
 1149 1551 l 1
EndSplineSet
EndChar

StartChar: ogonek
Encoding: 731 731 131
Width: 603
VWidth: 2982
Flags: W
HStem: -391 75<198.112 361.911> -20 20G<229.5 359>
VStem: 90 96<-306.432 -137.273>
LayerCount: 2
Fore
SplineSet
359 0 m 1
 226 -111 186 -192 186 -242 c 0
 186 -286 226 -316 275 -316 c 0
 299 -316 329 -307 356 -289 c 1
 389 -342 l 1
 336 -376 282 -391 233 -391 c 0
 150 -391 90 -340 90 -262 c 0
 90 -156 197 -56 262 0 c 1
 359 0 l 1
EndSplineSet
EndChar

StartChar: caron
Encoding: 711 711 132
Width: 690
VWidth: 2982
Flags: W
HStem: 1461 267
VStem: 438 549
DStem2: 562 1728 438 1728 0.571605 -0.820529<0 200.624> 679 1565 690 1461 0.743668 0.66855<0 248.783>
LayerCount: 2
Fore
SplineSet
690 1461 m 1
 624 1461 l 1
 438 1728 l 1
 562 1728 l 1
 679 1565 l 1
 867 1728 l 1
 987 1728 l 1
 690 1461 l 1
EndSplineSet
EndChar

StartChar: emdash
Encoding: 8212 8212 133
Width: 1125
VWidth: 2982
Flags: W
HStem: 446 125<121 1222>
LayerCount: 2
Fore
SplineSet
1249 571 m 1
 1222 446 l 1
 94 446 l 1
 121 571 l 1
 1249 571 l 1
EndSplineSet
EndChar

StartChar: AE
Encoding: 198 198 134
Width: 1542
VWidth: 2982
Flags: W
HStem: 0 90<1066 1506> 463 90<479 985> 822 90<1088 1598> 1403 90<1012 1014 1104 1782>
VStem: 974 92<90 463> 989 99<553 822 912 1040.42> 1014 90<963.064 1403>
DStem2: 36 0 132 0 0.531172 0.847264<50.9925 596.784 703.846 1707.14>
LayerCount: 2
Fore
SplineSet
1617 912 m 1xf4
 1598 822 l 1
 1088 822 l 1xf4
 1066 90 l 1
 1527 90 l 1
 1506 0 l 1
 974 0 l 1xf8
 985 463 l 1
 421 463 l 1
 132 0 l 1
 36 0 l 1
 972 1493 l 1
 1800 1493 l 1
 1782 1403 l 1
 1104 1403 l 1xf2
 1088 912 l 1
 1617 912 l 1xf4
479 553 m 1
 989 553 l 1xf4
 1014 1403 l 1xf2
 1012 1403 l 1
 479 553 l 1
EndSplineSet
EndChar

StartChar: ordfeminine
Encoding: 170 170 135
Width: 872
VWidth: 2982
Flags: W
HStem: 620 78<416.768 658.879> 1032 62<500.597 852.195> 1290 73<559.996 800.766>
VStem: 299 79<736.81 937.363> 803 86<638 794.284> 873 82<1057.74 1225.05>
DStem2: 776.407 620 859.427 620 0.207912 0.978148<211.208 391.839>
LayerCount: 2
Fore
SplineSet
656 1032 m 0xf0
 432 1032 378 906 378 824 c 0
 378 741 446 698 532 698 c 0
 683 698 818 853 844 938 c 1
 857 1000 l 1
 803 1019 730 1032 656 1032 c 0xf0
299 806 m 0
 299 922 378 1094 660 1094 c 0
 737 1094 812 1081 869 1057 c 1
 871 1072 873 1088 873 1102 c 0
 873 1220 795 1290 681 1290 c 0
 602 1290 521 1243 459 1164 c 1
 406 1200 l 1
 481 1296 591 1363 703 1363 c 0
 850 1363 955 1271 955 1117 c 0xf4
 955 1090 953 1061 947 1032 c 2
 902 822 l 1
 900 806 889 732 889 665 c 2
 889 638 l 1
 803 620 l 1
 803 645 l 2xf8
 803 685 808 739 818 797 c 1
 748 707 640 620 517 620 c 0
 387 620 299 692 299 806 c 0
EndSplineSet
EndChar

StartChar: Lslash
Encoding: 321 321 136
Width: 1080
VWidth: 2982
Flags: W
HStem: 0 90<250 1012> 994 20G<768.16 790.966> 1473 20G<456.779 551>
DStem2: 90 485 62 367 0.802032 0.597282<0 142.063 367.592 791.069> 143 0 230.87 0 0.207912 0.978148<110.28 519.146 741.449 1526.49>
LayerCount: 2
Fore
SplineSet
1012 0 m 1
 143 0 l 1
 250 508 l 1
 62 367 l 1
 90 485 l 1
 278 626 l 1
 461 1493 l 1
 551 1493 l 1
 383 707 l 1
 795 1014 l 1
 771 895 l 1
 359 589 l 1
 250 90 l 1
 1030 90 l 1
 1012 0 l 1
EndSplineSet
EndChar

StartChar: Oslash
Encoding: 216 216 137
Width: 1756
VWidth: 2982
Flags: W
HStem: -15 89<670.407 1132.62> 1417 89<942.455 1411.35>
VStem: 265 91<387.408 841.716> 1724 87<658.403 1102.97>
DStem2: 291 -64 356 -114 0.655944 0.75481<4.89588 260.802 364.351 1841.47 1940.71 2212.21>
LayerCount: 2
Fore
SplineSet
1811 906 m 0
 1811 432 1356 -15 875 -15 c 0
 741 -15 622 20 526 83 c 1
 356 -114 l 1
 291 -64 l 1
 461 132 l 1
 338 239 265 399 265 581 c 0
 265 1061 718 1506 1200 1506 c 0
 1343 1506 1466 1468 1567 1399 c 1
 1743 1605 l 1
 1809 1558 l 1
 1627 1350 l 1
 1741 1241 1811 1085 1811 906 c 0
895 74 m 0
 1309 74 1724 457 1724 884 c 0
 1724 1041 1664 1179 1563 1273 c 1
 591 158 l 1
 675 105 779 74 895 74 c 0
1182 1417 m 0
 763 1417 356 1030 356 607 c 0
 356 444 421 302 528 205 c 1
 1500 1325 l 1
 1412 1386 1305 1417 1182 1417 c 0
EndSplineSet
EndChar

StartChar: OE
Encoding: 338 338 138
Width: 1920
VWidth: 2982
Flags: W
HStem: -15 89<673.47 1014.24> 0 90<1102 1862> 822 90<1273 1976> 1417 89<948.697 1292.31 1379 2158>
VStem: 265 91<384.582 840.891>
DStem2: 991.169 -15 1079.68 -15 0.207912 0.978148<125.748 874.187 965.339 1454.87>
LayerCount: 2
Fore
SplineSet
265 585 m 0xb8
 265 1061 718 1506 1200 1506 c 0
 1251 1506 1301 1502 1348 1493 c 1
 2176 1493 l 1
 2158 1403 l 1
 1379 1403 l 1
 1273 912 l 1
 1997 912 l 1
 1976 822 l 1
 1258 822 l 1
 1102 90 l 1
 1880 90 l 1
 1862 0 l 1
 1030 0 l 1x78
 980 -9 929 -15 878 -15 c 0
 513 -15 265 242 265 585 c 0xb8
1182 1417 m 0
 759 1417 356 1027 356 602 c 0
 356 302 575 74 895 74 c 0xb8
 936 74 974 79 1012 83 c 1
 1294 1408 l 1
 1258 1414 1220 1417 1182 1417 c 0
EndSplineSet
EndChar

StartChar: ordmasculine
Encoding: 186 186 139
Width: 923
VWidth: 2982
Flags: W
HStem: 618 87<480.932 755.221> 1211 87<574.595 846.139>
VStem: 318 92<773.833 1053.45> 922 92<867.11 1140.37>
LayerCount: 2
Fore
SplineSet
318 886 m 0
 318 1108 530 1298 739 1298 c 0
 902 1298 1014 1182 1014 1027 c 0
 1014 824 818 618 593 618 c 0
 430 618 318 732 318 886 c 0
720 1211 m 0
 566 1211 410 1068 410 902 c 0
 410 788 493 705 613 705 c 0
 761 705 922 844 922 1010 c 0
 922 1126 839 1211 720 1211 c 0
EndSplineSet
EndChar

StartChar: ae
Encoding: 230 230 140
Width: 1859
VWidth: 2982
Flags: W
HStem: -15 94<286.639 617.044 1126.64 1459.58> 508 85<506.661 914 1030 1768> 942 90<535.886 841.528 1305.24 1624.09>
VStem: 150 92<124.328 345.715> 900 89<297.096 508> 1768 90<594.085 786.578>
LayerCount: 2
Fore
SplineSet
1847 508 m 1
 1000 508 l 1
 994 472 989 438 989 406 c 0
 989 215 1110 79 1285 79 c 0
 1417 79 1549 154 1643 278 c 1
 1713 233 l 1
 1600 87 1433 -15 1265 -15 c 0
 1085 -15 961 96 914 258 c 1
 788 109 602 -17 416 -17 c 0
 224 -17 150 96 150 205 c 0
 150 226 152 244 156 262 c 0
 226 589 685 593 931 593 c 1
 938 624 940 654 940 683 c 0
 940 855 828 942 696 942 c 0
 604 942 497 895 408 797 c 1
 346 844 l 1
 461 974 596 1032 714 1032 c 0
 867 1032 998 938 1023 759 c 1
 1139 920 1314 1030 1491 1030 c 0
 1713 1030 1858 855 1858 628 c 0
 1858 604 1858 577 1854 553 c 2
 1847 508 l 1
436 72 m 0
 591 72 784 195 900 342 c 1
 900 369 l 2
 900 412 904 457 914 508 c 1
 696 504 297 502 246 262 c 0
 244 250 242 239 242 228 c 0
 242 152 295 72 436 72 c 0
1030 593 m 1
 1768 593 l 1
 1768 609 l 2
 1768 801 1645 940 1471 940 c 0
 1296 940 1108 795 1030 593 c 1
EndSplineSet
EndChar

StartChar: lslash
Encoding: 322 322 141
Width: 373
VWidth: 2982
Flags: W
HStem: 0 21G<143 237.278> 1473 20G<456.779 551>
VStem: 116 435
DStem2: 141 526 250 508 0.798727 0.601694<0 76.2308 302.198 379.83> 143 0 233 0 0.207912 0.978148<18.7121 519.146 741.449 1526.49>
LayerCount: 2
Fore
SplineSet
233 0 m 1
 143 0 l 1
 250 508 l 1
 116 406 l 1
 141 526 l 1
 278 626 l 1
 461 1493 l 1
 551 1493 l 1
 383 707 l 1
 517 808 l 1
 493 690 l 1
 359 589 l 1
 233 0 l 1
EndSplineSet
EndChar

StartChar: oslash
Encoding: 248 248 142
Width: 1284
VWidth: 2982
Flags: W
HStem: -15 87<514.79 847.669> 938 92<645.092 1001.16>
VStem: 220 87<242.18 601.048> 1194 89<408.729 768.186>
DStem2: 286 -69 359 -109 0.592969 0.805225<11.0777 163.003 269.077 1207.03 1312.08 1484.06>
LayerCount: 2
Fore
SplineSet
220 396 m 0
 220 718 521 1030 859 1030 c 0
 936 1030 1003 1014 1063 985 c 1
 1166 1126 l 1
 1243 1081 l 1
 1137 938 l 1
 1229 865 1283 750 1283 618 c 0
 1283 299 983 -15 643 -15 c 0
 573 -15 510 -2 455 20 c 1
 359 -109 l 1
 286 -69 l 1
 383 62 l 1
 280 137 220 255 220 396 c 0
660 72 m 0
 918 72 1194 309 1194 596 c 0
 1194 703 1151 795 1077 857 c 1
 513 98 l 1
 557 81 607 72 660 72 c 0
842 938 m 0
 573 938 307 687 307 414 c 0
 307 297 356 199 440 137 c 1
 1003 902 l 1
 955 925 900 938 842 938 c 0
EndSplineSet
EndChar

StartChar: oe
Encoding: 339 339 143
Width: 2125
VWidth: 2982
Flags: W
HStem: -15 89<483.606 853.512 1411.68 1721.22> 504 89<1298 2037> 940 90<649.395 1024.04 1566.61 1898.98>
VStem: 220 92<242.125 605.092> 1196 64<433.336 504> 2037 88<594.085 786.578>
LayerCount: 2
Fore
SplineSet
844 940 m 0
 581 940 312 696 312 416 c 0
 312 222 453 74 660 74 c 0
 927 74 1196 320 1196 596 c 0
 1196 792 1053 940 844 940 c 0
220 396 m 0
 220 726 530 1030 859 1030 c 0
 1070 1030 1224 904 1271 726 c 1
 1382 904 1567 1030 1755 1030 c 0
 1978 1030 2125 855 2125 628 c 0
 2125 604 2125 577 2119 553 c 1
 2113 504 l 1
 1271 504 l 1
 1265 468 1260 434 1260 403 c 0
 1260 213 1384 79 1555 79 c 0
 1688 79 1820 154 1916 278 c 1
 1984 233 l 1
 1871 87 1704 -15 1538 -15 c 0
 1345 -15 1211 109 1177 289 c 1
 1057 109 848 -15 638 -15 c 0
 389 -15 220 158 220 396 c 0
1298 593 m 1
 2037 593 l 1
 2037 609 l 2
 2037 801 1916 942 1741 942 c 0
 1565 942 1377 795 1298 593 c 1
EndSplineSet
EndChar

StartChar: germandbls
Encoding: 223 223 144
Width: 1132
VWidth: 2982
Flags: W
HStem: -17 71<483.173 768.502> 0 21G<168 262.22> 1578 88<734.558 1019.29>
VStem: 759 94<743.523 926.018> 1003 94<263.354 529.067> 1106 94<1204.02 1494.46>
DStem2: 164.387 -17 254.387 -17 0.207912 0.978148<36.0918 1476.97>
LayerCount: 2
Fore
SplineSet
759 824 m 0xbc
 759 1047 1106 1079 1106 1356 c 0
 1106 1497 1003 1578 882 1578 c 0
 739 1578 568 1461 504 1166 c 1
 258 0 l 1
 168 0 l 1x7c
 414 1164 l 2
 487 1506 712 1666 906 1666 c 0
 1066 1666 1200 1558 1200 1372 c 0
 1200 1045 853 989 853 839 c 0
 853 712 1097 628 1097 425 c 0
 1097 246 920 -17 628 -17 c 0
 528 -17 430 17 361 92 c 1
 427 132 l 1
 479 79 549 54 622 54 c 0
 850 54 1003 269 1003 410 c 0
 1003 585 759 651 759 824 c 0xbc
EndSplineSet
EndChar

StartChar: logicalnot
Encoding: 172 172 145
Width: 1393
VWidth: 2982
Flags: W
HStem: 822 90<316 1359>
DStem2: 1260 359 1350 359 0.207912 0.978148<18.7121 473.466>
LayerCount: 2
Fore
SplineSet
1468 912 m 1
 1350 359 l 1
 1260 359 l 1
 1359 822 l 1
 297 822 l 1
 316 912 l 1
 1468 912 l 1
EndSplineSet
EndChar

StartChar: trademark
Encoding: 8482 8482 146
Width: 1713
VWidth: 2982
Flags: W
HStem: 1414 79<461 656 734 944> 1491 20G<1159.77 1173.26>
VStem: 1654 76<745 1262> 1666 80<824.144 1262>
DStem2: 511.387 728 587.387 728 0.207912 0.978148<33.1811 701.076> 855 750 936 750 0.380383 0.924829<30.811 587.359> 1168 1511 1147 1265 0.254179 -0.967157<232.583 625.545> 1327 906 1285 728 0.572545 0.819873<0 485.968>
LayerCount: 2
Fore
SplineSet
963 1493 m 1x80
 944 1414 l 1
 734 1414 l 1
 591 745 l 1
 515 745 l 1
 656 1414 l 1
 444 1414 l 1
 461 1493 l 1
 963 1493 l 1x80
1666 1262 m 1x50
 1285 728 l 1
 1147 1265 l 1
 936 750 l 1
 855 750 l 1
 1168 1511 l 1
 1327 906 l 1
 1746 1506 l 1x50
 1730 745 l 1
 1654 745 l 1x60
 1666 1262 l 1x50
EndSplineSet
EndChar

StartChar: Eth
Encoding: 208 208 147
Width: 1346
VWidth: 2982
Flags: W
HStem: 0 90<275 737.425> 701 89<177 316 425 848> 1403 90<555 993.27>
VStem: 1312 91<650.962 1101.59>
DStem2: 168 0 255.87 0 0.207912 0.978148<110.28 716.452 826.17 1452.8>
LayerCount: 2
Fore
SplineSet
487 90 m 2
 906 90 1312 461 1312 884 c 0
 1312 1186 1090 1403 767 1403 c 2
 555 1403 l 1
 425 790 l 1
 867 790 l 1
 848 701 l 1
 406 701 l 1
 275 90 l 1
 487 90 l 2
1403 904 m 0
 1403 440 963 0 468 0 c 2
 168 0 l 1
 316 701 l 1
 158 701 l 1
 177 790 l 1
 336 790 l 1
 483 1493 l 1
 786 1493 l 2
 1151 1493 1403 1245 1403 904 c 0
EndSplineSet
EndChar

StartChar: onehalf
Encoding: 189 189 148
Width: 1848
VWidth: 2982
Flags: W
HStem: 0 90<1191 1690> 920 90<1478.67 1714.98> 1473 20G<680.322 709.768 1628.57 1760>
VStem: 1262 90<683 786.1> 1768 99<608.833 864.434>
DStem2: 271 0 383 0 0.677973 0.735087<75.933 2030.38> 304.871 0 394.871 0 0.207912 0.978148<533.972 1366.86> 421 1332 455 1256 0.859814 0.510607<0 147.002>
LayerCount: 2
Fore
SplineSet
1867 759 m 0
 1867 389 1305 349 1191 90 c 1
 1708 90 l 1
 1690 0 l 1
 1072 0 l 1
 1081 43 l 1
 1160 410 1768 425 1768 737 c 0
 1768 844 1701 920 1607 920 c 0
 1497 920 1379 818 1352 683 c 1
 1262 683 l 1
 1298 859 1461 1010 1630 1010 c 0
 1771 1010 1867 900 1867 759 c 0
1647 1493 m 1
 1760 1493 l 1
 383 0 l 1
 271 0 l 1
 1647 1493 l 1
412 504 m 1
 589 1337 l 1
 455 1256 l 1
 421 1332 l 1
 714 1506 l 1
 502 504 l 1
 412 504 l 1
EndSplineSet
LCarets2: 2 0 0 
Ligature2: "'frac' Diagonal Fractions in Latin lookup 42" one fraction two
Ligature2: "'frac' Diagonal Fractions in Latin lookup 42" one slash two
EndChar

StartChar: plusminus
Encoding: 177 177 149
Width: 1036
VWidth: 2982
Flags: W
HStem: 0 90<141 916> 701 89<291 624 732 1066>
DStem2: 474.818 0 563.818 0 0.207912 0.978148<375.301 716.698 826.208 1169.56>
LayerCount: 2
Fore
SplineSet
936 90 m 1
 916 0 l 1
 124 0 l 1
 141 90 l 1
 936 90 l 1
638 349 m 1
 549 349 l 1
 624 701 l 1
 271 701 l 1
 291 790 l 1
 643 790 l 1
 718 1144 l 1
 808 1144 l 1
 732 790 l 1
 1083 790 l 1
 1066 701 l 1
 714 701 l 1
 638 349 l 1
EndSplineSet
EndChar

StartChar: Thorn
Encoding: 222 222 150
Width: 1134
VWidth: 2982
Flags: W
HStem: 0 21G<168 262.144> 316 94<348.591 799.43> 1083 88<504.174 926.577> 1473 20G<478.78 573>
VStem: 1088 94<650.039 948.741>
DStem2: 168 0 258 0 0.207912 0.978148<18.7121 361.385 454.677 1124.21 1197.25 1525.87>
LayerCount: 2
Fore
SplineSet
538 410 m 0
 949 410 1088 651 1088 812 c 0
 1088 985 931 1083 681 1083 c 0
 622 1083 555 1077 483 1066 c 1
 346 427 l 1
 414 414 477 410 538 410 c 0
1182 828 m 0
 1182 602 983 316 517 316 c 0
 455 316 391 322 327 333 c 1
 258 0 l 1
 168 0 l 1
 483 1493 l 1
 573 1493 l 1
 502 1153 l 1
 571 1164 636 1171 698 1171 c 0
 1006 1171 1182 1038 1182 828 c 0
EndSplineSet
EndChar

StartChar: onequarter
Encoding: 188 188 151
Width: 1848
VWidth: 2982
Flags: W
HStem: 0 21G<365 492.459 1471 1564.47> 161 91<1139 1506 1612 1706> 1003 20G<1755.58 1770.77> 1473 20G<680.322 709.768 1722.57 1852>
DStem2: 304.871 0 394.871 0 0.207912 0.978148<533.972 1366.86> 365 0 474 0 0.678239 0.734841<73.9281 2030.38> 421 1332 455 1256 0.859814 0.510607<0 147.002> 938 161 1139 252 0.696627 0.717434<205.308 915.312> 1471 0 1560 0 0.207912 0.978148<18.5041 164.759 275.809 778.26>
LayerCount: 2
Fore
SplineSet
1741 1493 m 1
 1852 1493 l 1
 474 0 l 1
 365 0 l 1
 1741 1493 l 1
1525 252 m 1
 1634 761 l 1
 1139 252 l 1
 1525 252 l 1
412 504 m 1
 589 1337 l 1
 455 1256 l 1
 421 1332 l 1
 714 1506 l 1
 502 504 l 1
 412 504 l 1
1506 161 m 1
 938 161 l 1
 1775 1023 l 1
 1612 252 l 1
 1755 252 l 1
 1706 161 l 1
 1596 161 l 1
 1560 0 l 1
 1471 0 l 1
 1506 161 l 1
EndSplineSet
LCarets2: 2 0 0 
Ligature2: "'frac' Diagonal Fractions in Latin lookup 42" one fraction four
Ligature2: "'frac' Diagonal Fractions in Latin lookup 42" one slash four
EndChar

StartChar: divide
Encoding: 247 247 152
Width: 1078
VWidth: 2982
Flags: W
HStem: 385 168<575.033 706.529> 701 89<312 1085> 940 168<691 824.823>
VStem: 553 173<405.526 530.715> 671 173<959.706 1086.43>
LayerCount: 2
Fore
SplineSet
553 453 m 0xf0
 553 500 604 553 658 553 c 0
 698 553 726 521 726 483 c 0
 726 425 667 385 622 385 c 0
 581 385 553 414 553 453 c 0xf0
671 1008 m 0xe8
 671 1066 730 1108 775 1108 c 0
 814 1108 844 1077 844 1038 c 0
 844 980 786 940 741 940 c 0
 701 940 671 969 671 1008 c 0xe8
1106 790 m 1
 1085 701 l 1
 293 701 l 1
 312 790 l 1
 1106 790 l 1
EndSplineSet
EndChar

StartChar: brokenbar
Encoding: 166 166 153
Width: 422
VWidth: 2982
Flags: W
HStem: -508 21G<58 152.273>
VStem: 58 521
DStem2: 58 -508 148 -508 0.207912 0.978148<18.7121 823.378 1270.44 2076.64>
LayerCount: 2
Fore
SplineSet
410 716 m 1
 320 716 l 1
 491 1523 l 1
 579 1523 l 1
 410 716 l 1
148 -508 m 1
 58 -508 l 1
 231 297 l 1
 320 297 l 1
 148 -508 l 1
EndSplineSet
EndChar

StartChar: degree
Encoding: 176 176 154
Width: 749
VWidth: 2982
Flags: W
HStem: 1211 94<553.692 771.432> 1627 92<601.28 822.586>
VStem: 427 97<1334.25 1549.68> 853 94<1384.7 1596.09>
LayerCount: 2
Fore
SplineSet
427 1410 m 0
 427 1565 575 1719 741 1719 c 0
 865 1719 947 1634 947 1520 c 0
 947 1374 808 1211 634 1211 c 0
 510 1211 427 1296 427 1410 c 0
720 1627 m 0
 626 1627 524 1540 524 1433 c 0
 524 1359 575 1305 654 1305 c 0
 754 1305 853 1397 853 1502 c 0
 853 1574 799 1627 720 1627 c 0
EndSplineSet
EndChar

StartChar: thorn
Encoding: 254 254 155
Width: 1232
VWidth: 2982
Flags: W
HStem: -508 21G<58 152.272> -15 94<495.365 826.371> 942 88<662.117 993.589> 1473 20G<478.752 573>
VStem: 1139 94<408.575 793.304>
DStem2: 58 -508 148 -508 0.207912 0.978148<18.7121 741.657 958.535 1273.54 1370.45 2045.64>
LayerCount: 2
Fore
SplineSet
1233 624 m 0
 1233 312 953 -15 636 -15 c 0
 477 -15 359 72 299 199 c 1
 148 -508 l 1
 58 -508 l 1
 483 1493 l 1
 573 1493 l 1
 430 814 l 1
 544 942 698 1030 857 1030 c 0
 1085 1030 1233 853 1233 624 c 0
651 79 m 0
 895 79 1139 333 1139 611 c 0
 1139 803 1016 942 837 942 c 0
 640 942 434 771 372 544 c 1
 359 477 l 2
 354 453 354 430 354 408 c 0
 354 218 474 79 651 79 c 0
EndSplineSet
EndChar

StartChar: threequarters
Encoding: 190 190 156
Width: 1848
VWidth: 2982
Flags: W
HStem: 0 21G<483 611.446 1531 1625.39> 164 88<1200 1567 1672 1766> 485 88<419.117 681.723> 1007 20G<1815.6 1830.79> 1027 90<658 761.821> 1417 89<602.175 823.928>
VStem: 269 92<629.04 799> 438 90<1260 1343.87> 822 86<714.188 965.92> 853 85<1185.52 1386.16>
DStem2: 483 0 593 0 0.677973 0.735087<74.5771 2031.05> 998 164 1200 252 0.696211 0.717837<203.804 911.719> 1531 0 1621 0 0.207912 0.978148<18.7121 167.901 275.809 777.844>
LayerCount: 2
Fore
SplineSet
908 861 m 0xef80
 908 673 720 485 521 485 c 0
 372 485 269 591 269 732 c 0
 269 754 271 777 275 799 c 1
 365 799 l 1
 361 784 361 765 361 750 c 0
 361 649 432 573 542 573 c 0
 696 573 822 716 822 846 c 0xef80
 822 949 748 1027 638 1027 c 1
 658 1117 l 1
 756 1117 853 1188 853 1292 c 0
 853 1363 801 1417 724 1417 c 0
 634 1417 546 1345 528 1260 c 1
 438 1260 l 1
 468 1397 600 1506 739 1506 c 0
 857 1506 938 1424 938 1312 c 0xef40
 938 1215 882 1124 797 1072 c 1
 867 1027 908 951 908 861 c 0xef80
1860 1493 m 1
 1970 1493 l 1
 593 0 l 1
 483 0 l 1
 1860 1493 l 1
1585 252 m 1
 1692 761 l 1
 1200 252 l 1
 1585 252 l 1
1567 164 m 1
 998 164 l 1
 1835 1027 l 1
 1672 252 l 1
 1815 252 l 1
 1766 164 l 1
 1657 164 l 1
 1621 0 l 1
 1531 0 l 1
 1567 164 l 1
EndSplineSet
LCarets2: 2 0 0 
Ligature2: "'frac' Diagonal Fractions in Latin lookup 42" three fraction four
Ligature2: "'frac' Diagonal Fractions in Latin lookup 42" three slash four
EndChar

StartChar: registered
Encoding: 174 174 157
Width: 1758
VWidth: 2982
Flags: W
HStem: -15 89<673.47 1125.93> 692 89<891 1061> 1090 89<955 1260.85> 1417 89<941.713 1404.79>
VStem: 265 91<384.582 840.891> 1288 89<853.662 1063.01> 1724 91<649.325 1105.75>
DStem2: 633.069 -15 722.069 -15 0.207912 0.978148<354.854 741.435 832.232 1147.79> 1160 705 1061 692 0.3155 -0.948926<0 379.233>
LayerCount: 2
Fore
SplineSet
1377 985 m 0
 1377 875 1292 743 1160 705 c 1
 1290 314 l 1
 1186 314 l 1
 1061 692 l 1
 873 692 l 1
 792 314 l 1
 703 314 l 1
 886 1179 l 1
 1188 1179 l 2
 1301 1179 1377 1094 1377 985 c 0
1182 1417 m 0
 759 1417 356 1027 356 602 c 0
 356 302 575 74 895 74 c 0
 1312 74 1724 457 1724 886 c 0
 1724 1191 1504 1417 1182 1417 c 0
265 585 m 0
 265 1061 718 1506 1200 1506 c 0
 1565 1506 1815 1249 1815 904 c 0
 1815 440 1370 -15 878 -15 c 0
 513 -15 265 242 265 585 c 0
1106 781 m 2
 1202 781 1288 878 1288 967 c 0
 1288 1038 1238 1090 1168 1090 c 2
 955 1090 l 1
 891 781 l 1
 1106 781 l 2
EndSplineSet
EndChar

StartChar: eth
Encoding: 240 240 158
Width: 1282
VWidth: 2982
Flags: W
HStem: -15 87<479.069 843.197> 938 92<645.684 1020.18>
VStem: 220 85<249.169 595.632> 1188 100<428.541 768.924>
DStem2: 528 1194 557 1117 0.883116 0.469155<0 361.884 491.895 857.367>
LayerCount: 2
Fore
SplineSet
1288 683 m 0
 1288 212 905 -15 638 -15 c 0
 389 -15 220 158 220 396 c 0
 220 726 530 1030 859 1030 c 0
 980 1030 1081 991 1155 922 c 1
 1108 1068 1023 1200 914 1305 c 1
 557 1117 l 1
 528 1194 l 1
 848 1363 l 1
 763 1433 667 1486 571 1520 c 1
 615 1605 l 1
 730 1567 842 1502 940 1414 c 1
 1296 1602 l 1
 1323 1525 l 1
 1000 1354 l 1
 1168 1186 1288 951 1288 683 c 0
654 72 m 0
 916 72 1188 312 1188 598 c 0
 1188 804 1034 938 837 938 c 0
 573 938 305 690 305 412 c 0
 305 220 446 72 654 72 c 0
EndSplineSet
EndChar

StartChar: multiply
Encoding: 215 215 159
Width: 1066
VWidth: 2982
Flags: W
DStem2: 161 349 286 349 0.76756 0.640977<95.945 613.471 713.549 1240.29> 444 1144 316 1144 0.61865 -0.785666<0 429.498 511.621 932.693>
LayerCount: 2
Fore
SplineSet
1070 349 m 1
 942 349 l 1
 683 681 l 1
 286 349 l 1
 161 349 l 1
 634 743 l 1
 316 1144 l 1
 444 1144 l 1
 709 806 l 1
 1113 1144 l 1
 1238 1144 l 1
 759 743 l 1
 1070 349 l 1
EndSplineSet
EndChar

StartChar: copyright
Encoding: 169 169 160
Width: 1758
VWidth: 2982
Flags: W
HStem: -15 89<673.47 1125.93> 312 89<831.127 1116.7> 1085 90<955.768 1242.75> 1417 89<941.713 1404.79>
VStem: 265 91<384.582 840.891> 640 92<501.635 839.435> 1325 87<961.75 1002.08> 1724 91<649.325 1105.75>
LayerCount: 2
Fore
SplineSet
265 585 m 0
 265 1061 718 1506 1200 1506 c 0
 1565 1506 1815 1249 1815 904 c 0
 1815 440 1370 -15 878 -15 c 0
 513 -15 265 242 265 585 c 0
1182 1417 m 0
 759 1417 356 1027 356 602 c 0
 356 302 575 74 895 74 c 0
 1312 74 1724 457 1724 886 c 0
 1724 1191 1504 1417 1182 1417 c 0
1108 1085 m 0
 922 1085 732 884 732 658 c 0
 732 508 828 401 963 401 c 0
 1068 401 1173 463 1247 562 c 1
 1316 517 l 1
 1224 393 1083 312 942 312 c 0
 759 312 640 453 640 640 c 0
 640 916 878 1175 1128 1175 c 0
 1267 1175 1372 1092 1412 969 c 1
 1325 925 l 1
 1292 1023 1213 1085 1108 1085 c 0
EndSplineSet
EndChar

StartChar: Aacute
Encoding: 193 193 161
Width: 1322
VWidth: 2982
Flags: W
HStem: 0 21G<36 144.484 1190.03 1290> 463 90<481 1083> 1491 20G<970.465 987.064>
DStem2: 36 0 132 0 0.531057 0.847336<50.9815 596.774 704.897 1561.91> 983 1511 938 1278 0.199109 -0.979977<219.375 958.729 1050.71 1522.76>
LayerCount: 2
Fore
SplineSet
1200 1878 m 1
 1370 1878 l 1
 1012 1612 l 1
 918 1612 l 1
 1200 1878 l 1
481 553 m 1
 1083 553 l 1
 938 1278 l 1
 481 553 l 1
1102 463 m 1
 421 463 l 1
 132 0 l 1
 36 0 l 1
 983 1511 l 1
 1290 0 l 1
 1194 0 l 1
 1102 463 l 1
EndSplineSet
EndChar

StartChar: Acircumflex
Encoding: 194 194 162
Width: 1322
VWidth: 2982
Flags: W
HStem: 0 21G<36 144.484 1190.03 1290> 463 90<481 1083> 1491 20G<970.465 987.064>
DStem2: 36 0 132 0 0.531057 0.847336<50.9815 596.774 704.897 1561.91> 734 1612 855 1612 0.746027 0.665916<90.2692 339.067> 983 1511 938 1278 0.199109 -0.979977<219.375 958.729 1050.71 1522.76> 1097 1878 1043 1775 0.573049 -0.819521<53.4661 254.095>
LayerCount: 2
Fore
SplineSet
1032 1878 m 1
 1097 1878 l 1
 1283 1612 l 1
 1160 1612 l 1
 1043 1775 l 1
 855 1612 l 1
 734 1612 l 1
 1032 1878 l 1
481 553 m 1
 1083 553 l 1
 938 1278 l 1
 481 553 l 1
1102 463 m 1
 421 463 l 1
 132 0 l 1
 36 0 l 1
 983 1511 l 1
 1290 0 l 1
 1194 0 l 1
 1102 463 l 1
EndSplineSet
EndChar

StartChar: Adieresis
Encoding: 196 196 163
Width: 1322
VWidth: 2982
Flags: W
HStem: 0 21G<36 144.484 1190.03 1290> 463 90<481 1083> 1491 20G<970.465 987.064> 1612 167<780.616 911.295 1139 1270.81>
VStem: 761 172<1633.56 1757.7> 1119 173<1633.56 1758.53>
DStem2: 36 0 132 0 0.531057 0.847336<50.9815 596.774 704.897 1561.91> 983 1511 938 1278 0.199109 -0.979977<219.375 958.729 1050.71 1522.76>
LayerCount: 2
Fore
SplineSet
761 1679 m 0
 761 1737 820 1779 865 1779 c 0
 904 1779 933 1748 933 1711 c 0
 933 1668 886 1612 828 1612 c 0
 788 1612 761 1641 761 1679 c 0
1119 1679 m 0
 1119 1737 1177 1779 1222 1779 c 0
 1262 1779 1292 1748 1292 1711 c 0
 1292 1668 1245 1612 1186 1612 c 0
 1147 1612 1119 1641 1119 1679 c 0
481 553 m 1
 1083 553 l 1
 938 1278 l 1
 481 553 l 1
1102 463 m 1
 421 463 l 1
 132 0 l 1
 36 0 l 1
 983 1511 l 1
 1290 0 l 1
 1194 0 l 1
 1102 463 l 1
EndSplineSet
EndChar

StartChar: Agrave
Encoding: 192 192 164
Width: 1322
VWidth: 2982
Flags: W
HStem: 0 21G<36 144.484 1190.03 1290> 463 90<481 1083> 1491 20G<970.465 987.064>
DStem2: 36 0 132 0 0.531057 0.847336<50.9815 596.774 704.897 1561.91> 983 1511 938 1278 0.199109 -0.979977<219.375 958.729 1050.71 1522.76>
LayerCount: 2
Fore
SplineSet
763 1878 m 1
 933 1878 l 1
 1102 1612 l 1
 1008 1612 l 1
 763 1878 l 1
481 553 m 1
 1083 553 l 1
 938 1278 l 1
 481 553 l 1
1102 463 m 1
 421 463 l 1
 132 0 l 1
 36 0 l 1
 983 1511 l 1
 1290 0 l 1
 1194 0 l 1
 1102 463 l 1
EndSplineSet
EndChar

StartChar: Aring
Encoding: 197 197 165
Width: 1322
VWidth: 2982
Flags: W
HStem: 0 21G<36 144.484 1190.03 1290> 463 90<481 1083> 1491 20G<970.465 987.064> 1596 89<934.895 1121.08> 1937 88<968.711 1154.73>
VStem: 826 92<1700.67 1886.25> 1173 92<1737.86 1920.09>
DStem2: 36 0 132 0 0.531057 0.847336<50.9815 596.774 704.897 1561.91> 983 1511 938 1278 0.199109 -0.979977<219.375 958.729 1050.71 1522.76>
LayerCount: 2
Fore
SplineSet
826 1764 m 0
 826 1905 955 2025 1090 2025 c 0
 1194 2025 1265 1954 1265 1856 c 0
 1265 1726 1139 1596 998 1596 c 0
 895 1596 826 1668 826 1764 c 0
1072 1937 m 0
 994 1937 918 1865 918 1784 c 0
 918 1728 959 1685 1019 1685 c 0
 1104 1685 1173 1768 1173 1835 c 0
 1173 1894 1130 1937 1072 1937 c 0
481 553 m 1
 1083 553 l 1
 938 1278 l 1
 481 553 l 1
1102 463 m 1
 421 463 l 1
 132 0 l 1
 36 0 l 1
 983 1511 l 1
 1290 0 l 1
 1194 0 l 1
 1102 463 l 1
EndSplineSet
EndChar

StartChar: Atilde
Encoding: 195 195 166
Width: 1322
VWidth: 2982
Flags: W
HStem: 0 21G<36 144.484 1190.03 1290> 463 90<481 1083> 1491 20G<970.465 987.064> 1596 89<1060.66 1208.15> 1704 89<821.452 983.74>
VStem: 745 56<1612 1669.88> 1229 61<1717.26 1779>
DStem2: 36 0 132 0 0.531057 0.847336<50.9815 596.774 704.897 1561.91> 983 1511 938 1278 0.199109 -0.979977<219.375 958.729 1050.71 1522.76>
LayerCount: 2
Fore
SplineSet
801 1612 m 1
 745 1612 l 1
 763 1685 799 1793 914 1793 c 0
 1021 1793 1081 1685 1147 1685 c 0
 1157 1685 1211 1699 1229 1779 c 1
 1290 1779 l 1
 1260 1645 1200 1596 1124 1596 c 0
 1030 1596 963 1704 891 1704 c 0
 867 1704 822 1690 801 1612 c 1
481 553 m 1
 1083 553 l 1
 938 1278 l 1
 481 553 l 1
1102 463 m 1
 421 463 l 1
 132 0 l 1
 36 0 l 1
 983 1511 l 1
 1290 0 l 1
 1194 0 l 1
 1102 463 l 1
EndSplineSet
EndChar

StartChar: Ccedilla
Encoding: 199 199 167
Width: 1613
VWidth: 2982
Flags: W
HStem: -396 89<631.735 861.187> -11 85<920 1130.1> 1417 94<941.135 1408.57>
VStem: 265 91<383.107 841.452> 871 94<-292.055 -184.591>
LayerCount: 2
Fore
SplineSet
1182 1417 m 0
 759 1417 356 1027 356 602 c 0
 356 302 575 74 895 74 c 0
 1117 74 1335 181 1491 346 c 1
 1555 295 l 1
 1386 119 1155 0 920 -11 c 1
 855 -92 l 1
 947 -109 965 -158 965 -199 c 0
 965 -322 850 -396 743 -396 c 0
 692 -396 640 -383 598 -349 c 1
 660 -275 l 1
 692 -297 728 -307 761 -307 c 0
 820 -307 871 -278 871 -233 c 0
 871 -197 826 -179 779 -171 c 2
 714 -161 l 1
 837 -9 l 1
 495 9 265 258 265 589 c 0
 265 1057 712 1511 1202 1511 c 0
 1453 1511 1647 1388 1743 1200 c 1
 1661 1147 l 1
 1574 1309 1403 1417 1182 1417 c 0
EndSplineSet
EndChar

StartChar: Eacute
Encoding: 201 201 168
Width: 1094
VWidth: 2982
Flags: W
HStem: 0 90<275 1032> 822 90<450 1149> 1403 90<555 1335>
DStem2: 168 0 255.87 0 0.207912 0.978148<110.28 858.926 950.702 1452.8>
LayerCount: 2
Fore
SplineSet
1220 1878 m 1
 861 1612 l 1
 771 1612 l 1
 1050 1878 l 1
 1220 1878 l 1
1166 912 m 1
 1149 822 l 1
 432 822 l 1
 275 90 l 1
 1053 90 l 1
 1032 0 l 1
 168 0 l 1
 483 1493 l 1
 1352 1493 l 1
 1335 1403 l 1
 555 1403 l 1
 450 912 l 1
 1166 912 l 1
EndSplineSet
EndChar

StartChar: Ecircumflex
Encoding: 202 202 169
Width: 1094
VWidth: 2982
Flags: W
HStem: 0 90<275 1032> 822 90<450 1149> 1403 90<555 1335>
DStem2: 168 0 255.87 0 0.207912 0.978148<110.28 858.926 950.702 1452.8> 628 1612 752 1612 0.747134 0.664674<92.6446 339.953> 996 1878 938 1775 0.573049 -0.819521<51.1739 254.095>
LayerCount: 2
Fore
SplineSet
1059 1612 m 1
 938 1775 l 1
 752 1612 l 1
 628 1612 l 1
 927 1878 l 1
 996 1878 l 1
 1182 1612 l 1
 1059 1612 l 1
1166 912 m 1
 1149 822 l 1
 432 822 l 1
 275 90 l 1
 1053 90 l 1
 1032 0 l 1
 168 0 l 1
 483 1493 l 1
 1352 1493 l 1
 1335 1403 l 1
 555 1403 l 1
 450 912 l 1
 1166 912 l 1
EndSplineSet
EndChar

StartChar: Edieresis
Encoding: 203 203 170
Width: 1094
VWidth: 2982
Flags: W
HStem: 0 90<275 1032> 822 90<450 1149> 1403 90<555 1335> 1612 167<678.033 809.118 1036.33 1166.77>
VStem: 656 172<1631.78 1756.5> 1014 172<1632.39 1756.5>
DStem2: 168 0 255.87 0 0.207912 0.978148<110.28 858.926 950.702 1452.8>
LayerCount: 2
Fore
SplineSet
656 1679 m 0
 656 1726 707 1779 761 1779 c 0
 801 1779 828 1748 828 1711 c 0
 828 1652 771 1612 726 1612 c 0
 685 1612 656 1641 656 1679 c 0
1014 1679 m 0
 1014 1726 1066 1779 1119 1779 c 0
 1160 1779 1186 1748 1186 1711 c 0
 1186 1652 1128 1612 1083 1612 c 0
 1043 1612 1014 1641 1014 1679 c 0
1166 912 m 1
 1149 822 l 1
 432 822 l 1
 275 90 l 1
 1053 90 l 1
 1032 0 l 1
 168 0 l 1
 483 1493 l 1
 1352 1493 l 1
 1335 1403 l 1
 555 1403 l 1
 450 912 l 1
 1166 912 l 1
EndSplineSet
EndChar

StartChar: Egrave
Encoding: 200 200 171
Width: 1094
VWidth: 2982
Flags: W
HStem: 0 90<275 1032> 822 90<450 1149> 1403 90<555 1335>
DStem2: 168 0 255.87 0 0.207912 0.978148<110.28 858.926 950.702 1452.8>
LayerCount: 2
Fore
SplineSet
701 1878 m 1
 871 1878 l 1
 1038 1612 l 1
 944 1612 l 1
 701 1878 l 1
1166 912 m 1
 1149 822 l 1
 432 822 l 1
 275 90 l 1
 1053 90 l 1
 1032 0 l 1
 168 0 l 1
 483 1493 l 1
 1352 1493 l 1
 1335 1403 l 1
 555 1403 l 1
 450 912 l 1
 1166 912 l 1
EndSplineSet
EndChar

StartChar: Iacute
Encoding: 205 205 172
Width: 422
VWidth: 2982
Flags: W
HStem: 0 21G<168 262.22> 1473 20G<478.78 573>
DStem2: 168 0 258 0 0.207912 0.978148<18.7121 1525.87>
LayerCount: 2
Fore
SplineSet
914 1878 m 1
 555 1612 l 1
 461 1612 l 1
 743 1878 l 1
 914 1878 l 1
258 0 m 1
 168 0 l 1
 483 1493 l 1
 573 1493 l 1
 258 0 l 1
EndSplineSet
EndChar

StartChar: Icircumflex
Encoding: 206 206 173
Width: 422
VWidth: 2982
Flags: W
HStem: 0 21G<168 262.22> 1473 20G<478.78 573>
VStem: 168 660
DStem2: 168 0 258 0 0.207912 0.978148<18.7121 1525.87> 278 1612 399 1612 0.744913 0.667161<90.1345 338.925> 645 1878 587 1775 0.566792 -0.823861<51.9838 254.288>
LayerCount: 2
Fore
SplineSet
707 1612 m 1
 587 1775 l 1
 399 1612 l 1
 278 1612 l 1
 575 1878 l 1
 645 1878 l 1
 828 1612 l 1
 707 1612 l 1
258 0 m 1
 168 0 l 1
 483 1493 l 1
 573 1493 l 1
 258 0 l 1
EndSplineSet
EndChar

StartChar: Idieresis
Encoding: 207 207 174
Width: 422
VWidth: 2982
Flags: W
HStem: 0 21G<168 262.22> 1473 20G<478.78 573> 1612 167<324.23 456.143 682.14 814.143>
VStem: 305 172<1633.56 1758.53> 662 173<1633.56 1758.53>
DStem2: 168 0 258 0 0.207912 0.978148<18.7121 1525.87>
LayerCount: 2
Fore
SplineSet
305 1679 m 0
 305 1737 363 1779 408 1779 c 0
 448 1779 477 1748 477 1711 c 0
 477 1668 430 1612 372 1612 c 0
 331 1612 305 1641 305 1679 c 0
662 1679 m 0
 662 1737 720 1779 765 1779 c 0
 806 1779 835 1748 835 1711 c 0
 835 1668 788 1612 730 1612 c 0
 690 1612 662 1641 662 1679 c 0
258 0 m 1
 168 0 l 1
 483 1493 l 1
 573 1493 l 1
 258 0 l 1
EndSplineSet
EndChar

StartChar: Igrave
Encoding: 204 204 175
Width: 422
VWidth: 2982
Flags: W
HStem: 0 21G<168 262.22> 1473 20G<478.78 573>
VStem: 168 479
DStem2: 168 0 258 0 0.207912 0.978148<18.7121 1525.87>
LayerCount: 2
Fore
SplineSet
309 1878 m 1
 479 1878 l 1
 647 1612 l 1
 555 1612 l 1
 309 1878 l 1
258 0 m 5
 168 0 l 5
 483 1493 l 5
 573 1493 l 5
 258 0 l 5
EndSplineSet
EndChar

StartChar: Ntilde
Encoding: 209 209 176
Width: 1678
VWidth: 2982
Flags: W
HStem: 0 21G<168 262.248 1494.05 1513.25> 1491 2G<484.751 503.943 1736.76 1830> 1596 89<1237.27 1387.14> 1704 89<1002.59 1163.52>
VStem: 924 57<1612 1671.08> 1408 60<1717.26 1779>
DStem2: 164.387 -17 254.387 -17 0.207912 0.978148<36.0918 1354.87> 489 1511 532 1290 0.59853 -0.8011<202.78 1634> 1420.45 -17 1509 -17 0.207912 0.978148<223.893 1543.65>
LayerCount: 2
Fore
SplineSet
168 0 m 1
 489 1511 l 1
 1467 202 l 1
 1741 1493 l 1
 1830 1493 l 1
 1509 -17 l 1
 532 1290 l 1
 258 0 l 1
 168 0 l 1
981 1612 m 1
 924 1612 l 1
 944 1685 979 1793 1090 1793 c 0
 1199 1793 1260 1685 1325 1685 c 0
 1336 1685 1391 1699 1408 1779 c 1
 1468 1779 l 1
 1440 1645 1377 1596 1304 1596 c 0
 1208 1596 1141 1704 1069 1704 c 0
 1045 1704 1003 1690 981 1612 c 1
EndSplineSet
EndChar

StartChar: Oacute
Encoding: 211 211 177
Width: 1758
VWidth: 2982
Flags: W
HStem: -15 89<673.47 1125.93> 1417 89<941.713 1404.79>
VStem: 265 91<384.582 840.891> 1724 91<649.325 1105.75>
LayerCount: 2
Fore
SplineSet
1641 1878 m 1
 1283 1612 l 1
 1191 1612 l 1
 1471 1878 l 1
 1641 1878 l 1
265 585 m 0
 265 1061 718 1506 1200 1506 c 0
 1565 1506 1815 1249 1815 904 c 0
 1815 440 1370 -15 878 -15 c 0
 513 -15 265 242 265 585 c 0
1182 1417 m 0
 759 1417 356 1027 356 602 c 0
 356 302 575 74 895 74 c 0
 1312 74 1724 457 1724 886 c 0
 1724 1191 1504 1417 1182 1417 c 0
EndSplineSet
EndChar

StartChar: Ocircumflex
Encoding: 212 212 178
Width: 1758
VWidth: 2982
Flags: W
HStem: -15 89<673.47 1125.93> 1417 89<941.713 1404.79>
VStem: 265 91<384.582 840.891> 1724 91<649.325 1105.75>
DStem2: 949 1612 1070 1612 0.746027 0.665916<90.2692 339.067> 1316 1878 1258 1775 0.568888 -0.822415<51.7132 254.602>
LayerCount: 2
Fore
SplineSet
1379 1612 m 1
 1258 1775 l 1
 1070 1612 l 1
 949 1612 l 1
 1247 1878 l 1
 1316 1878 l 1
 1500 1612 l 1
 1379 1612 l 1
265 585 m 0
 265 1061 718 1506 1200 1506 c 0
 1565 1506 1815 1249 1815 904 c 0
 1815 440 1370 -15 878 -15 c 0
 513 -15 265 242 265 585 c 0
1182 1417 m 0
 759 1417 356 1027 356 602 c 0
 356 302 575 74 895 74 c 0
 1312 74 1724 457 1724 886 c 0
 1724 1191 1504 1417 1182 1417 c 0
EndSplineSet
EndChar

StartChar: Odieresis
Encoding: 214 214 179
Width: 1758
VWidth: 2982
Flags: W
HStem: -15 89<673.47 1125.93> 1417 89<941.713 1404.79> 1612 167<995.616 1127.81 1354.09 1484.54>
VStem: 265 91<384.582 840.891> 976 173<1633.56 1758.53> 1335 171<1633.56 1758.53> 1724 91<649.325 1105.75>
LayerCount: 2
Fore
SplineSet
976 1679 m 0
 976 1737 1034 1779 1079 1779 c 0
 1119 1779 1149 1748 1149 1711 c 0
 1149 1668 1102 1612 1043 1612 c 0
 1003 1612 976 1641 976 1679 c 0
1335 1679 m 0
 1335 1737 1392 1779 1437 1779 c 0
 1478 1779 1506 1748 1506 1711 c 0
 1506 1668 1459 1612 1401 1612 c 0
 1361 1612 1335 1641 1335 1679 c 0
265 585 m 0
 265 1061 718 1506 1200 1506 c 0
 1565 1506 1815 1249 1815 904 c 0
 1815 440 1370 -15 878 -15 c 0
 513 -15 265 242 265 585 c 0
1182 1417 m 0
 759 1417 356 1027 356 602 c 0
 356 302 575 74 895 74 c 0
 1312 74 1724 457 1724 886 c 0
 1724 1191 1504 1417 1182 1417 c 0
EndSplineSet
EndChar

StartChar: Ograve
Encoding: 210 210 180
Width: 1758
VWidth: 2982
Flags: W
HStem: -15 89<673.47 1125.93> 1417 89<941.713 1404.79>
VStem: 265 91<384.582 840.891> 1724 91<649.325 1105.75>
LayerCount: 2
Fore
SplineSet
265 585 m 0
 265 1061 718 1506 1200 1506 c 0
 1565 1506 1815 1249 1815 904 c 0
 1815 440 1370 -15 878 -15 c 0
 513 -15 265 242 265 585 c 0
1182 1417 m 0
 759 1417 356 1027 356 602 c 0
 356 302 575 74 895 74 c 0
 1312 74 1724 457 1724 886 c 0
 1724 1191 1504 1417 1182 1417 c 0
895 1878 m 1
 1066 1878 l 1
 1231 1612 l 1
 1139 1612 l 1
 895 1878 l 1
EndSplineSet
EndChar

StartChar: Otilde
Encoding: 213 213 181
Width: 1758
VWidth: 2982
Flags: W
HStem: -15 89<673.47 1125.93> 1417 89<941.713 1404.79> 1596 89<1284.47 1432.18> 1704 89<1045.02 1207.3>
VStem: 265 91<384.582 840.891> 969 56<1612 1671.08> 1453 60<1717.26 1779> 1724 91<649.325 1105.75>
LayerCount: 2
Fore
SplineSet
1025 1612 m 1
 969 1612 l 1
 987 1685 1023 1793 1137 1793 c 0
 1245 1793 1305 1685 1370 1685 c 0
 1382 1685 1435 1699 1453 1779 c 1
 1513 1779 l 1
 1484 1645 1424 1596 1348 1596 c 0
 1254 1596 1186 1704 1115 1704 c 0
 1090 1704 1045 1690 1025 1612 c 1
265 585 m 0
 265 1061 718 1506 1200 1506 c 0
 1565 1506 1815 1249 1815 904 c 0
 1815 440 1370 -15 878 -15 c 0
 513 -15 265 242 265 585 c 0
1182 1417 m 0
 759 1417 356 1027 356 602 c 0
 356 302 575 74 895 74 c 0
 1312 74 1724 457 1724 886 c 0
 1724 1191 1504 1417 1182 1417 c 0
EndSplineSet
EndChar

StartChar: Scaron
Encoding: 352 352 182
Width: 1076
VWidth: 2982
Flags: W
HStem: -17 92<380.148 744.285> 1200 21G<1076 1147.38> 1417 94<683.283 987.357>
VStem: 159 92<204.674 421> 428 92<1010.09 1257.67> 1015 92<329.02 621.864> 1086 89<1224.33 1316.55>
DStem2: 776 1847 653 1847 0.573879 -0.81894<0 200.876> 892 1683 902 1583 0.749618 0.66187<0 249.475>
LayerCount: 2
Fore
SplineSet
902 1583 m 1xf8
 838 1583 l 1
 653 1847 l 1
 776 1847 l 1
 892 1683 l 1
 1080 1847 l 1
 1201 1847 l 1
 902 1583 l 1xf8
428 1095 m 0
 428 1286 609 1511 859 1511 c 0
 1011 1511 1150 1414 1175 1229 c 1
 1086 1200 l 1xfa
 1066 1350 957 1417 839 1417 c 0
 648 1417 520 1248 520 1116 c 0
 520 843 1107 885 1107 515 c 0
 1107 237 833 -17 530 -17 c 0
 333 -17 159 100 159 370 c 0
 159 387 160 403 161 421 c 1
 253 432 l 1
 252 418 251 403 251 390 c 0
 251 166 391 75 550 75 c 0
 805 75 1015 285 1015 495 c 0xfc
 1015 816 428 766 428 1095 c 0
EndSplineSet
EndChar

StartChar: Uacute
Encoding: 218 218 183
Width: 1393
VWidth: 2982
Flags: W
HStem: -15 89<543.917 902.262> 1473 20G<478.814 573 1452.75 1547>
VStem: 273 92<261.73 696.359>
DStem2: 165.505 -15 254.505 -15 0.207912 0.978148<500.814 1541.06> 1136.5 -15 1226.5 -15 0.207912 0.978148<374.172 1541.68>
LayerCount: 2
Fore
SplineSet
1273 1878 m 1
 1444 1878 l 1
 1085 1612 l 1
 994 1612 l 1
 1273 1878 l 1
483 1493 m 1
 573 1493 l 1
 378 566 l 2
 369 526 365 487 365 453 c 0
 365 231 513 74 716 74 c 0
 955 74 1202 289 1260 566 c 2
 1457 1493 l 1
 1547 1493 l 1
 1350 566 l 2
 1283 248 991 -15 696 -15 c 0
 444 -15 273 177 273 432 c 0
 273 477 280 521 289 566 c 2
 483 1493 l 1
EndSplineSet
EndChar

StartChar: Ucircumflex
Encoding: 219 219 184
Width: 1393
VWidth: 2982
Flags: W
HStem: -15 89<543.917 902.262> 1473 20G<478.814 573 1452.75 1547>
VStem: 273 92<261.73 696.359>
DStem2: 165.505 -15 254.505 -15 0.207912 0.978148<500.814 1541.06> 763 1612 886 1612 0.746027 0.665916<91.7613 339.067> 1130 1878 1072 1775 0.573049 -0.819521<51.1739 252.949> 1136.5 -15 1226.5 -15 0.207912 0.978148<374.172 1541.68>
LayerCount: 2
Fore
SplineSet
1316 1612 m 1
 1191 1612 l 1
 1072 1775 l 1
 886 1612 l 1
 763 1612 l 1
 1061 1878 l 1
 1130 1878 l 1
 1316 1612 l 1
483 1493 m 1
 573 1493 l 1
 378 566 l 2
 369 526 365 487 365 453 c 0
 365 231 513 74 716 74 c 0
 955 74 1202 289 1260 566 c 2
 1457 1493 l 1
 1547 1493 l 1
 1350 566 l 2
 1283 248 991 -15 696 -15 c 0
 444 -15 273 177 273 432 c 0
 273 477 280 521 289 566 c 2
 483 1493 l 1
EndSplineSet
EndChar

StartChar: Udieresis
Encoding: 220 220 185
Width: 1393
VWidth: 2982
Flags: W
HStem: -15 89<543.917 902.262> 1473 20G<478.814 573 1452.75 1547> 1612 167<816.405 943.959 1174.56 1302.28>
VStem: 273 92<261.73 696.359> 795 170<1633.26 1757.76> 1153 170<1632.55 1756.82>
DStem2: 165.505 -15 254.505 -15 0.207912 0.978148<500.814 1541.06> 1136.5 -15 1226.5 -15 0.207912 0.978148<374.172 1541.68>
LayerCount: 2
Fore
SplineSet
795 1677 m 0
 795 1730 848 1779 897 1779 c 0
 936 1779 965 1751 965 1713 c 0
 965 1654 906 1612 861 1612 c 0
 824 1612 795 1641 795 1677 c 0
1153 1677 m 0
 1153 1730 1207 1779 1256 1779 c 0
 1294 1779 1323 1751 1323 1713 c 0
 1323 1654 1265 1612 1220 1612 c 0
 1182 1612 1153 1641 1153 1677 c 0
483 1493 m 1
 573 1493 l 1
 378 566 l 2
 369 526 365 487 365 453 c 0
 365 231 513 74 716 74 c 0
 955 74 1202 289 1260 566 c 2
 1457 1493 l 1
 1547 1493 l 1
 1350 566 l 2
 1283 248 991 -15 696 -15 c 0
 444 -15 273 177 273 432 c 0
 273 477 280 521 289 566 c 2
 483 1493 l 1
EndSplineSet
EndChar

StartChar: Ugrave
Encoding: 217 217 186
Width: 1393
VWidth: 2982
Flags: W
HStem: -15 89<543.917 902.262> 1473 20G<478.814 573 1452.75 1547>
VStem: 273 92<261.73 696.359>
DStem2: 165.505 -15 254.505 -15 0.207912 0.978148<500.814 1541.06> 1136.5 -15 1226.5 -15 0.207912 0.978148<374.172 1541.68>
LayerCount: 2
Fore
SplineSet
752 1878 m 1
 922 1878 l 1
 1088 1612 l 1
 996 1612 l 1
 752 1878 l 1
483 1493 m 1
 573 1493 l 1
 378 566 l 2
 369 526 365 487 365 453 c 0
 365 231 513 74 716 74 c 0
 955 74 1202 289 1260 566 c 2
 1457 1493 l 1
 1547 1493 l 1
 1350 566 l 2
 1283 248 991 -15 696 -15 c 0
 444 -15 273 177 273 432 c 0
 273 477 280 521 289 566 c 2
 483 1493 l 1
EndSplineSet
EndChar

StartChar: Yacute
Encoding: 221 221 187
Width: 1228
VWidth: 2982
Flags: W
HStem: 0 21G<571 664.248> 1473 20G<354 465.404 1389.16 1511>
DStem2: 457 1493 354 1493 0.384306 -0.923206<0 815.691> 571 0 660 0 0.207912 0.978148<18.5041 659.181> 773 741 797 645 0.64408 0.764958<0 982.951>
LayerCount: 2
Fore
SplineSet
1194 1878 m 1
 1363 1878 l 1
 1006 1612 l 1
 914 1612 l 1
 1194 1878 l 1
354 1493 m 1
 457 1493 l 1
 773 741 l 1
 1406 1493 l 1
 1511 1493 l 1
 797 645 l 1
 660 0 l 1
 571 0 l 1
 707 645 l 1
 354 1493 l 1
EndSplineSet
EndChar

StartChar: Ydieresis
Encoding: 376 376 188
Width: 1228
VWidth: 2982
Flags: W
HStem: 0 21G<571 664.248> 1473 20G<354 465.404 1389.16 1511> 1612 167<735.555 863.275 1093.2 1221.96>
VStem: 714 170<1632.55 1757.76> 1072 171<1633.26 1756.82>
DStem2: 457 1493 354 1493 0.384306 -0.923206<0 815.691> 571 0 660 0 0.207912 0.978148<18.5041 659.181> 773 741 797 645 0.64408 0.764958<0 982.951>
LayerCount: 2
Fore
SplineSet
714 1677 m 0
 714 1730 767 1779 818 1779 c 0
 855 1779 884 1751 884 1713 c 0
 884 1654 826 1612 781 1612 c 0
 743 1612 714 1641 714 1677 c 0
1072 1677 m 0
 1072 1730 1126 1779 1175 1779 c 0
 1213 1779 1243 1751 1243 1713 c 0
 1243 1654 1184 1612 1139 1612 c 0
 1102 1612 1072 1641 1072 1677 c 0
354 1493 m 1
 457 1493 l 1
 773 741 l 1
 1406 1493 l 1
 1511 1493 l 1
 797 645 l 1
 660 0 l 1
 571 0 l 1
 707 645 l 1
 354 1493 l 1
EndSplineSet
EndChar

StartChar: Zcaron
Encoding: 381 381 189
Width: 1185
VWidth: 2982
Flags: W
HStem: 0 90<222 1121> 1403 90<453 1262>
DStem2: 36 0 222 90 0.65801 0.753009<190.161 1863.19> 835 1847 712 1847 0.573879 -0.81894<0 200.876> 951 1683 963 1583 0.747409 0.664364<0 249.469>
LayerCount: 2
Fore
SplineSet
963 1583 m 1
 897 1583 l 1
 712 1847 l 1
 835 1847 l 1
 951 1683 l 1
 1139 1847 l 1
 1260 1847 l 1
 963 1583 l 1
453 1493 m 1
 1448 1493 l 1
 222 90 l 1
 1171 90 l 1
 1121 0 l 1
 36 0 l 1
 1262 1403 l 1
 403 1403 l 1
 453 1493 l 1
EndSplineSet
EndChar

StartChar: aacute
Encoding: 225 225 190
Width: 1060
VWidth: 2982
Flags: W
HStem: -17 89<292.78 600.533> 0 21G<823 920> 517 64<558.311 916> 942 90<535.886 836.287>
VStem: 150 92<124.328 342.647> 822 92<0 174.448> 938 92<501.429 832.005>
DStem2: 802.904 -17 892.904 -17 0.207912 0.978148<88.7154 234.766 277.241 545.845 611.149 697.902>
LayerCount: 2
Fore
SplineSet
940 1457 m 1x3e
 1110 1457 l 1
 752 1191 l 1
 658 1191 l 1
 940 1457 l 1x3e
920 0 m 1x7e
 824 0 l 1x7e
 822 9 822 20 822 32 c 0
 822 62 826 96 835 134 c 1
 850 213 l 1
 739 90 575 -17 416 -17 c 0xbe
 224 -17 150 96 150 205 c 0
 150 226 152 244 156 262 c 0
 224 577 649 581 902 581 c 2
 929 581 l 1
 936 613 938 643 938 669 c 0
 938 846 828 942 696 942 c 0
 604 942 497 895 408 797 c 1
 346 844 l 1
 461 974 596 1032 714 1032 c 0
 889 1032 1030 912 1030 694 c 0
 1030 658 1025 622 1019 581 c 1
 925 134 l 2
 918 101 914 72 914 49 c 0
 914 30 916 13 920 0 c 1x7e
436 72 m 0xbe
 600 72 784 205 875 325 c 1
 916 517 l 1
 696 513 297 502 246 262 c 0
 244 250 242 239 242 228 c 0
 242 152 295 72 436 72 c 0xbe
EndSplineSet
EndChar

StartChar: acircumflex
Encoding: 226 226 191
Width: 1060
VWidth: 2982
Flags: W
HStem: -17 89<292.78 600.533> 0 21G<823 920> 517 64<558.311 916> 942 90<535.886 836.287>
VStem: 150 92<124.328 342.647> 822 92<0 174.448> 938 92<501.429 832.005>
DStem2: 504 1191 626 1191 0.744913 0.667161<90.8794 338.181> 802.904 -17 892.904 -17 0.207912 0.978148<88.7154 234.766 277.241 545.845 611.149 697.902> 869 1457 812 1354 0.568888 -0.822415<52.2821 254.033>
LayerCount: 2
Fore
SplineSet
801 1457 m 1x3e
 869 1457 l 1
 1053 1191 l 1
 931 1191 l 1
 812 1354 l 1
 626 1191 l 1
 504 1191 l 1
 801 1457 l 1x3e
920 0 m 1x7e
 824 0 l 1x7e
 822 9 822 20 822 32 c 0
 822 62 826 96 835 134 c 1
 850 213 l 1
 739 90 575 -17 416 -17 c 0xbe
 224 -17 150 96 150 205 c 0
 150 226 152 244 156 262 c 0
 224 577 649 581 902 581 c 2
 929 581 l 1
 936 613 938 643 938 669 c 0
 938 846 828 942 696 942 c 0
 604 942 497 895 408 797 c 1
 346 844 l 1
 461 974 596 1032 714 1032 c 0
 889 1032 1030 912 1030 694 c 0
 1030 658 1025 622 1019 581 c 1
 925 134 l 2
 918 101 914 72 914 49 c 0
 914 30 916 13 920 0 c 1x7e
436 72 m 0xbe
 600 72 784 205 875 325 c 1
 916 517 l 1
 696 513 297 502 246 262 c 0
 244 250 242 239 242 228 c 0
 242 152 295 72 436 72 c 0xbe
EndSplineSet
EndChar

StartChar: adieresis
Encoding: 228 228 192
Width: 1060
VWidth: 2982
Flags: W
HStem: -17 89<292.78 600.533> 0 21G<823 920> 517 64<558.311 916> 942 90<535.886 836.287> 1194 167<553.471 684.967 912.177 1043.6>
VStem: 150 92<124.328 342.647> 534 173<1216.29 1340.61> 822 92<0 174.448> 893 173<1216.29 1340.61> 938 92<501.429 832.005>
DStem2: 802.904 -17 892.904 -17 0.207912 0.978148<88.7154 234.766 277.241 545.845 611.149 697.902>
LayerCount: 2
Fore
SplineSet
534 1262 m 0x3e
 534 1320 593 1361 638 1361 c 0
 679 1361 707 1332 707 1294 c 0
 707 1247 656 1194 602 1194 c 0
 562 1194 534 1224 534 1262 c 0x3e
893 1262 m 0x3e80
 893 1320 951 1361 996 1361 c 0
 1036 1361 1066 1332 1066 1294 c 0
 1066 1247 1014 1194 961 1194 c 0
 920 1194 893 1224 893 1262 c 0x3e80
920 0 m 1x7f40
 824 0 l 1x7f40
 822 9 822 20 822 32 c 0
 822 62 826 96 835 134 c 1
 850 213 l 1
 739 90 575 -17 416 -17 c 0xbf40
 224 -17 150 96 150 205 c 0
 150 226 152 244 156 262 c 0
 224 577 649 581 902 581 c 2
 929 581 l 1
 936 613 938 643 938 669 c 0
 938 846 828 942 696 942 c 0
 604 942 497 895 408 797 c 1
 346 844 l 1
 461 974 596 1032 714 1032 c 0
 889 1032 1030 912 1030 694 c 0
 1030 658 1025 622 1019 581 c 1
 925 134 l 2
 918 101 914 72 914 49 c 0
 914 30 916 13 920 0 c 1x7f40
436 72 m 0xbe
 600 72 784 205 875 325 c 1
 916 517 l 1
 696 513 297 502 246 262 c 0
 244 250 242 239 242 228 c 0
 242 152 295 72 436 72 c 0xbe
EndSplineSet
EndChar

StartChar: agrave
Encoding: 224 224 193
Width: 1060
VWidth: 2982
Flags: W
HStem: -17 89<292.78 600.533> 0 21G<823 920> 517 64<558.311 916> 942 90<535.886 836.287>
VStem: 150 92<124.328 342.647> 822 92<0 174.448> 938 92<501.429 832.005>
DStem2: 802.904 -17 892.904 -17 0.207912 0.978148<88.7154 234.766 277.241 545.845 611.149 697.902>
LayerCount: 2
Fore
SplineSet
920 0 m 1x7e
 824 0 l 1x7e
 822 9 822 20 822 32 c 0
 822 62 826 96 835 134 c 1
 850 213 l 1
 739 90 575 -17 416 -17 c 0xbe
 224 -17 150 96 150 205 c 0
 150 226 152 244 156 262 c 0
 224 577 649 581 902 581 c 2
 929 581 l 1
 936 613 938 643 938 669 c 0
 938 846 828 942 696 942 c 0
 604 942 497 895 408 797 c 1
 346 844 l 1
 461 974 596 1032 714 1032 c 0
 889 1032 1030 912 1030 694 c 0
 1030 658 1025 622 1019 581 c 1
 925 134 l 2
 918 101 914 72 914 49 c 0
 914 30 916 13 920 0 c 1x7e
436 72 m 0xbe
 600 72 784 205 875 325 c 1
 916 517 l 1
 696 513 297 502 246 262 c 0
 244 250 242 239 242 228 c 0
 242 152 295 72 436 72 c 0xbe
510 1457 m 1
 681 1457 l 1
 846 1191 l 1
 754 1191 l 1
 510 1457 l 1
EndSplineSet
EndChar

StartChar: aring
Encoding: 229 229 194
Width: 1060
VWidth: 2982
Flags: W
HStem: -17 89<292.78 600.533> 0 21G<823 920> 517 64<558.311 916> 942 90<535.886 836.287> 1179 90<708.797 896.959> 1520 90<745.275 932.264>
VStem: 150 92<124.328 342.647> 602 92<1284.82 1466.93> 822 92<0 174.448> 938 92<501.429 832.005 1310.24 1510.55>
DStem2: 802.904 -17 892.904 -17 0.207912 0.978148<88.7154 234.766 277.241 545.845 611.149 697.902>
LayerCount: 2
Fore
SplineSet
602 1350 m 0x3fc0
 602 1476 720 1610 867 1610 c 0
 972 1610 1041 1536 1041 1439 c 0
 1041 1298 906 1179 777 1179 c 0
 671 1179 602 1251 602 1350 c 0x3fc0
848 1520 m 0
 763 1520 694 1439 694 1367 c 0
 694 1312 734 1269 795 1269 c 0
 880 1269 949 1348 949 1421 c 0
 949 1478 908 1520 848 1520 c 0
920 0 m 1x7fc0
 824 0 l 1x7fc0
 822 9 822 20 822 32 c 0
 822 62 826 96 835 134 c 1
 850 213 l 1
 739 90 575 -17 416 -17 c 0xbfc0
 224 -17 150 96 150 205 c 0
 150 226 152 244 156 262 c 0
 224 577 649 581 902 581 c 2
 929 581 l 1
 936 613 938 643 938 669 c 0
 938 846 828 942 696 942 c 0
 604 942 497 895 408 797 c 1
 346 844 l 1
 461 974 596 1032 714 1032 c 0
 889 1032 1030 912 1030 694 c 0
 1030 658 1025 622 1019 581 c 1
 925 134 l 2
 918 101 914 72 914 49 c 0
 914 30 916 13 920 0 c 1x7fc0
436 72 m 0xbfc0
 600 72 784 205 875 325 c 1
 916 517 l 1
 696 513 297 502 246 262 c 0
 244 250 242 239 242 228 c 0
 242 152 295 72 436 72 c 0xbfc0
EndSplineSet
EndChar

StartChar: atilde
Encoding: 227 227 195
Width: 1060
VWidth: 2982
Flags: W
HStem: -17 89<292.78 600.533> 0 21G<823 920> 517 64<558.311 916> 942 90<535.886 836.287> 1175 94<829.259 988.967> 1194 21G<519 588.5> 1288 84<601.006 753.242>
VStem: 150 92<124.328 342.647> 519 60<1194 1254.19> 822 92<0 174.448> 938 92<501.429 832.005> 1003 58<1292.43 1352>
DStem2: 802.904 -17 892.904 -17 0.207912 0.978148<88.7154 234.766 277.241 545.845 611.149 697.902>
LayerCount: 2
Fore
SplineSet
685 1372 m 0x37d0
 792 1372 857 1269 922 1269 c 0
 944 1269 989 1280 1003 1352 c 1
 1061 1352 l 1
 1025 1171 922 1175 904 1175 c 0x3bd0
 799 1175 739 1288 667 1288 c 0
 643 1288 598 1271 579 1194 c 1
 519 1194 l 1
 526 1220 553 1372 685 1372 c 0x37d0
920 0 m 1x73e0
 824 0 l 1x73e0
 822 9 822 20 822 32 c 0
 822 62 826 96 835 134 c 1
 850 213 l 1
 739 90 575 -17 416 -17 c 0xb3e0
 224 -17 150 96 150 205 c 0
 150 226 152 244 156 262 c 0
 224 577 649 581 902 581 c 2
 929 581 l 1
 936 613 938 643 938 669 c 0
 938 846 828 942 696 942 c 0
 604 942 497 895 408 797 c 1
 346 844 l 1
 461 974 596 1032 714 1032 c 0
 889 1032 1030 912 1030 694 c 0
 1030 658 1025 622 1019 581 c 1
 925 134 l 2
 918 101 914 72 914 49 c 0
 914 30 916 13 920 0 c 1x73e0
436 72 m 0xb3c0
 600 72 784 205 875 325 c 1
 916 517 l 1
 696 513 297 502 246 262 c 0
 244 250 242 239 242 228 c 0
 242 152 295 72 436 72 c 0xb3c0
EndSplineSet
EndChar

StartChar: ccedilla
Encoding: 231 231 196
Width: 1004
VWidth: 2982
Flags: W
HStem: -396 89<289.212 517.268> 940 92<562.489 888.439>
VStem: 166 89<223.841 605.461> 528 94<-290.625 -184.591>
LayerCount: 2
Fore
SplineSet
734 940 m 0
 500 940 255 685 255 406 c 0
 255 215 376 74 551 74 c 0
 681 74 814 152 908 275 c 1
 985 235 l 1
 882 101 732 7 577 -9 c 1
 513 -92 l 1
 604 -109 622 -158 622 -199 c 0
 622 -318 517 -396 399 -396 c 0
 349 -396 297 -383 255 -349 c 1
 318 -275 l 1
 349 -297 385 -307 419 -307 c 0
 493 -307 528 -262 528 -233 c 0
 528 -197 483 -179 436 -171 c 2
 372 -161 l 1
 493 -9 l 1
 293 11 166 177 166 391 c 0
 166 726 461 1032 754 1032 c 0
 920 1032 1045 931 1094 786 c 1
 1008 741 l 1
 965 861 867 940 734 940 c 0
EndSplineSet
EndChar

StartChar: eacute
Encoding: 233 233 197
Width: 1177
VWidth: 2982
Flags: W
HStem: -15 94<445.746 776.325> 504 89<346 1083> 940 90<616.149 940.586> 1194 21G<781 902.019>
VStem: 218 87<228.408 497.983> 1083 92<594.085 786.578>
LayerCount: 2
Fore
SplineSet
1063 1459 m 1
 1233 1459 l 1
 875 1194 l 1
 781 1194 l 1
 1063 1459 l 1
346 593 m 1
 1083 593 l 1
 1083 609 l 2
 1083 801 963 940 788 940 c 0
 611 940 425 795 346 593 c 1
218 385 m 0
 218 720 515 1030 806 1030 c 0
 1030 1030 1175 855 1175 628 c 0
 1175 604 1175 577 1171 553 c 2
 1164 504 l 1
 316 504 l 1
 309 468 305 434 305 403 c 0
 305 213 427 79 602 79 c 0
 732 79 867 154 961 278 c 1
 1027 233 l 1
 918 87 750 -15 581 -15 c 0
 361 -15 218 158 218 385 c 0
EndSplineSet
EndChar

StartChar: ecircumflex
Encoding: 234 234 198
Width: 1177
VWidth: 2982
Flags: W
HStem: -15 94<445.746 776.325> 504 89<346 1083> 940 90<616.149 940.586> 1194 21G<564 709.545 976.697 1113>
VStem: 218 87<228.408 497.983> 1083 92<594.085 786.578>
DStem2: 564 1194 687 1194 0.746161 0.665766<91.7777 340.415> 929 1459 873 1359 0.570338 -0.82141<50.2021 253.035>
LayerCount: 2
Fore
SplineSet
861 1459 m 1
 929 1459 l 1
 1113 1194 l 1
 991 1194 l 1
 873 1359 l 1
 687 1194 l 1
 564 1194 l 1
 861 1459 l 1
346 593 m 1
 1083 593 l 1
 1083 609 l 2
 1083 801 963 940 788 940 c 0
 611 940 425 795 346 593 c 1
218 385 m 0
 218 720 515 1030 806 1030 c 0
 1030 1030 1175 855 1175 628 c 0
 1175 604 1175 577 1171 553 c 2
 1164 504 l 1
 316 504 l 1
 309 468 305 434 305 403 c 0
 305 213 427 79 602 79 c 0
 732 79 867 154 961 278 c 1
 1027 233 l 1
 918 87 750 -15 581 -15 c 0
 361 -15 218 158 218 385 c 0
EndSplineSet
EndChar

StartChar: edieresis
Encoding: 235 235 199
Width: 1177
VWidth: 2982
Flags: W
HStem: -15 94<445.746 776.325> 504 89<346 1083> 940 90<616.149 940.586> 1194 167<598.471 729.967 957.177 1088.03>
VStem: 218 87<228.408 497.983> 579 173<1216.29 1340.61> 938 172<1216.29 1340.61> 1083 92<594.085 786.578>
LayerCount: 2
Fore
SplineSet
579 1262 m 0xfc
 579 1320 638 1361 683 1361 c 0
 724 1361 752 1332 752 1294 c 0
 752 1247 701 1194 647 1194 c 0
 607 1194 579 1224 579 1262 c 0xfc
938 1262 m 0xfe
 938 1320 996 1361 1041 1361 c 0
 1081 1361 1110 1332 1110 1294 c 0
 1110 1247 1059 1194 1006 1194 c 0
 965 1194 938 1224 938 1262 c 0xfe
346 593 m 1
 1083 593 l 1
 1083 609 l 2xfd
 1083 801 963 940 788 940 c 0
 611 940 425 795 346 593 c 1
218 385 m 0
 218 720 515 1030 806 1030 c 0
 1030 1030 1175 855 1175 628 c 0
 1175 604 1175 577 1171 553 c 2
 1164 504 l 1
 316 504 l 1
 309 468 305 434 305 403 c 0
 305 213 427 79 602 79 c 0
 732 79 867 154 961 278 c 1
 1027 233 l 1
 918 87 750 -15 581 -15 c 0
 361 -15 218 158 218 385 c 0
EndSplineSet
EndChar

StartChar: egrave
Encoding: 232 232 200
Width: 1177
VWidth: 2982
Flags: W
HStem: -15 94<445.746 776.325> 504 89<346 1083> 940 90<616.149 940.586> 1194 21G<760.509 871>
VStem: 218 87<228.408 497.983> 1083 92<594.085 786.578>
LayerCount: 2
Fore
SplineSet
534 1459 m 1
 705 1459 l 1
 871 1194 l 1
 779 1194 l 1
 534 1459 l 1
346 593 m 1
 1083 593 l 1
 1083 609 l 2
 1083 801 963 940 788 940 c 0
 611 940 425 795 346 593 c 1
218 385 m 0
 218 720 515 1030 806 1030 c 0
 1030 1030 1175 855 1175 628 c 0
 1175 604 1175 577 1171 553 c 2
 1164 504 l 1
 316 504 l 1
 309 468 305 434 305 403 c 0
 305 213 427 79 602 79 c 0
 732 79 867 154 961 278 c 1
 1027 233 l 1
 918 87 750 -15 581 -15 c 0
 361 -15 218 158 218 385 c 0
EndSplineSet
EndChar

StartChar: iacute
Encoding: 237 237 201
Width: 422
VWidth: 2982
Flags: W
HStem: 0 21G<168 262.221> 994 20G<378.759 472> 1194 21G<356 475.019>
VStem: 168 638
DStem2: 168 0 258 0 0.207912 0.978148<18.7121 1036.54>
LayerCount: 2
Fore
SplineSet
638 1459 m 1
 806 1459 l 1
 448 1194 l 1
 356 1194 l 1
 638 1459 l 1
258 0 m 1
 168 0 l 1
 383 1014 l 1
 472 1014 l 1
 258 0 l 1
EndSplineSet
EndChar

StartChar: icircumflex
Encoding: 238 238 202
Width: 422
VWidth: 2982
Flags: W
HStem: 0 21G<168 262.221> 994 20G<378.759 472> 1194 21G<190 336.788 603.939 741>
VStem: 168 573
DStem2: 168 0 258 0 0.207912 0.978148<18.7121 1036.54> 190 1194 314 1194 0.750565 0.660797<93.0701 343.208> 555 1459 502 1359 0.574498 -0.818506<51.4022 253.097>
LayerCount: 2
Fore
SplineSet
258 0 m 1
 168 0 l 1
 383 1014 l 1
 472 1014 l 1
 258 0 l 1
491 1459 m 1
 555 1459 l 1
 741 1194 l 1
 618 1194 l 1
 502 1359 l 1
 314 1194 l 1
 190 1194 l 1
 491 1459 l 1
EndSplineSet
EndChar

StartChar: idieresis
Encoding: 239 239 203
Width: 422
VWidth: 2982
Flags: W
HStem: 0 21G<168 262.221> 994 20G<378.759 472> 1194 167<235.857 367.77 593.924 725.521>
VStem: 215 172<1214.16 1339.44> 573 172<1214.16 1339.44>
DStem2: 168 0 258 0 0.207912 0.978148<18.7121 1036.54>
LayerCount: 2
Fore
SplineSet
215 1262 m 0
 215 1305 262 1361 320 1361 c 0
 361 1361 387 1332 387 1294 c 0
 387 1235 329 1194 284 1194 c 0
 244 1194 215 1224 215 1262 c 0
573 1262 m 0
 573 1305 620 1361 679 1361 c 0
 718 1361 745 1332 745 1294 c 0
 745 1235 687 1194 643 1194 c 0
 602 1194 573 1224 573 1262 c 0
258 0 m 1
 168 0 l 1
 383 1014 l 1
 472 1014 l 1
 258 0 l 1
EndSplineSet
EndChar

StartChar: igrave
Encoding: 236 236 204
Width: 422
VWidth: 2982
Flags: W
HStem: 0 21G<168 262.221> 994 20G<378.759 472> 1194 21G<438.585 549>
VStem: 168 381
DStem2: 168 0 258 0 0.207912 0.978148<18.7121 1036.54>
LayerCount: 2
Fore
SplineSet
213 1459 m 1
 383 1459 l 1
 549 1194 l 1
 457 1194 l 1
 213 1459 l 1
258 0 m 1
 168 0 l 1
 383 1014 l 1
 472 1014 l 1
 258 0 l 1
EndSplineSet
EndChar

StartChar: ntilde
Encoding: 241 241 205
Width: 1071
VWidth: 2982
Flags: W
HStem: 0 21G<168 262.213 818 910.313> 940 90<683.029 915.301> 994 20G<359 456> 1175 94<847.124 1001.44> 1194 21G<534 603> 1288 84<615.799 766.429>
VStem: 365 92<831.576 1014> 534 59<1194 1255.43> 963 92<565.77 889.562> 1021 53<1304.16 1354.43>
DStem2: 168 0 258 0 0.207912 0.978148<18.7121 718.607 762.822 983.812> 818 0 906 0 0.207912 0.978148<18.2962 751.255>
LayerCount: 2
Fore
SplineSet
701 1372 m 0x8f40
 808 1372 873 1269 938 1269 c 0
 959 1269 1006 1290 1021 1361 c 1
 1074 1352 l 1
 1055 1256 1012 1175 918 1175 c 0x9740
 818 1175 750 1288 683 1288 c 0
 658 1288 613 1271 593 1194 c 1
 534 1194 l 1
 551 1283 602 1372 701 1372 c 0x8f40
359 1014 m 1xa780
 455 1014 l 1xa780
 457 1006 457 994 457 983 c 0
 457 951 453 918 444 880 c 2
 412 728 l 1
 517 889 694 1030 820 1030 c 0
 985 1030 1055 914 1055 756 c 0
 1055 716 1050 671 1041 626 c 2
 906 0 l 1
 818 0 l 1
 951 626 l 2
 959 662 963 701 963 739 c 0
 963 844 927 940 797 940 c 0xc780
 634 940 396 660 365 508 c 2
 258 0 l 1
 168 0 l 1
 354 880 l 2
 361 914 365 942 365 965 c 0
 365 985 363 1000 359 1014 c 1xa780
EndSplineSet
EndChar

StartChar: oacute
Encoding: 243 243 206
Width: 1282
VWidth: 2982
Flags: W
HStem: -15 89<483.606 855.049> 940 90<649.395 1023.34> 1194 21G<781 902.019>
VStem: 220 92<242.125 605.092> 1196 84<411.622 761.926>
LayerCount: 2
Fore
SplineSet
1063 1459 m 1
 1233 1459 l 1
 875 1194 l 1
 781 1194 l 1
 1063 1459 l 1
220 396 m 0
 220 726 530 1030 859 1030 c 0
 1110 1030 1280 853 1280 615 c 0
 1280 305 980 -15 638 -15 c 0
 389 -15 220 158 220 396 c 0
844 940 m 0
 581 940 312 696 312 416 c 0
 312 222 453 74 660 74 c 0
 927 74 1196 320 1196 596 c 0
 1196 792 1053 940 844 940 c 0
EndSplineSet
EndChar

StartChar: ocircumflex
Encoding: 244 244 207
Width: 1282
VWidth: 2982
Flags: W
HStem: -15 89<483.606 855.049> 940 90<649.395 1023.34> 1194 21G<618 763.545 1030.7 1166>
VStem: 220 92<242.125 605.092> 1196 84<411.622 761.926>
DStem2: 618 1194 741 1194 0.747271 0.664519<91.9143 340.552> 983 1459 927 1359 0.568241 -0.822862<50.4647 253.289>
LayerCount: 2
Fore
SplineSet
916 1459 m 1
 983 1459 l 1
 1166 1194 l 1
 1045 1194 l 1
 927 1359 l 1
 741 1194 l 1
 618 1194 l 1
 916 1459 l 1
220 396 m 0
 220 726 530 1030 859 1030 c 0
 1110 1030 1280 853 1280 615 c 0
 1280 305 980 -15 638 -15 c 0
 389 -15 220 158 220 396 c 0
844 940 m 0
 581 940 312 696 312 416 c 0
 312 222 453 74 660 74 c 0
 927 74 1196 320 1196 596 c 0
 1196 792 1053 940 844 940 c 0
EndSplineSet
EndChar

StartChar: odieresis
Encoding: 246 246 208
Width: 1282
VWidth: 2982
Flags: W
HStem: -15 89<483.606 855.049> 940 90<649.395 1023.34> 1194 167<666.458 798.529 1023.86 1155.77>
VStem: 220 92<242.125 605.092> 645 173<1214.91 1339.44> 1003 172<1214.16 1339.44> 1196 84<411.622 761.926>
LayerCount: 2
Fore
SplineSet
645 1262 m 0
 645 1305 692 1361 750 1361 c 0
 790 1361 818 1332 818 1294 c 0
 818 1235 759 1194 714 1194 c 0
 673 1194 645 1224 645 1262 c 0
1003 1262 m 0
 1003 1305 1050 1361 1108 1361 c 0
 1149 1361 1175 1332 1175 1294 c 0
 1175 1235 1117 1194 1072 1194 c 0
 1032 1194 1003 1224 1003 1262 c 0
220 396 m 0
 220 726 530 1030 859 1030 c 0
 1110 1030 1280 853 1280 615 c 0
 1280 305 980 -15 638 -15 c 0
 389 -15 220 158 220 396 c 0
844 940 m 0
 581 940 312 696 312 416 c 0
 312 222 453 74 660 74 c 0
 927 74 1196 320 1196 596 c 0
 1196 792 1053 940 844 940 c 0
EndSplineSet
EndChar

StartChar: ograve
Encoding: 242 242 209
Width: 1282
VWidth: 2982
Flags: W
HStem: -15 89<483.606 855.049> 940 90<649.395 1023.34> 1194 21G<893.359 1003>
VStem: 220 92<242.125 605.092> 1196 84<411.622 761.926>
LayerCount: 2
Fore
SplineSet
665 1459 m 1
 835 1459 l 1
 1003 1194 l 1
 912 1194 l 1
 665 1459 l 1
220 396 m 0
 220 726 530 1030 859 1030 c 0
 1110 1030 1280 853 1280 615 c 0
 1280 305 980 -15 638 -15 c 0
 389 -15 220 158 220 396 c 0
844 940 m 0
 581 940 312 696 312 416 c 0
 312 222 453 74 660 74 c 0
 927 74 1196 320 1196 596 c 0
 1196 792 1053 940 844 940 c 0
EndSplineSet
EndChar

StartChar: otilde
Encoding: 245 245 210
Width: 1282
VWidth: 2982
Flags: W
HStem: -15 89<483.606 855.049> 940 90<649.395 1023.34> 1175 94<945.328 1099.46> 1194 21G<634 702> 1288 84<714.456 864.486>
VStem: 220 92<242.125 605.092> 634 58<1194 1255.43> 1119 54<1304.16 1354.39> 1196 84<411.622 761.926>
LayerCount: 2
Fore
SplineSet
799 1372 m 0xdf80
 906 1372 972 1269 1036 1269 c 0
 1057 1269 1104 1290 1119 1361 c 1
 1173 1352 l 1
 1153 1256 1110 1175 1016 1175 c 0xef80
 916 1175 848 1288 781 1288 c 0
 756 1288 712 1271 692 1194 c 1
 634 1194 l 1
 649 1283 701 1372 799 1372 c 0xdf80
220 396 m 0
 220 726 530 1030 859 1030 c 0
 1110 1030 1280 853 1280 615 c 0
 1280 305 980 -15 638 -15 c 0
 389 -15 220 158 220 396 c 0
844 940 m 0
 581 940 312 696 312 416 c 0
 312 222 453 74 660 74 c 0
 927 74 1196 320 1196 596 c 0
 1196 792 1053 940 844 940 c 0
EndSplineSet
EndChar

StartChar: scaron
Encoding: 353 353 211
Width: 791
VWidth: 2982
Flags: W
HStem: -17 89<284.39 560.077> 942 90<477.646 710.454>
VStem: 130 94<137.111 289> 312 91<673.809 867.561> 703 87<206.954 433.039> 750 89<830.651 901.54>
DStem2: 540 1370 416 1370 0.573049 -0.819521<0 200.056> 656 1207 667 1104 0.746027 0.665916<0 248.797>
LayerCount: 2
Fore
SplineSet
667 1104 m 1xf0
 602 1104 l 1
 416 1370 l 1
 540 1370 l 1
 656 1207 l 1
 844 1370 l 1
 965 1370 l 1
 667 1104 l 1xf0
312 739 m 0
 312 875 434 1032 620 1032 c 0
 728 1032 824 969 839 835 c 1
 750 808 l 1xf4
 739 902 671 942 600 942 c 0
 485 942 403 842 403 759 c 0
 403 589 790 609 790 356 c 0
 790 164 604 -17 389 -17 c 0
 252 -17 130 64 130 252 c 0
 130 265 132 278 132 289 c 1
 226 302 l 1
 226 291 224 282 224 271 c 0
 224 132 312 72 412 72 c 0
 553 72 703 192 703 336 c 0xf8
 703 542 312 510 312 739 c 0
EndSplineSet
EndChar

StartChar: uacute
Encoding: 250 250 212
Width: 1066
VWidth: 2982
Flags: W
HStem: -15 89<416.819 692.137> 994 20G<378.758 472 1022.79 1117> 1194 21G<701 822.019>
VStem: 239 92<164.038 543.75>
DStem2: 164.552 -15 254.552 -15 0.207912 0.978148<355.562 1051.93> 809.552 -15 899.552 -15 0.207912 0.978148<235.748 1051.72>
LayerCount: 2
Fore
SplineSet
983 1459 m 1
 1153 1459 l 1
 795 1194 l 1
 701 1194 l 1
 983 1459 l 1
383 1014 m 1
 472 1014 l 1
 340 387 l 1
 333 361 331 336 331 312 c 0
 331 175 416 74 546 74 c 0
 698 74 857 213 895 387 c 1
 1027 1014 l 1
 1117 1014 l 1
 985 387 l 2
 938 168 737 -15 530 -15 c 0
 354 -15 239 119 239 295 c 0
 239 325 244 356 250 387 c 2
 383 1014 l 1
EndSplineSet
EndChar

StartChar: ucircumflex
Encoding: 251 251 213
Width: 1066
VWidth: 2982
Flags: W
HStem: -15 89<416.819 692.137> 994 20G<378.758 472 1022.79 1117> 1194 21G<513 658.788 925.939 1063>
VStem: 239 92<164.038 543.75>
DStem2: 164.552 -15 254.552 -15 0.207912 0.978148<355.562 1051.93> 513 1194 636 1194 0.748375 0.663276<92.0501 342.185> 809.552 -15 899.552 -15 0.207912 0.978148<235.748 1051.72> 878 1459 824 1359 0.572424 -0.819958<51.0849 252.779>
LayerCount: 2
Fore
SplineSet
812 1459 m 1
 878 1459 l 1
 1063 1194 l 1
 940 1194 l 1
 824 1359 l 1
 636 1194 l 1
 513 1194 l 1
 812 1459 l 1
383 1014 m 1
 472 1014 l 1
 340 387 l 1
 333 361 331 336 331 312 c 0
 331 175 416 74 546 74 c 0
 698 74 857 213 895 387 c 1
 1027 1014 l 1
 1117 1014 l 1
 985 387 l 2
 938 168 737 -15 530 -15 c 0
 354 -15 239 119 239 295 c 0
 239 325 244 356 250 387 c 2
 383 1014 l 1
EndSplineSet
EndChar

StartChar: udieresis
Encoding: 252 252 214
Width: 1066
VWidth: 2982
Flags: W
HStem: -15 89<416.819 692.137> 994 20G<378.758 472 1022.79 1117> 1194 167<566.857 698.77 924.924 1057.38>
VStem: 239 92<164.038 543.75> 546 172<1214.16 1339.44> 904 173<1214.16 1339.44>
DStem2: 164.552 -15 254.552 -15 0.207912 0.978148<355.562 1051.93> 809.552 -15 899.552 -15 0.207912 0.978148<235.748 1051.72>
LayerCount: 2
Fore
SplineSet
546 1262 m 0
 546 1305 593 1361 651 1361 c 0
 692 1361 718 1332 718 1294 c 0
 718 1235 660 1194 615 1194 c 0
 575 1194 546 1224 546 1262 c 0
904 1262 m 0
 904 1305 951 1361 1010 1361 c 0
 1050 1361 1077 1332 1077 1294 c 0
 1077 1235 1019 1194 974 1194 c 0
 933 1194 904 1224 904 1262 c 0
383 1014 m 1
 472 1014 l 1
 340 387 l 1
 333 361 331 336 331 312 c 0
 331 175 416 74 546 74 c 0
 698 74 857 213 895 387 c 1
 1027 1014 l 1
 1117 1014 l 1
 985 387 l 2
 938 168 737 -15 530 -15 c 0
 354 -15 239 119 239 295 c 0
 239 325 244 356 250 387 c 2
 383 1014 l 1
EndSplineSet
EndChar

StartChar: ugrave
Encoding: 249 249 215
Width: 1066
VWidth: 2982
Flags: W
HStem: -15 89<416.819 692.137> 994 20G<378.758 472 1022.79 1117> 1194 21G<771.585 884>
VStem: 239 92<164.038 543.75>
DStem2: 164.552 -15 254.552 -15 0.207912 0.978148<355.562 1051.93> 809.552 -15 899.552 -15 0.207912 0.978148<235.748 1051.72>
LayerCount: 2
Fore
SplineSet
546 1459 m 1
 716 1459 l 1
 884 1194 l 1
 790 1194 l 1
 546 1459 l 1
383 1014 m 1
 472 1014 l 1
 340 387 l 1
 333 361 331 336 331 312 c 0
 331 175 416 74 546 74 c 0
 698 74 857 213 895 387 c 1
 1027 1014 l 1
 1117 1014 l 1
 985 387 l 2
 938 168 737 -15 530 -15 c 0
 354 -15 239 119 239 295 c 0
 239 325 244 356 250 387 c 2
 383 1014 l 1
EndSplineSet
EndChar

StartChar: yacute
Encoding: 253 253 216
Width: 950
VWidth: 2982
Flags: W
HStem: -521 21G<126 235.831> 994 20G<250 349.575 1024.16 1132> 1194 21G<643 761.019>
DStem2: 126 -521 224 -521 0.509956 0.8602<49.9757 602.491 744.312 1784.47> 346 1014 250 1014 0.176327 -0.984332<0 909.189>
LayerCount: 2
Fore
SplineSet
922 1459 m 1
 1092 1459 l 1
 734 1194 l 1
 643 1194 l 1
 922 1459 l 1
224 -521 m 1
 126 -521 l 1
 432 -2 l 1
 250 1014 l 1
 346 1014 l 1
 506 119 l 1
 1036 1014 l 1
 1132 1014 l 1
 224 -521 l 1
EndSplineSet
EndChar

StartChar: ydieresis
Encoding: 255 255 217
Width: 946
VWidth: 2982
Flags: W
HStem: -521 21G<126 231.831> 994 20G<250 347.575 1022.16 1128> 1209 168<511.672 640.542 868.725 999.814>
VStem: 491 171<1230.56 1356.25> 848 173<1230.56 1356.25>
DStem2: 126 -521 220 -521 0.509126 0.860692<47.8578 602.492 743.292 1783.45> 344 1014 250 1014 0.176327 -0.984332<0 909.189>
LayerCount: 2
Fore
SplineSet
491 1276 m 0
 491 1335 549 1377 593 1377 c 0
 634 1377 662 1345 662 1307 c 0
 662 1265 615 1209 557 1209 c 0
 517 1209 491 1238 491 1276 c 0
848 1276 m 0
 848 1335 906 1377 951 1377 c 0
 991 1377 1021 1345 1021 1307 c 0
 1021 1265 974 1209 916 1209 c 0
 875 1209 848 1238 848 1276 c 0
250 1014 m 1
 344 1014 l 1
 504 119 l 1
 1034 1014 l 1
 1128 1014 l 1
 220 -521 l 1
 126 -521 l 1
 432 -2 l 1
 250 1014 l 1
EndSplineSet
EndChar

StartChar: zcaron
Encoding: 382 382 218
Width: 888
VWidth: 2982
Flags: W
HStem: 0 90<224 822> 925 89<374 884>
DStem2: 36 0 224 90 0.675761 0.737121<193.384 1254.88> 613 1370 491 1370 0.568888 -0.822415<0 200.614> 730 1207 743 1104 0.746027 0.665916<0 248.797>
LayerCount: 2
Fore
SplineSet
743 1104 m 1
 675 1104 l 1
 491 1370 l 1
 613 1370 l 1
 730 1207 l 1
 918 1370 l 1
 1041 1370 l 1
 743 1104 l 1
374 1014 m 1
 1070 1014 l 1
 224 90 l 1
 869 90 l 1
 822 0 l 1
 36 0 l 1
 884 925 l 1
 325 925 l 1
 374 1014 l 1
EndSplineSet
EndChar

StartChar: uni00AD
Encoding: 173 173 220
Width: 1036
VWidth: 2982
Flags: W
HStem: 463 90<239 1014>
LayerCount: 2
Fore
SplineSet
1034 553 m 1
 1014 463 l 1
 222 463 l 1
 239 553 l 1
 1034 553 l 1
EndSplineSet
EndChar

StartChar: uni00B2
Encoding: 178 178 221
Width: 883
VWidth: 2982
Flags: W
HStem: 922 92<438 938> 1845 89<726.008 964.404>
VStem: 508 90<1610 1712> 1016 99<1534.01 1793.31>
LayerCount: 2
Fore
SplineSet
1115 1685 m 0
 1115 1314 553 1276 438 1014 c 1
 955 1014 l 1
 938 925 l 1
 318 922 l 1
 327 967 l 1
 401 1307 959 1361 1010 1610 c 0
 1014 1630 1016 1647 1016 1668 c 0
 1016 1771 949 1845 855 1845 c 0
 743 1845 626 1743 598 1610 c 1
 508 1610 l 1
 546 1784 709 1934 878 1934 c 0
 1019 1934 1115 1826 1115 1685 c 0
EndSplineSet
EndChar

StartChar: uni00B3
Encoding: 179 179 222
Width: 870
VWidth: 2982
Flags: W
HStem: 912 84<531.425 785.132> 1450 90<765 870.985> 1843 88<714.463 929.174>
VStem: 376 92<1056.66 1224> 546 90<1683 1768.28> 931 85<1134.38 1388.21> 961 84<1606.72 1809.49>
LayerCount: 2
Fore
SplineSet
765 1540 m 1xfc
 857 1540 961 1602 961 1715 c 0
 961 1788 908 1843 831 1843 c 0
 741 1843 654 1771 636 1683 c 1
 546 1683 l 1
 575 1820 709 1931 846 1931 c 0
 965 1931 1045 1847 1045 1735 c 0xfa
 1045 1688 1032 1576 906 1495 c 1
 974 1450 1016 1377 1016 1288 c 0
 1016 1104 833 912 628 912 c 0
 479 912 376 1016 376 1157 c 0
 376 1179 378 1202 383 1224 c 1
 472 1224 l 1
 468 1209 468 1194 468 1177 c 0
 468 1074 542 996 651 996 c 0
 784 996 931 1119 931 1269 c 0
 931 1372 857 1450 748 1450 c 1
 765 1540 l 1xfc
EndSplineSet
EndChar

StartChar: uni00B5
Encoding: 181 181 223
Width: 1066
VWidth: 2982
Flags: W
HStem: -510 21G<103.5 150.905> -9 90<415.354 701.883> 994 20G<378.73 472 1022.75 1117>
VStem: 92 92<-480.691 -142.25>
DStem2: 57.851 -510 148.426 -510 0.207912 0.978148<154.355 671.077 867.799 1558.3> 703.061 -510 793.061 -510 0.207912 0.978148<747.944 1558.05>
LayerCount: 2
Fore
SplineSet
383 1014 m 1
 472 1014 l 1
 340 393 l 1
 333 367 331 342 331 318 c 0
 331 179 419 81 549 81 c 0
 701 81 857 218 895 393 c 2
 1027 1014 l 1
 1117 1014 l 1
 985 393 l 2
 938 173 739 -9 532 -9 c 0
 419 -9 331 45 284 128 c 1
 192 -305 l 2
 186 -331 184 -359 184 -380 c 0
 184 -412 188 -440 197 -468 c 1
 109 -510 l 1
 98 -474 92 -436 92 -396 c 0
 92 -367 94 -338 101 -307 c 2
 383 1014 l 1
EndSplineSet
EndChar

StartChar: uni00B9
Encoding: 185 185 224
Width: 782
VWidth: 2982
Flags: W
VStem: 615 299
DStem2: 615 925 701 925 0.207912 0.978148<17.8804 851.597> 620 1753 656 1677 0.860577 0.509321<0 150.566>
LayerCount: 2
Fore
SplineSet
615 925 m 1
 792 1758 l 1
 656 1677 l 1
 620 1753 l 1
 914 1927 l 1
 701 925 l 1
 615 925 l 1
EndSplineSet
EndChar

StartChar: uni0E01
Encoding: 3585 3585 225
Width: 1179
VWidth: 2982
Flags: W
HStem: 0 21G<168 262.195 925 1018.27> 1119 90<628.406 973.558>
VStem: 1097 89<699.405 995.531>
DStem2: 168 0 258 0 0.207912 0.978148<18.7121 709.282> 401 859 307 842 0.838961 -0.544191<-2.06067 92.1724> 925 0 1014 0 0.207912 0.978148<18.5041 860.214>
LayerCount: 2
Fore
SplineSet
401 859 m 1
 549 763 l 1
 455 724 399 671 374 553 c 2
 258 0 l 1
 168 0 l 1
 284 553 l 2
 302 638 378 716 446 759 c 1
 307 842 l 1
 432 1119 679 1209 826 1209 c 0
 1041 1209 1186 1057 1186 855 c 0
 1186 826 1184 795 1177 763 c 2
 1014 0 l 1
 925 0 l 1
 1088 763 l 2
 1094 792 1097 820 1097 844 c 0
 1097 1019 965 1119 808 1119 c 0
 665 1119 493 1038 401 859 c 1
EndSplineSet
EndChar

StartChar: uni0E02
Encoding: 3586 3586 226
Width: 1221
VWidth: 2982
Flags: W
HStem: -15 89<468.545 802.671> 671 90<399 684.736> 1104 90<645 756>
VStem: 248 92<200.285 591.125>
DStem2: 163.412 -15 251.412 -15 0.207912 0.978148<400.71 719.991> 520.327 -15 609.327 -15 0.207912 0.978148<791.986 1143.55> 964.412 -15 1054.41 -15 0.207912 0.978148<278.948 1235.72>
LayerCount: 2
Fore
SplineSet
596 1104 m 1
 645 1194 l 1
 867 1194 l 1
 790 835 l 2
 771 745 681 671 591 671 c 2
 399 671 l 1
 346 430 l 1
 342 406 340 380 340 356 c 0
 340 195 455 74 626 74 c 0
 824 74 1016 233 1059 430 c 1
 1220 1194 l 1
 1309 1194 l 1
 1149 430 l 2
 1097 186 853 -15 609 -15 c 0
 396 -15 248 139 248 338 c 0
 248 369 250 399 258 430 c 1
 329 761 l 1
 609 761 l 2
 651 761 692 795 701 835 c 2
 756 1104 l 1
 596 1104 l 1
EndSplineSet
EndChar

StartChar: uni0E03
Encoding: 3587 3587 227
Width: 1221
VWidth: 2982
Flags: W
HStem: -15 89<468.37 802.868> 671 90<399 684.736> 1189 5G<481.557 518.5 757.582 867 1215.79 1309>
VStem: 248 92<204.271 591.125>
DStem2: 163.412 -15 251.412 -15 0.207912 0.978148<403.509 719.991> 520.327 -15 609.327 -15 0.207912 0.978148<791.986 1091.37> 964.412 -15 1054.41 -15 0.207912 0.978148<277.903 1235.72>
LayerCount: 2
Fore
SplineSet
436 1130 m 1
 497 1209 l 1
 540 1182 596 1126 628 1053 c 1
 779 1194 l 1
 867 1194 l 1
 790 835 l 2
 771 745 681 671 591 671 c 2
 399 671 l 1
 346 430 l 1
 342 406 340 380 340 359 c 0
 340 195 457 74 626 74 c 0
 824 74 1016 233 1059 430 c 1
 1220 1194 l 1
 1309 1194 l 1
 1149 430 l 1
 1094 184 855 -15 609 -15 c 0
 393 -15 248 137 248 338 c 0
 248 367 250 399 258 430 c 1
 329 761 l 1
 609 761 l 2
 651 761 692 795 701 835 c 2
 745 1053 l 1
 575 889 l 1
 564 931 542 1063 436 1130 c 1
EndSplineSet
EndChar

StartChar: uni0E04
Encoding: 3588 3588 228
Width: 1221
VWidth: 2982
Flags: W
HStem: 0 21G<168 262.195 967 1061.27> 553 90<393 698> 1119 90<674.611 1008.77>
VStem: 1137 92<699.405 991.321>
DStem2: 168 0 258 0 0.207912 0.978148<18.7121 583.745 675.729 981.541> 967 0 1057 0 0.207912 0.978148<18.7121 852.909>
LayerCount: 2
Fore
SplineSet
748 643 m 1
 698 553 l 1
 374 553 l 1
 258 0 l 1
 168 0 l 1
 329 763 l 1
 380 1010 624 1209 869 1209 c 0
 1081 1209 1229 1057 1229 855 c 0
 1229 826 1226 795 1220 763 c 2
 1057 0 l 1
 967 0 l 1
 1130 763 l 2
 1135 788 1137 812 1137 837 c 0
 1137 998 1023 1119 850 1119 c 0
 654 1119 461 961 419 763 c 2
 393 643 l 1
 748 643 l 1
EndSplineSet
EndChar

StartChar: uni0E05
Encoding: 3589 3589 229
Width: 1221
VWidth: 2982
Flags: W
HStem: 0 21G<168 262.195 967 1061.24> 553 90<393 698> 931 90<744.763 934.762>
VStem: 1151 90<748.735 1057.39>
DStem2: 168 0 258 0 0.207912 0.978148<18.7121 583.745 675.729 1048.51> 967 0 1057 0 0.207912 0.978148<18.7121 921.169>
LayerCount: 2
Fore
SplineSet
748 643 m 1
 698 553 l 1
 374 553 l 1
 258 0 l 1
 168 0 l 1
 340 812 l 2
 374 969 468 1108 613 1191 c 1
 656 1215 l 1
 671 1179 l 1
 730 1057 781 1021 826 1021 c 1
 859 1023 936 1041 1053 1175 c 1
 1083 1211 l 1
 1115 1191 l 1
 1202 1130 1241 1032 1241 922 c 0
 1241 886 1235 848 1229 812 c 1
 1057 0 l 1
 967 0 l 1
 1139 812 l 1
 1147 844 1151 875 1151 904 c 0
 1151 980 1126 1045 1079 1090 c 1
 996 1003 902 931 810 931 c 0
 716 931 656 1003 607 1090 c 1
 517 1027 455 929 430 812 c 2
 393 643 l 1
 748 643 l 1
EndSplineSet
EndChar

StartChar: uni0E06
Encoding: 3590 3590 230
Width: 1221
VWidth: 2982
Flags: W
HStem: -15 89<584.648 867.942> 0 21G<168 262.144> 671 90<399 684.736> 1174 20G<481.557 518.5 757.582 867 1215.79 1309>
DStem2: 164.812 -15 254.812 -15 0.207912 0.978148<34.0472 374.116 543.767 719.7> 520.327 -15 609.327 -15 0.207912 0.978148<791.986 1091.37> 964.412 -15 1054.41 -15 0.207912 0.978148<221.642 1235.72>
LayerCount: 2
Fore
SplineSet
399 671 m 1x70
 374 555 l 1
 369 538 367 517 367 497 c 0
 367 302 546 74 716 74 c 0
 929 74 1023 267 1059 430 c 1
 1220 1194 l 1
 1309 1194 l 1
 1149 430 l 1
 1097 188 949 -15 698 -15 c 0xb0
 534 -15 393 152 327 333 c 1
 258 0 l 1
 168 0 l 1
 329 761 l 1
 609 761 l 2
 651 761 692 795 701 835 c 2
 745 1053 l 1
 575 889 l 1
 564 931 542 1063 436 1130 c 1
 497 1209 l 1
 540 1182 596 1126 628 1053 c 1
 779 1194 l 1
 867 1194 l 1
 790 835 l 2
 771 745 681 671 591 671 c 2
 399 671 l 1x70
EndSplineSet
EndChar

StartChar: uni0E07
Encoding: 3591 3591 231
Width: 1221
VWidth: 2982
Flags: W
HStem: -15 89<468.545 802.671> 1104 90<867 1004.02>
VStem: 248 92<200.285 594.203> 1135 89<585 975.61>
DStem2: 163.412 -15 251.412 -15 0.207912 0.978148<400.71 868.972> 964.412 -15 1054.41 -15 0.207912 0.978148<278.948 856.943>
LayerCount: 2
Fore
SplineSet
440 867 m 1
 346 430 l 1
 342 406 340 380 340 356 c 0
 340 195 455 74 626 74 c 0
 824 74 1016 233 1059 430 c 1
 1126 750 l 2
 1132 777 1135 801 1135 826 c 0
 1135 985 1016 1104 846 1104 c 1
 867 1194 l 1
 1079 1194 1224 1041 1224 842 c 0
 1224 812 1222 781 1215 750 c 2
 1149 430 l 1
 1097 186 853 -15 609 -15 c 0
 396 -15 248 139 248 338 c 0
 248 369 250 399 258 430 c 1
 344 835 l 1
 440 867 l 1
EndSplineSet
EndChar

StartChar: uni0E08
Encoding: 3592 3592 232
Width: 1132
VWidth: 2982
Flags: W
HStem: 0 21G<878 971.273> 553 90<690 994> 1119 90<584.952 918.9>
VStem: 239 90<763 874.69> 1047 92<644.328 993.426>
DStem2: 878 0 967 0 0.207912 0.978148<18.5041 565.033 657.225 852.701>
LayerCount: 2
Fore
SplineSet
640 553 m 1
 690 643 l 1
 1014 643 l 1
 1041 763 l 1
 1045 788 1047 812 1047 837 c 0
 1047 998 933 1119 761 1119 c 0
 564 1119 372 961 329 763 c 1
 239 763 l 1
 291 1010 534 1209 779 1209 c 0
 991 1209 1139 1057 1139 855 c 0
 1139 826 1137 795 1130 763 c 2
 967 0 l 1
 878 0 l 1
 994 553 l 1
 640 553 l 1
EndSplineSet
EndChar

StartChar: uni0E09
Encoding: 3593 3593 233
Width: 1132
VWidth: 2982
Flags: W
HStem: -9 90<350.902 625.902> 530 90<195 252> 1119 90<584.952 918.9>
VStem: 213 92<125.896 528.266> 239 90<763 874.69> 1047 92<596.672 993.426>
DStem2: 138.412 -9 227.412 -9 0.207912 0.978148<317.299 550.838> 876.087 -9 965.087 -9 0.207912 0.978148<27.7052 335.93 397.158 861.902>
LayerCount: 2
Fore
SplineSet
878 0 m 1xec
 944 320 l 1
 812 143 622 -9 463 -9 c 0
 273 -9 213 109 213 262 c 0
 213 316 222 376 233 436 c 1
 252 530 l 1
 145 530 l 1
 195 620 l 1
 363 620 l 1
 322 436 l 2
 309 374 305 320 305 278 c 0xf4
 305 128 372 81 479 81 c 0
 673 81 953 359 996 555 c 2
 1041 763 l 1
 1045 788 1047 812 1047 837 c 0
 1047 998 933 1119 761 1119 c 0
 564 1119 372 961 329 763 c 1
 239 763 l 1
 291 1010 534 1209 779 1209 c 0
 991 1209 1139 1057 1139 855 c 0
 1139 826 1137 795 1130 763 c 2
 967 0 l 1
 878 0 l 1xec
EndSplineSet
EndChar

StartChar: uni0E0A
Encoding: 3594 3594 234
Width: 1221
VWidth: 2982
Flags: W
HStem: -15 89<468.545 802.671> 671 90<399 684.736> 871 90<818 1085.81> 1104 90<645 756>
VStem: 248 92<200.285 591.125> 1117 90<611.431 841.162> 1220 89<1155 1194>
DStem2: 163.412 -15 251.412 -15 0.207912 0.978148<400.71 719.991> 520.327 -15 609.327 -15 0.207912 0.978148<791.986 924.162 1016.56 1143.55> 964.412 -15 1054.41 -15 0.207912 0.978148<278.948 757.618>
LayerCount: 2
Fore
SplineSet
258 430 m 1
 329 761 l 1
 609 761 l 2
 651 761 692 795 701 835 c 2
 756 1104 l 1
 596 1104 l 1
 645 1194 l 1
 867 1194 l 1
 818 961 l 1
 1008 961 l 2
 1115 961 1188 1047 1213 1155 c 1
 1220 1194 l 1
 1309 1194 l 1
 1303 1155 l 1
 1280 1055 1211 965 1121 914 c 1
 1175 873 1207 806 1207 732 c 0
 1207 712 1204 692 1200 671 c 2
 1149 430 l 2
 1097 186 853 -15 609 -15 c 0
 396 -15 248 139 248 338 c 0
 248 369 250 399 258 430 c 1
987 871 m 2
 797 871 l 1
 790 835 l 1
 771 745 681 671 591 671 c 2
 399 671 l 1
 346 430 l 1
 342 406 340 380 340 356 c 0
 340 195 455 74 626 74 c 0
 824 74 1016 233 1059 430 c 1
 1110 671 l 2
 1115 692 1117 709 1117 728 c 0
 1117 810 1074 871 987 871 c 2
EndSplineSet
EndChar

StartChar: uni0E0B
Encoding: 3595 3595 235
Width: 1221
VWidth: 2982
Flags: W
HStem: -15 89<468.545 802.671> 671 90<399 684.736> 871 90<818 1085.81> 1174 20G<481.557 518.5 757.582 867 1216.41 1309>
VStem: 248 92<200.285 591.125> 1117 90<611.431 841.162> 1220 89<1155 1194>
DStem2: 163.412 -15 251.412 -15 0.207912 0.978148<400.71 719.991> 520.327 -15 609.327 -15 0.207912 0.978148<791.986 924.162 1016.56 1091.37> 964.412 -15 1054.41 -15 0.207912 0.978148<278.948 757.618>
LayerCount: 2
Fore
SplineSet
818 961 m 1
 1008 961 l 2
 1115 961 1188 1047 1213 1155 c 1
 1220 1194 l 1
 1309 1194 l 1
 1303 1155 l 1
 1280 1055 1211 965 1121 914 c 1
 1175 873 1207 806 1207 732 c 0
 1207 712 1204 692 1200 671 c 2
 1149 430 l 2
 1097 186 853 -15 609 -15 c 0
 396 -15 248 139 248 338 c 0
 248 369 250 399 258 430 c 1
 329 761 l 1
 609 761 l 2
 651 761 692 795 701 835 c 2
 745 1053 l 1
 575 889 l 1
 564 931 542 1063 436 1130 c 1
 497 1209 l 1
 540 1182 596 1126 628 1053 c 1
 779 1194 l 1
 867 1194 l 1
 818 961 l 1
399 671 m 1
 346 430 l 1
 342 406 340 380 340 356 c 0
 340 195 455 74 626 74 c 0
 824 74 1016 233 1059 430 c 1
 1110 671 l 2
 1115 692 1117 709 1117 728 c 0
 1117 810 1074 871 987 871 c 2
 797 871 l 1
 790 835 l 1
 771 745 681 671 591 671 c 2
 399 671 l 1
EndSplineSet
EndChar

StartChar: uni0E0C
Encoding: 3596 3596 236
Width: 1886
VWidth: 2982
Flags: W
HStem: -17 89<1288.73 1561.94> 0 90<275 346> 1119 90<628.406 973.558> 1174 20G<1882.75 1976>
VStem: 1097 89<707.249 995.531>
DStem2: 164.387 -17 252.256 -17 0.207912 0.978148<127.66 726.662> 401 859 307 842 0.838961 -0.544191<-2.06067 92.1724> 921.387 -17 1010.39 -17 0.207912 0.978148<35.8839 337.536 519.723 877.593> 1629.62 -17 1718.62 -17 0.207912 0.978148<203.117 1238.05>
LayerCount: 2
Fore
SplineSet
393 90 m 1x68
 346 0 l 1
 168 0 l 1
 284 553 l 2
 302 638 378 716 446 759 c 1
 307 842 l 1
 432 1119 679 1209 826 1209 c 0x68
 1041 1209 1186 1057 1186 855 c 0
 1186 826 1184 795 1177 763 c 2
 1132 553 l 2
 1126 526 1124 497 1124 470 c 0
 1124 278 1251 72 1412 72 c 0
 1551 72 1666 154 1724 427 c 2
 1887 1194 l 1
 1976 1194 l 1
 1813 427 l 1
 1743 105 1587 -17 1392 -17 c 0x98
 1238 -17 1128 128 1077 295 c 1
 1014 0 l 1
 925 0 l 1
 1088 763 l 2
 1094 792 1097 820 1097 844 c 0
 1097 1019 965 1119 808 1119 c 0
 665 1119 493 1038 401 859 c 1
 549 763 l 1
 455 724 399 671 374 553 c 2
 275 90 l 1
 393 90 l 1x68
EndSplineSet
EndChar

StartChar: uni0E0D
Encoding: 3597 3597 237
Width: 1886
VWidth: 2982
Flags: W
HStem: -342 84<1138.81 1421.31> -15 89<1205.01 1499.78> 0 90<275 346> 1119 90<628.406 973.558> 1174 20G<1887.76 1976>
VStem: 1006 91<184.165 587.922> 1097 89<703.532 995.531>
DStem2: 95.3057 -342 183.176 -342 0.207912 0.978148<459.92 1058.92> 401 859 307 842 0.838961 -0.544191<-2.06067 92.1724> 852.544 -342 941.906 -342 0.207912 0.978148<723.119 1209.8> 1565.48 -342 1648.84 -342 0.207912 0.978148<267.372 498.09 598.456 1570.32>
LayerCount: 2
Fore
SplineSet
393 90 m 1xb2
 346 0 l 1
 168 0 l 1
 284 553 l 2
 302 638 378 716 446 759 c 1
 307 842 l 1
 432 1119 679 1209 826 1209 c 0
 1041 1209 1186 1057 1186 855 c 0xb2
 1186 826 1184 795 1177 763 c 2
 1106 430 l 2
 1100 401 1097 372 1097 344 c 0
 1097 188 1198 74 1343 74 c 0
 1513 74 1688 231 1730 430 c 2
 1892 1194 l 1
 1976 1194 l 1
 1743 101 l 2
 1692 -141 1482 -342 1256 -342 c 0
 1126 -342 1030 -280 978 -181 c 1
 1066 -137 l 1
 1108 -213 1182 -258 1273 -258 c 0
 1444 -258 1617 -101 1659 98 c 1
 1670 145 l 1
 1578 47 1453 -15 1325 -15 c 0
 1132 -15 1006 132 1006 327 c 0xcc
 1006 359 1010 391 1016 427 c 1
 1088 763 l 2
 1094 792 1097 820 1097 844 c 0
 1097 1019 965 1119 808 1119 c 0
 665 1119 493 1038 401 859 c 1
 549 763 l 1
 455 724 399 671 374 553 c 2
 275 90 l 1
 393 90 l 1xb2
EndSplineSet
Substitution2: "'ccmp' Pali-Sanskrit Descender Removal" uni0E0D.descless
Substitution2: "Thai Descender Removal Single Substitution" uni0E0D.descless
EndChar

StartChar: uni0E0E
Encoding: 3598 3598 238
Width: 1179
VWidth: 2982
Flags: W
HStem: -421 90<-27 307 837 855> 0 90<111 188> 1119 90<628.651 973.037>
VStem: 1094 92<697.966 998.062>
DStem2: 79.3836 -421 168.514 -421 0.207912 0.978148<522.416 1136.47> 401 859 307 842 0.833815 -0.552043<-2.32249 92.726> 307 -331 316 -421 0.849144 0.528162<0 271.221> 598 -150 581 -258 0.797189 -0.603729<51.6505 299.803> 835.87 -421 925 -421 0.207912 0.978148<92.0107 1293.74>
AnchorPoint: "BelowBase" 918 -444 basechar 0
LayerCount: 2
Fore
SplineSet
62 0 m 1
 111 90 l 1
 188 90 l 1
 286 553 l 2
 305 638 378 716 446 759 c 1
 307 842 l 1
 432 1119 679 1209 828 1209 c 0
 1041 1209 1186 1059 1186 859 c 0
 1186 828 1182 797 1175 763 c 2
 925 -421 l 1
 795 -421 l 1
 581 -258 l 1
 316 -421 l 1
 -79 -421 l 1
 -27 -331 l 1
 307 -331 l 1
 598 -150 l 1
 837 -331 l 1
 855 -331 l 1
 1085 763 l 2
 1092 792 1094 822 1094 848 c 0
 1094 1021 963 1119 808 1119 c 0
 665 1119 493 1038 401 859 c 1
 546 763 l 1
 457 724 401 671 376 553 c 2
 258 0 l 1
 62 0 l 1
EndSplineSet
EndChar

StartChar: uni0E0F
Encoding: 3599 3599 239
Width: 1179
VWidth: 2982
Flags: W
HStem: -421 90<-27 101 844 855> 0 90<111 188> 1119 90<628.651 973.037>
VStem: 1094 92<612.078 998.474>
DStem2: 76.1953 -436 165.325 -436 0.207912 0.978148<537.751 1155.08> 101 -331 124 -421 0.73614 0.67683<0 189.512> 312 -137 295 -262 0.66176 -0.749716<82.4645 238.757> 401 859 307 842 0.833815 -0.552043<-2.32249 92.726> 470 -316 453 -436 0.781209 0.62427<0 187.609> 694 -137 667 -262 0.61168 -0.791106<82.3729 245.226> 832.682 -436 921.812 -436 0.207912 0.978148<107.346 1309.08>
AnchorPoint: "BelowBase" 918 -444 basechar 0
LayerCount: 2
Fore
SplineSet
101 -331 m 1
 312 -137 l 1
 470 -316 l 1
 694 -137 l 1
 844 -331 l 1
 855 -331 l 1
 1085 763 l 2
 1092 792 1094 822 1094 848 c 0
 1094 1021 963 1119 808 1119 c 0
 665 1119 493 1038 401 859 c 1
 546 763 l 1
 457 724 401 671 376 553 c 2
 258 0 l 1
 62 0 l 1
 111 90 l 1
 188 90 l 1
 286 553 l 2
 305 638 378 716 446 759 c 1
 307 842 l 1
 432 1119 679 1209 828 1209 c 0
 1041 1209 1186 1059 1186 859 c 0
 1186 828 1182 797 1175 763 c 2
 925 -421 l 1
 788 -421 l 1
 667 -262 l 1
 453 -436 l 1
 295 -262 l 1
 124 -421 l 1
 -79 -421 l 1
 -27 -331 l 1
 101 -331 l 1
EndSplineSet
EndChar

StartChar: uni0E10
Encoding: 3600 3600 240
Width: 1168
VWidth: 2982
Flags: W
HStem: -421 90<-40 87 831 844> -158 89<859 880> 0 21G<914 1007.27> 553 90<726 1030> 1119 90<620.968 957.676>
VStem: 275 90<763 874.69> 1083 92<644.328 993.11>
DStem2: 87 -331 109 -421 0.737732 0.675094<0 191.915> 299 -137 284 -262 0.66643 -0.745568<83.1996 240.085> 459 -316 438 -436 0.778468 0.627684<0 185.696> 681 -137 654 -262 0.61168 -0.791106<82.3729 245.226> 821.682 -436 910.812 -436 0.207912 0.978148<107.346 284.05 464.171 1010.7 1102.89 1298.37> 1059 1121 1115 1059 0.858665 0.512537<16.308 141.68>
LayerCount: 2
Fore
SplineSet
844 -331 m 1
 880 -158 l 1
 810 -158 l 1
 859 -69 l 1
 987 -69 l 1
 914 -421 l 1
 777 -421 l 1
 654 -262 l 1
 438 -436 l 1
 284 -262 l 1
 109 -421 l 1
 -90 -421 l 1
 -40 -331 l 1
 87 -331 l 1
 299 -137 l 1
 459 -316 l 1
 681 -137 l 1
 831 -331 l 1
 844 -331 l 1
1050 643 m 1
 1077 763 l 1
 1081 788 1083 812 1083 837 c 0
 1083 998 969 1119 797 1119 c 0
 600 1119 408 961 365 763 c 1
 275 763 l 1
 327 1010 571 1209 814 1209 c 0
 914 1209 996 1175 1059 1121 c 1
 1188 1198 l 1
 1224 1121 l 1
 1115 1059 l 1
 1155 1006 1175 933 1175 857 c 0
 1175 826 1173 795 1166 763 c 2
 1003 0 l 1
 914 0 l 1
 1030 553 l 1
 675 553 l 1
 726 643 l 1
 1050 643 l 1
EndSplineSet
Substitution2: "'ccmp' Pali-Sanskrit Descender Removal" uni0E10.descless
Substitution2: "Thai Descender Removal Single Substitution" uni0E10.descless
EndChar

StartChar: uni0E11
Encoding: 3601 3601 241
Width: 1221
VWidth: 2982
Flags: W
HStem: 0 21G<168 262.221 967 1061.2> 1119 90<977.021 1168.35> 1174 20G<616.582 726>
VStem: 1177 90<785.114 1111.07>
DStem2: 168 0 258 0 0.207912 0.978148<18.7121 626.54> 967 0 1057 0 0.207912 0.978148<18.7121 1040.98>
LayerCount: 2
Fore
SplineSet
168 0 m 1xd0
 284 555 l 1
 284 555 406 694 562 842 c 1
 607 1053 l 1
 434 889 l 1
 423 931 403 1063 295 1130 c 1
 356 1209 l 1xd0
 399 1182 455 1126 487 1053 c 1
 638 1194 l 1
 726 1194 l 1xb0
 671 947 l 1
 831 1088 1000 1209 1108 1209 c 0
 1231 1209 1267 1144 1267 1050 c 0
 1267 965 1238 855 1215 752 c 1
 1057 0 l 1
 967 0 l 1
 1126 752 l 1
 1149 850 1177 951 1177 1023 c 0
 1177 1081 1155 1119 1090 1119 c 0
 965 1119 589 777 369 526 c 1
 258 0 l 1
 168 0 l 1xd0
EndSplineSet
EndChar

StartChar: uni0E12
Encoding: 3602 3602 242
Width: 1946
VWidth: 2982
Flags: W
HStem: -15 89<384.534 629.728 1349.36 1616.02> 0 21G<985 1078.24> 636 90<575 742.552> 929 90<764.116 956.092> 1189 5G<1053 1157 1941.76 2035>
VStem: 220 89<159.299 635.221> 792 92<260.134 589.679> 1168 90<762.192 1054.4>
DStem2: 981.812 -15 1070.81 -15 0.207912 0.978148<33.8392 337.448 519.768 934.434> 1689.41 -15 1778.41 -15 0.207912 0.978148<203.65 1235.93>
LayerCount: 2
Fore
SplineSet
491 74 m 0xbf
 685 74 792 282 792 446 c 0
 792 551 748 636 640 636 c 2
 526 636 l 1
 575 726 l 1
 658 726 l 2
 814 726 884 609 884 466 c 0
 884 239 730 -15 472 -15 c 0
 297 -15 220 145 220 354 c 0
 220 665 387 1027 669 1211 c 1
 726 1083 790 1019 853 1019 c 0
 912 1019 996 1081 1110 1209 c 1
 1204 1135 1258 1025 1258 904 c 0
 1258 878 1256 850 1249 822 c 1
 1194 555 l 1
 1186 528 1184 502 1184 472 c 0
 1184 282 1312 74 1473 74 c 0
 1612 74 1726 158 1784 430 c 2
 1946 1194 l 1
 2035 1194 l 1
 1873 430 l 2
 1805 107 1647 -15 1453 -15 c 0xbf
 1298 -15 1188 132 1137 297 c 1
 1074 0 l 1
 985 0 l 1x7f
 1160 822 l 2
 1166 848 1168 875 1168 902 c 0
 1168 972 1147 1036 1102 1083 c 1
 1008 987 906 929 833 929 c 0
 752 929 681 985 626 1083 c 1
 410 912 309 585 309 367 c 0
 309 201 365 74 491 74 c 0xbf
EndSplineSet
EndChar

StartChar: uni0E13
Encoding: 3603 3603 243
Width: 1886
VWidth: 2982
Flags: W
HStem: -17 89<1134.85 1401.58> 0 90<275 346> 1119 90<628.406 973.558> 1174 20G<1882.76 1976>
VStem: 994 91<120.831 532> 1097 89<703.532 995.531>
DStem2: 164.387 -17 252.256 -17 0.207912 0.978148<127.66 726.662> 401 859 307 842 0.838961 -0.544191<-2.06067 92.1724> 921.625 -17 1011.62 -17 0.207912 0.978148<313.83 877.544> 1628.39 -17 1717.39 -17 0.207912 0.978148<35.8839 318.824 385.276 1238.31>
LayerCount: 2
Fore
SplineSet
401 859 m 1xac
 549 763 l 1
 455 724 399 671 374 553 c 2
 275 90 l 1
 393 90 l 1
 346 0 l 1
 168 0 l 1x6c
 284 553 l 2
 302 638 378 716 446 759 c 1
 307 842 l 1
 432 1119 679 1209 826 1209 c 0
 1041 1209 1186 1057 1186 855 c 0
 1186 826 1184 795 1177 763 c 2
 1106 427 l 2
 1092 363 1085 312 1085 267 c 0
 1085 121 1155 72 1262 72 c 0xac
 1448 72 1706 342 1751 553 c 2
 1887 1194 l 1
 1976 1194 l 1
 1721 0 l 1
 1632 0 l 1x5c
 1694 295 l 1
 1574 128 1401 -17 1247 -17 c 0
 1092 -17 994 58 994 250 c 0
 994 302 1003 361 1016 427 c 1
 1088 763 l 2
 1094 792 1097 820 1097 844 c 0
 1097 1019 965 1119 808 1119 c 0
 665 1119 493 1038 401 859 c 1xac
EndSplineSet
EndChar

StartChar: uni0E14
Encoding: 3604 3604 244
Width: 1239
VWidth: 2982
Flags: W
HStem: -15 89<383.416 630.37> 0 21G<985 1078.3> 636 90<575 742.552> 1119 90<685.11 1021.7>
VStem: 218 91<155.461 626.322> 792 92<258.641 589.679> 1155 92<699.772 986.581>
DStem2: 981.812 -15 1070.81 -15 0.207912 0.978148<33.8392 866.289>
LayerCount: 2
Fore
SplineSet
491 74 m 0xbe
 675 74 792 269 792 446 c 0
 792 551 748 636 640 636 c 2
 526 636 l 1
 575 726 l 1
 658 726 l 2
 814 726 884 609 884 466 c 0
 884 228 720 -15 472 -15 c 0xbe
 299 -15 218 139 218 346 c 0
 218 728 470 1209 880 1209 c 0
 1094 1209 1247 1057 1247 853 c 0
 1247 824 1245 795 1238 763 c 2
 1074 0 l 1
 985 0 l 1x7e
 1149 763 l 1
 1153 788 1155 810 1155 835 c 0
 1155 996 1034 1119 861 1119 c 0
 530 1119 309 714 309 363 c 0
 309 195 367 74 491 74 c 0xbe
EndSplineSet
EndChar

StartChar: uni0E15
Encoding: 3605 3605 245
Width: 1239
VWidth: 2982
Flags: W
HStem: -15 89<384.534 629.728> 0 21G<985 1078.26> 636 90<575 742.552> 929 90<764.116 956.092> 1189 20G<1053 1157>
VStem: 220 89<159.299 635.221> 792 92<260.134 589.679> 1168 90<757.956 1054.4>
DStem2: 981.812 -15 1070.81 -15 0.207912 0.978148<33.8392 934.434>
LayerCount: 2
Fore
SplineSet
491 74 m 0xbf
 685 74 792 282 792 446 c 0
 792 551 748 636 640 636 c 2
 526 636 l 1
 575 726 l 1
 658 726 l 2
 814 726 884 609 884 466 c 0
 884 239 730 -15 472 -15 c 0xbf
 297 -15 220 145 220 354 c 0
 220 665 387 1027 669 1211 c 1
 726 1083 790 1019 853 1019 c 0
 912 1019 996 1081 1110 1209 c 1
 1204 1135 1258 1025 1258 904 c 0
 1258 878 1256 850 1249 822 c 1
 1074 0 l 1
 985 0 l 1x7f
 1160 822 l 2
 1166 848 1168 875 1168 902 c 0
 1168 972 1147 1036 1102 1083 c 1
 1008 987 906 929 833 929 c 0
 752 929 681 985 626 1083 c 1
 410 912 309 585 309 367 c 0
 309 201 365 74 491 74 c 0xbf
EndSplineSet
EndChar

StartChar: uni0E16
Encoding: 3606 3606 246
Width: 1179
VWidth: 2982
Flags: W
HStem: 0 90<275 346> 1119 90<628.406 973.558>
VStem: 1097 89<699.405 995.531>
DStem2: 168 0 255.87 0 0.207912 0.978148<110.28 709.282> 401 859 307 842 0.838961 -0.544191<-2.06067 92.1724> 925 0 1014 0 0.207912 0.978148<18.5041 860.214>
LayerCount: 2
Fore
SplineSet
401 859 m 1
 549 763 l 1
 455 724 399 671 374 553 c 2
 275 90 l 1
 393 90 l 1
 346 0 l 1
 168 0 l 1
 284 553 l 2
 302 638 378 716 446 759 c 1
 307 842 l 1
 432 1119 679 1209 826 1209 c 0
 1041 1209 1186 1057 1186 855 c 0
 1186 826 1184 795 1177 763 c 2
 1014 0 l 1
 925 0 l 1
 1088 763 l 2
 1094 792 1097 820 1097 844 c 0
 1097 1019 965 1119 808 1119 c 0
 665 1119 493 1038 401 859 c 1
EndSplineSet
EndChar

StartChar: uni0E17
Encoding: 3607 3607 247
Width: 1221
VWidth: 2982
Flags: W
HStem: 0 21G<168 262.169 967 1061.27> 1119 90<798.36 1078.18> 1174 20G<416.762 510>
VStem: 1144 91<631.859 1049.57>
DStem2: 168 0 258 0 0.207912 0.978148<18.7121 844.404 896.365 1220.51> 967 0 1057 0 0.207912 0.978148<18.7121 906.358>
LayerCount: 2
Fore
SplineSet
168 0 m 1xd0
 421 1194 l 1
 510 1194 l 1xb0
 438 859 l 1
 581 1041 795 1209 959 1209 c 0
 1157 1209 1235 1081 1235 908 c 0
 1235 861 1231 814 1220 763 c 2
 1057 0 l 1
 967 0 l 1
 1130 763 l 2
 1139 806 1144 848 1144 891 c 0
 1144 1014 1097 1119 940 1119 c 0
 752 1119 436 842 391 638 c 1
 258 0 l 1
 168 0 l 1xd0
EndSplineSet
EndChar

StartChar: uni0E18
Encoding: 3608 3608 248
Width: 1221
VWidth: 2982
Flags: W
HStem: 0 90<275 810.293> 553 90<393 1083> 1119 90<674.611 1008.77>
VStem: 1137 92<763 993.426>
DStem2: 168 0 255.87 0 0.207912 0.978148<110.28 465.225 675.729 975.816> 966.2 0 1056.2 0 0.207912 0.978148<273.216 565.2>
LayerCount: 2
Fore
SplineSet
168 0 m 1
 265 455 l 1
 354 455 l 1
 275 90 l 1
 632 90 l 2
 828 90 1021 248 1061 446 c 2
 1083 553 l 1
 284 553 l 1
 329 763 l 1
 380 1010 624 1209 869 1209 c 0
 1081 1209 1229 1057 1229 855 c 0
 1229 826 1226 795 1220 763 c 1
 1130 763 l 1
 1135 788 1137 812 1137 837 c 0
 1137 998 1023 1119 850 1119 c 0
 654 1119 461 961 419 763 c 2
 393 643 l 1
 1194 643 l 1
 1151 446 l 1
 1100 199 857 0 611 0 c 2
 168 0 l 1
EndSplineSet
EndChar

StartChar: uni0E19
Encoding: 3609 3609 249
Width: 1221
VWidth: 2982
Flags: W
HStem: -9 90<400.444 681.089> 1174 20G<416.752 510 1215.77 1309>
VStem: 242 91<148.751 554.438>
DStem2: 165.412 -9 254.412 -9 0.207912 0.978148<345.866 1229.85> 965.087 -9 1055.09 -9 0.207912 0.978148<27.9131 349.686 407.565 1229.71>
LayerCount: 2
Fore
SplineSet
421 1194 m 1
 510 1194 l 1
 349 436 l 2
 340 393 333 349 333 307 c 0
 333 184 383 81 540 81 c 0
 734 81 1043 359 1085 555 c 2
 1220 1194 l 1
 1309 1194 l 1
 1057 0 l 1
 967 0 l 1
 1038 333 l 1
 895 152 681 -9 519 -9 c 0
 322 -9 242 116 242 289 c 0
 242 336 248 385 260 436 c 1
 421 1194 l 1
EndSplineSet
EndChar

StartChar: uni0E1A
Encoding: 3610 3610 250
Width: 1221
VWidth: 2982
Flags: W
HStem: -15 89<468.545 802.671> 1174 20G<416.733 510 1215.79 1309>
VStem: 248 92<200.285 585.188>
DStem2: 163.412 -15 251.412 -15 0.207912 0.978148<400.71 1236.14> 964.412 -15 1054.41 -15 0.207912 0.978148<278.948 1235.72>
LayerCount: 2
Fore
SplineSet
421 1194 m 1
 510 1194 l 1
 346 430 l 1
 342 406 340 380 340 356 c 0
 340 195 455 74 626 74 c 0
 824 74 1016 233 1059 430 c 1
 1220 1194 l 1
 1309 1194 l 1
 1149 430 l 2
 1097 186 853 -15 609 -15 c 0
 396 -15 248 139 248 338 c 0
 248 369 250 399 258 430 c 1
 421 1194 l 1
EndSplineSet
EndChar

StartChar: uni0E1B
Encoding: 3611 3611 251
Width: 1221
VWidth: 2982
Flags: W
HStem: -15 89<469.127 803.101> 1174 20G<416.785 510> 1473 20G<1280.75 1374>
VStem: 250 90<198.937 585.188>
DStem2: 165.412 -15 254.412 -15 0.207912 0.978148<398.337 1235.72> 964.412 -15 1054.41 -15 0.207912 0.978148<279.012 1541.7>
AnchorPoint: "AboveBase" 1132 1271 basechar 0
LayerCount: 2
Fore
SplineSet
421 1194 m 1
 510 1194 l 1
 349 430 l 1
 342 403 340 378 340 354 c 0
 340 192 457 74 626 74 c 0
 824 74 1016 233 1059 430 c 1
 1285 1493 l 1
 1374 1493 l 1
 1149 430 l 2
 1097 186 855 -15 609 -15 c 0
 396 -15 250 137 250 338 c 0
 250 367 252 399 260 430 c 1
 421 1194 l 1
EndSplineSet
EndChar

StartChar: uni0E1C
Encoding: 3612 3612 252
Width: 1311
VWidth: 2982
Flags: W
HStem: -15 89<360.666 550.727 785.559 1014.02> 1108 90<565.061 656>
VStem: 218 91<129.303 635.075>
DStem2: 602.019 -15 690.019 -15 0.207912 0.978148<275.415 1236.01> 1052.54 -15 1142.54 -15 0.207912 0.978148<155.753 1235.9>
LayerCount: 2
Fore
SplineSet
656 1108 m 1
 487 1108 309 679 309 340 c 0
 309 184 352 74 436 74 c 0
 598 74 660 258 679 340 c 1
 859 1194 l 1
 947 1194 l 1
 765 340 l 1
 759 305 752 269 752 233 c 0
 752 145 786 74 891 74 c 0
 1036 74 1102 215 1128 340 c 2
 1309 1194 l 1
 1399 1194 l 1
 1218 340 l 2
 1166 92 1021 -15 871 -15 c 0
 777 -15 707 60 681 154 c 1
 613 60 513 -15 419 -15 c 0
 289 -15 218 114 218 322 c 0
 218 651 401 1198 675 1198 c 1
 656 1108 l 1
EndSplineSet
EndChar

StartChar: uni0E1D
Encoding: 3613 3613 253
Width: 1311
VWidth: 2982
Flags: W
HStem: -15 89<360.666 551.124 784.977 1014.32> 1108 90<565.061 656> 1473 20G<1369.73 1464>
VStem: 218 91<129.303 637.036>
DStem2: 603.542 -15 687.542 -15 0.207912 0.978148<276.964 1235.69> 1052.54 -15 1142.54 -15 0.207912 0.978148<155.753 1541.88>
AnchorPoint: "AboveBase" 1222 1271 basechar 0
LayerCount: 2
Fore
SplineSet
656 1108 m 1
 487 1108 309 681 309 340 c 0
 309 184 352 74 436 74 c 0
 598 74 660 258 679 340 c 1
 859 1194 l 1
 944 1194 l 1
 763 340 l 2
 756 305 752 269 752 235 c 0
 752 148 784 74 891 74 c 0
 1036 74 1102 215 1128 340 c 2
 1374 1493 l 1
 1464 1493 l 1
 1218 340 l 2
 1166 92 1021 -15 873 -15 c 0
 777 -15 709 60 681 154 c 1
 613 60 515 -15 419 -15 c 0
 289 -15 218 114 218 322 c 0
 218 658 401 1198 675 1198 c 1
 656 1108 l 1
EndSplineSet
EndChar

StartChar: uni0E1E
Encoding: 3614 3614 254
Width: 1365
VWidth: 2982
Flags: W
HStem: -15 89<352.802 582.337 825.327 1064.14> 1174 20G<416.738 510 888.761 983 1358.76 1453>
VStem: 226 92<107.238 486.781>
DStem2: 163.542 -15 253.542 -15 0.207912 0.978148<280.168 1236.11> 636.542 -15 725.542 -15 0.207912 0.978148<281.915 1235.9> 1106.54 -15 1195.54 -15 0.207912 0.978148<161.482 1235.9>
LayerCount: 2
Fore
SplineSet
421 1194 m 1
 510 1194 l 1
 329 340 l 2
 322 307 318 271 318 237 c 0
 318 148 352 74 461 74 c 0
 624 74 692 244 712 340 c 2
 893 1194 l 1
 983 1194 l 1
 801 340 l 1
 795 307 790 273 790 239 c 0
 790 150 824 74 936 74 c 0
 1088 74 1155 215 1182 340 c 2
 1363 1194 l 1
 1453 1194 l 1
 1271 340 l 1
 1220 92 1072 -15 916 -15 c 0
 818 -15 748 60 716 158 c 1
 645 60 544 -15 446 -15 c 0
 318 -15 226 56 226 218 c 0
 226 255 231 295 239 340 c 1
 421 1194 l 1
EndSplineSet
EndChar

StartChar: uni0E1F
Encoding: 3615 3615 255
Width: 1365
VWidth: 2982
Flags: W
HStem: -15 89<352.802 582.462 825.6 1064.44> 1174 20G<416.738 510 886.738 980> 1473 20G<1424.72 1518>
VStem: 226 92<108.46 486.781>
DStem2: 163.542 -15 253.542 -15 0.207912 0.978148<280.168 1236.11> 633.542 -15 723.542 -15 0.207912 0.978148<284.922 1236.11> 1106.54 -15 1195.54 -15 0.207912 0.978148<161.499 1542.09>
AnchorPoint: "AboveBase" 1276 1271 basechar 0
LayerCount: 2
Fore
SplineSet
421 1194 m 1
 510 1194 l 1
 329 340 l 2
 322 307 318 271 318 237 c 0
 318 148 352 74 461 74 c 0
 624 74 690 244 709 340 c 1
 891 1194 l 1
 980 1194 l 1
 799 340 l 2
 792 307 788 273 788 242 c 0
 788 150 824 74 936 74 c 0
 1088 74 1155 215 1182 340 c 2
 1429 1493 l 1
 1518 1493 l 1
 1271 340 l 1
 1220 92 1072 -15 918 -15 c 0
 820 -15 748 60 716 158 c 1
 647 60 544 -15 446 -15 c 0
 318 -15 226 58 226 222 c 0
 226 258 231 295 239 340 c 1
 421 1194 l 1
EndSplineSet
EndChar

StartChar: uni0E20
Encoding: 3616 3616 256
Width: 1179
VWidth: 2982
Flags: W
HStem: 0 90<111 186> 1119 90<628.406 973.558>
VStem: 1097 89<699.405 995.531>
DStem2: 166.87 0 258 0 0.207912 0.978148<92.0107 705.766> 401 859 307 842 0.838961 -0.544191<-2.06067 92.1724> 925 0 1014 0 0.207912 0.978148<18.5041 860.214>
LayerCount: 2
Fore
SplineSet
401 859 m 1
 549 763 l 1
 455 724 399 671 374 553 c 2
 258 0 l 1
 62 0 l 1
 111 90 l 1
 186 90 l 1
 284 553 l 2
 302 638 378 716 446 759 c 1
 307 842 l 1
 432 1119 679 1209 826 1209 c 0
 1041 1209 1186 1057 1186 855 c 0
 1186 826 1184 795 1177 763 c 2
 1014 0 l 1
 925 0 l 1
 1088 763 l 2
 1094 792 1097 820 1097 844 c 0
 1097 1019 965 1119 808 1119 c 0
 665 1119 493 1038 401 859 c 1
EndSplineSet
EndChar

StartChar: uni0E21
Encoding: 3617 3617 257
Width: 1221
VWidth: 2982
Flags: W
HStem: -15 89<581.01 867.942> 0 21G<168 262.144> 1174 20G<416.762 510 1215.79 1309>
DStem2: 164.812 -15 254.812 -15 0.207912 0.978148<34.0472 374.116 543.041 1235.85> 964.412 -15 1054.41 -15 0.207912 0.978148<221.642 1235.72>
LayerCount: 2
Fore
SplineSet
421 1194 m 1x60
 510 1194 l 1
 374 555 l 1
 369 537 368 517 368 496 c 0
 368 302 545 74 716 74 c 0
 929 74 1023 267 1059 430 c 1
 1220 1194 l 1
 1309 1194 l 1
 1149 430 l 1
 1097 188 949 -15 698 -15 c 0xa0
 534 -15 393 152 327 333 c 1
 258 0 l 1
 168 0 l 1
 421 1194 l 1x60
EndSplineSet
EndChar

StartChar: uni0E22
Encoding: 3618 3618 258
Width: 1192
VWidth: 2982
Flags: W
HStem: -15 89<420.37 791.762> 707 79<396 491 542.444 732> 1108 90<641.044 818>
VStem: 199 94<195.735 494.91>
DStem2: 936.576 -15 1024.58 -15 0.207912 0.978148<251.729 1236.1>
LayerCount: 2
Fore
SplineSet
732 707 m 1
 534 707 293 573 293 336 c 0
 293 177 423 74 600 74 c 0
 797 74 985 205 1025 401 c 1
 1194 1194 l 1
 1280 1194 l 1
 1113 401 l 1
 1059 152 822 -15 579 -15 c 0
 367 -15 199 107 199 312 c 0
 199 521 354 667 491 707 c 1
 286 707 l 1
 297 752 l 1
 349 996 591 1198 837 1198 c 1
 818 1108 l 1
 635 1108 446 970 396 786 c 1
 779 786 l 1
 732 707 l 1
EndSplineSet
EndChar

StartChar: uni0E23
Encoding: 3619 3619 259
Width: 1221
VWidth: 2982
Flags: W
HStem: -15 89<626 799.839> 553 90<393 1083> 1119 90<674.611 1008.77>
VStem: 1137 92<763 993.426>
DStem2: 163.268 -15 253.138 -15 0.207912 0.978148<691.385 991.472> 964.412 -15 1054.41 -15 0.207912 0.978148<278.948 580.244>
LayerCount: 2
Fore
SplineSet
1194 643 m 1
 1149 430 l 2
 1097 186 853 -15 609 -15 c 1
 626 74 l 1
 824 74 1016 233 1059 430 c 1
 1083 553 l 1
 284 553 l 1
 329 763 l 1
 380 1010 624 1209 869 1209 c 0
 1081 1209 1229 1057 1229 855 c 0
 1229 826 1226 795 1220 763 c 1
 1130 763 l 1
 1135 788 1137 812 1137 837 c 0
 1137 998 1023 1119 850 1119 c 0
 654 1119 461 961 419 763 c 2
 393 643 l 1
 1194 643 l 1
EndSplineSet
EndChar

StartChar: uni0E24
Encoding: 3620 3620 260
Width: 1179
VWidth: 2982
Flags: W
HStem: -455 21G<828 922.253> 0 90<275 346> 1119 90<628.406 973.558>
VStem: 1097 89<698.088 995.531>
DStem2: 71.2868 -455 159.157 -455 0.207912 0.978148<575.445 1174.45> 401 859 307 842 0.838961 -0.544191<-2.06067 92.1724> 828 -455 918 -455 0.207912 0.978148<18.7121 1325.44>
LayerCount: 2
Fore
SplineSet
401 859 m 1
 549 763 l 1
 455 724 399 671 374 553 c 2
 275 90 l 1
 393 90 l 1
 346 0 l 1
 168 0 l 1
 284 553 l 2
 302 638 378 716 446 759 c 1
 307 842 l 1
 432 1119 679 1209 826 1209 c 0
 1041 1209 1186 1057 1186 855 c 0
 1186 826 1184 795 1177 763 c 2
 918 -455 l 1
 828 -455 l 1
 1088 763 l 2
 1094 792 1097 820 1097 844 c 0
 1097 1019 965 1119 808 1119 c 0
 665 1119 493 1038 401 859 c 1
EndSplineSet
EndChar

StartChar: uni0E25
Encoding: 3621 3621 261
Width: 1221
VWidth: 2982
Flags: W
HStem: -15 89<471.015 609> 0 21G<967 1061.27> 553 90<374 1083> 1119 90<674.611 1008.77>
VStem: 248 92<200.285 550.445> 1137 92<644.328 993.426>
DStem2: 163.412 -15 251.412 -15 0.207912 0.978148<400.71 599.371 814.138 988.537> 963.812 -15 1053.81 -15 0.207912 0.978148<34.0472 580.368 672.768 868.244>
LayerCount: 2
Fore
SplineSet
967 0 m 1x7c
 1083 553 l 1
 374 553 l 1
 346 430 l 1
 342 406 340 380 340 356 c 0
 340 195 455 74 626 74 c 1
 609 -15 l 1xbc
 396 -15 248 139 248 338 c 0
 248 369 250 399 258 430 c 1
 305 643 l 1
 1104 643 l 1
 1130 763 l 2
 1135 788 1137 812 1137 837 c 0
 1137 998 1023 1119 850 1119 c 0
 654 1119 461 961 419 763 c 1
 329 763 l 1
 380 1010 624 1209 869 1209 c 0
 1081 1209 1229 1057 1229 855 c 0
 1229 826 1226 795 1220 763 c 2
 1057 0 l 1
 967 0 l 1x7c
EndSplineSet
EndChar

StartChar: uni0E26
Encoding: 3622 3622 262
Width: 1179
VWidth: 2982
Flags: W
HStem: -455 21G<828 922.253> 0 90<111 186> 1119 90<628.406 973.558>
VStem: 1097 89<698.088 995.531>
DStem2: 70.1567 -455 161.287 -455 0.207912 0.978148<557.176 1170.93> 401 859 307 842 0.838961 -0.544191<-2.06067 92.1724> 828 -455 918 -455 0.207912 0.978148<18.7121 1325.44>
LayerCount: 2
Fore
SplineSet
401 859 m 1
 549 763 l 1
 455 724 399 671 374 553 c 2
 258 0 l 1
 62 0 l 1
 111 90 l 1
 186 90 l 1
 284 553 l 2
 302 638 378 716 446 759 c 1
 307 842 l 1
 432 1119 679 1209 826 1209 c 0
 1041 1209 1186 1057 1186 855 c 0
 1186 826 1184 795 1177 763 c 2
 918 -455 l 1
 828 -455 l 1
 1088 763 l 2
 1094 792 1097 820 1097 844 c 0
 1097 1019 965 1119 808 1119 c 0
 665 1119 493 1038 401 859 c 1
EndSplineSet
EndChar

StartChar: uni0E27
Encoding: 3623 3623 263
Width: 1213
VWidth: 2982
Flags: W
HStem: -15 89<439.041 769.567> 1119 90<654.763 980.599>
VStem: 192 94<237.752 338.49> 1147 88<499.721 931.292>
LayerCount: 2
Fore
SplineSet
1235 748 m 0
 1235 363 912 -15 585 -15 c 0
 376 -15 222 116 192 333 c 1
 286 369 l 1
 314 168 453 74 604 74 c 0
 859 74 1147 387 1147 734 c 0
 1147 961 1012 1119 826 1119 c 0
 667 1119 500 1003 393 826 c 1
 318 859 l 1
 438 1063 638 1209 844 1209 c 0
 1083 1209 1235 1010 1235 748 c 0
EndSplineSet
EndChar

StartChar: uni0E28
Encoding: 3624 3624 264
Width: 1221
VWidth: 2982
Flags: W
HStem: 0 21G<168 262.195 967 1061.27> 553 90<393 698> 1121 90<674.844 1011.68> 1189 20G<1223.39 1267.13>
VStem: 1137 92<596.094 993.838>
DStem2: 168 0 258 0 0.207912 0.978148<18.7121 583.745 675.729 981.995> 967 0 1057 0 0.207912 0.978148<18.7121 852.909> 1124 1117 1175 1055 0.809838 0.586654<0.374222 156.822>
LayerCount: 2
Fore
SplineSet
967 0 m 1xd8
 1130 763 l 2
 1135 788 1137 812 1137 837 c 0
 1137 998 1023 1121 850 1121 c 0
 654 1121 461 961 419 763 c 2
 393 643 l 1
 748 643 l 1
 698 553 l 1
 374 553 l 1
 258 0 l 1
 168 0 l 1
 329 767 l 1
 383 1012 624 1211 869 1211 c 0xe8
 974 1211 1061 1175 1124 1117 c 1
 1251 1209 l 1
 1301 1147 l 1
 1175 1055 l 1
 1211 998 1229 931 1229 857 c 0
 1229 826 1226 795 1220 763 c 2
 1057 0 l 1
 967 0 l 1xd8
EndSplineSet
EndChar

StartChar: uni0E29
Encoding: 3625 3625 265
Width: 1219
VWidth: 2982
Flags: W
HStem: -15 89<463.7 801.641> 669 139<730 774.395> 669 90<808 1106 1215 1269> 1174 20G<416.733 510 1213.77 1307>
VStem: 248 92<197.456 585.188>
DStem2: 163.412 -15 251.412 -15 0.207912 0.978148<400.71 1236.14> 960.412 -15 1054.41 -15 0.207912 0.978148<272.522 699.322 810.018 1236.14>
LayerCount: 2
Fore
SplineSet
421 1194 m 1xb8
 510 1194 l 1
 346 430 l 1
 342 406 340 380 340 356 c 0
 340 195 453 74 624 74 c 0
 822 74 1014 233 1055 430 c 1
 1106 669 l 1
 701 669 l 1xb8
 730 808 l 1xd8
 826 839 l 1
 808 759 l 1
 1126 759 l 1
 1218 1194 l 1
 1307 1194 l 1
 1215 759 l 1
 1318 759 l 1
 1269 669 l 1
 1198 669 l 1
 1149 430 l 1
 1097 186 853 -15 609 -15 c 0
 396 -15 248 139 248 338 c 0
 248 369 250 399 258 430 c 1
 421 1194 l 1xb8
EndSplineSet
EndChar

StartChar: uni0E2A
Encoding: 3626 3626 266
Width: 1221
VWidth: 2982
Flags: W
HStem: -15 89<471.015 609> 0 21G<967 1061.27> 553 90<374 1083> 1119 92<669.474 1011.68> 1189 20G<1223.39 1267.13>
VStem: 248 92<200.285 550.445> 1137 92<644.328 993.544>
DStem2: 163.412 -15 251.412 -15 0.207912 0.978148<400.71 599.371 818.051 994.441> 963.812 -15 1053.81 -15 0.207912 0.978148<34.0472 580.368 672.768 868.244> 1124 1117 1175 1055 0.809838 0.586654<0.374222 156.822>
LayerCount: 2
Fore
SplineSet
419 767 m 1xb6
 329 767 l 1
 383 1012 624 1211 869 1211 c 0xb6
 974 1211 1061 1175 1124 1117 c 1
 1251 1209 l 1
 1301 1147 l 1
 1175 1055 l 1
 1211 998 1229 931 1229 857 c 0
 1229 826 1226 795 1220 763 c 2
 1057 0 l 1
 967 0 l 1x6e
 1083 553 l 1
 374 553 l 1
 346 430 l 1
 342 406 340 380 340 356 c 0
 340 195 455 74 626 74 c 1
 609 -15 l 1
 396 -15 248 139 248 338 c 0
 248 369 250 399 258 430 c 1
 305 643 l 1
 1104 643 l 1
 1130 763 l 2
 1135 788 1137 812 1137 837 c 0
 1137 998 1023 1119 850 1119 c 0
 654 1119 461 965 419 767 c 1xb6
EndSplineSet
EndChar

StartChar: uni0E2B
Encoding: 3627 3627 267
Width: 1221
VWidth: 2982
Flags: W
HStem: 0 21G<168 262.173 967 1061.19> 949 70<953 1018.3> 1153 45<1168 1208.91>
VStem: 1104 90<447.656 873.704>
DStem2: 168 0 258 0 0.207912 0.978148<18.7121 590.79 675.729 1220.51> 967 0 1057 0 0.207912 0.978148<18.7121 714.057>
LayerCount: 2
Fore
SplineSet
421 1194 m 1
 510 1194 l 1
 393 643 l 1
 566 904 976 1155 1171 1198 c 1
 1290 1153 l 1
 1168 1130 1043 1074 953 1019 c 1
 1121 1019 1194 884 1194 716 c 0
 1194 669 1188 622 1177 573 c 2
 1057 0 l 1
 967 0 l 1
 1088 573 l 2
 1097 613 1104 658 1104 703 c 0
 1104 831 1055 949 900 949 c 0
 745 949 385 589 340 393 c 1
 258 0 l 1
 168 0 l 1
 421 1194 l 1
EndSplineSet
EndChar

StartChar: uni0E2C
Encoding: 3628 3628 268
Width: 1365
VWidth: 2982
Flags: W
HStem: -15 89<352.952 588.416 824.644 1064.44> 1104 90<1074 1281.52>
VStem: 226 92<110.237 402.784> 1312 87<848.922 1074.86> 1408 89<1289.24 1403>
DStem2: 163.542 -15 253.542 -15 0.207912 0.978148<282.123 1236.11> 633.542 -15 723.542 -15 0.207912 0.978148<284.922 1236.11> 1106.54 -15 1195.54 -15 0.207912 0.978148<161.499 1002.43>
AnchorPoint: "AboveBase" 1276 1271 basechar 0
LayerCount: 2
Fore
SplineSet
1497 1403 m 1
 1482 1290 1397 1194 1316 1147 c 1
 1367 1106 1399 1041 1399 965 c 0
 1399 944 1397 925 1392 904 c 2
 1271 340 l 1
 1220 92 1072 -15 918 -15 c 0
 820 -15 741 30 709 128 c 1
 640 30 544 -15 446 -15 c 0
 318 -15 226 58 226 222 c 0
 226 258 231 295 239 340 c 1
 421 1194 l 1
 510 1194 l 1
 329 340 l 2
 322 307 318 273 318 239 c 0
 318 150 352 74 463 74 c 0
 626 74 690 244 709 340 c 1
 891 1194 l 1
 980 1194 l 1
 799 340 l 2
 792 307 788 273 788 242 c 0
 788 150 824 74 936 74 c 0
 1088 74 1155 215 1182 340 c 2
 1305 912 l 2
 1309 931 1312 949 1312 967 c 0
 1312 1047 1269 1104 1182 1104 c 2
 1057 1104 l 1
 1074 1194 l 1
 1200 1194 l 2
 1243 1194 1367 1207 1408 1403 c 1
 1497 1403 l 1
EndSplineSet
EndChar

StartChar: uni0E2D
Encoding: 3629 3629 269
Width: 1329
VWidth: 2982
Flags: W
HStem: -11 90<508.338 865.307> 553 90<325.3 750> 1117 90<699.036 1069.09>
VStem: 233 92<273.421 551.771> 1254 98<505.613 922.298>
CounterMasks: 1 e0
LayerCount: 2
Fore
SplineSet
1352 737 m 0
 1352 349 1006 -11 662 -11 c 0
 403 -11 233 192 233 459 c 0
 233 504 239 551 248 598 c 1
 260 643 l 1
 801 643 l 1
 750 553 l 1
 329 553 l 1
 325 526 325 502 325 477 c 0
 325 246 468 79 679 79 c 0
 959 79 1254 378 1254 720 c 0
 1254 949 1113 1117 902 1117 c 0
 701 1117 500 991 399 781 c 1
 318 806 l 1
 438 1057 681 1207 922 1207 c 0
 1182 1207 1352 1003 1352 737 c 0
EndSplineSet
EndChar

StartChar: uni0E2E
Encoding: 3630 3630 270
Width: 1329
VWidth: 2982
Flags: W
HStem: -11 90<508.338 861.437> 553 90<325.3 750> 1117 90<699.036 1071.87>
VStem: 233 92<273.421 551.771> 1254 98<502.149 921.654>
DStem2: 1191 1113 1247 1055 0.818278 0.574823<12.4838 147.872>
CounterMasks: 1 e0
LayerCount: 2
Fore
SplineSet
1352 737 m 0
 1352 374 1027 -11 662 -11 c 0
 403 -11 233 192 233 459 c 0
 233 504 239 551 248 598 c 1
 260 643 l 1
 801 643 l 1
 750 553 l 1
 329 553 l 1
 325 526 325 502 325 477 c 0
 325 246 468 79 679 79 c 0
 959 79 1254 378 1254 720 c 0
 1254 949 1113 1117 902 1117 c 0
 701 1117 500 991 399 781 c 1
 318 806 l 1
 438 1057 681 1207 922 1207 c 0
 1030 1207 1119 1171 1191 1113 c 1
 1312 1198 l 1
 1363 1137 l 1
 1247 1055 l 1
 1314 972 1352 861 1352 737 c 0
EndSplineSet
EndChar

StartChar: uni0E2F
Encoding: 3631 3631 271
Width: 1125
VWidth: 2982
Flags: W
HStem: 0 21G<871 965.255> 767 90<441.732 770.056> 1121 90<501.448 638> 1174 20G<1109 1215>
VStem: 325 89<888.859 1040.85>
DStem2: 871 0 961 0 0.207912 0.978148<18.7121 1050.09 1136.58 1220.93>
LayerCount: 2
Fore
SplineSet
638 1121 m 1xe8
 513 1121 414 1021 414 955 c 0
 414 878 534 857 581 857 c 0
 839 857 1092 1128 1126 1194 c 1
 1215 1194 l 1xd8
 961 0 l 1
 871 0 l 1
 1090 1027 l 1
 980 916 781 767 566 767 c 0
 448 767 325 826 325 938 c 0
 325 1061 479 1211 658 1211 c 1
 638 1121 l 1xe8
EndSplineSet
EndChar

StartChar: uni0E30
Encoding: 3632 3632 272
Width: 603
VWidth: 2982
Flags: W
HStem: 119 89<302 517> 869 90<461 675>
VStem: 192 534
DStem2: 193.59 119 283.082 119 0.207912 0.978148<109.595 179.932 877.242 946.393>
LayerCount: 2
Fore
SplineSet
461 959 m 1
 726 959 l 1
 675 869 l 1
 352 869 l 1
 389 1045 l 1
 485 1074 l 1
 461 959 l 1
302 208 m 1
 566 208 l 1
 517 119 l 1
 192 119 l 1
 231 295 l 1
 327 325 l 1
 302 208 l 1
EndSplineSet
EndChar

StartChar: uni0E31
Encoding: 3633 3633 273
Width: 0
VWidth: 2982
Flags: W
HStem: 1350 89<-156 508>
AnchorPoint: "AboveBase" 103 1271 mark 0
AnchorPoint: "AboveMark" 140 1657 basemark 0
LayerCount: 2
Fore
SplineSet
-156 1439 m 1
 587 1439 l 1
 508 1350 l 1
 -267 1350 l 1
 -228 1525 l 1
 -132 1555 l 1
 -156 1439 l 1
EndSplineSet
EndChar

StartChar: uni0E32
Encoding: 3634 3634 274
Width: 880
VWidth: 2982
Flags: W
HStem: 0 21G<626 720.299> 1119 90<451.074 737.78>
VStem: 803 92<631.859 1049.57>
DStem2: 626 0 716 0 0.207912 0.978148<18.7121 906.358>
LayerCount: 2
Fore
SplineSet
626 0 m 1
 790 763 l 2
 799 806 803 848 803 891 c 0
 803 1014 756 1119 600 1119 c 0
 524 1119 427 1074 336 1010 c 1
 359 1110 l 1
 446 1171 538 1209 618 1209 c 0
 818 1209 895 1081 895 908 c 0
 895 861 891 814 880 763 c 2
 716 0 l 1
 626 0 l 1
EndSplineSet
EndChar

StartChar: uni0E33
Encoding: 3635 3635 275
Width: 880
VWidth: 2982
Flags: W
HStem: 0 21G<626 720.299> 1119 90<451.074 737.78> 1316 70<52.3929 175.314> 1523 68<68.8057 187.556>
VStem: -17 66<1391.43 1501.66> 192 68<1403.86 1519.3> 803 92<631.859 1049.57>
DStem2: 626 0 716 0 0.207912 0.978148<18.7121 906.358>
LayerCount: 2
Fore
SplineSet
626 0 m 1
 790 763 l 2
 799 806 803 848 803 891 c 0
 803 1014 756 1119 600 1119 c 0
 524 1119 427 1074 336 1010 c 1
 359 1110 l 1
 446 1171 538 1209 618 1209 c 0
 818 1209 895 1081 895 908 c 0
 895 861 891 814 880 763 c 2
 716 0 l 1
 626 0 l 1
-17 1426 m 0
 -17 1500 56 1591 150 1591 c 0
 215 1591 260 1544 260 1480 c 0
 260 1386 166 1316 92 1316 c 0
 27 1316 -17 1363 -17 1426 c 0
137 1523 m 0
 85 1523 49 1478 49 1439 c 0
 49 1408 72 1386 107 1386 c 0
 145 1386 192 1417 192 1466 c 0
 192 1500 171 1523 137 1523 c 0
EndSplineSet
MultipleSubs2: "Thai Sara Am Decomposition" uni0E4D uni0E32
Substitution2: "Thai Sara Am Lakkhang" uni0E32
LCarets2: 1 0 
EndChar

StartChar: uni0E34
Encoding: 3636 3636 276
Width: 0
VWidth: 2982
Flags: W
HStem: 1350 89<-643 119>
AnchorPoint: "AboveMark" 140 1657 basemark 0
AnchorPoint: "AboveBase" 103 1271 mark 0
LayerCount: 2
Fore
SplineSet
139 1439 m 1
 119 1350 l 1
 -724 1350 l 1
 -643 1439 l 1
 139 1439 l 1
EndSplineSet
LCarets2: 1 0 
EndChar

StartChar: uni0E35
Encoding: 3637 3637 277
Width: 0
VWidth: 2982
Flags: W
HStem: 1350 89<-643 49>
DStem2: 30.0825 1350 119 1350 0.207912 0.978148<90.9883 209.651>
AnchorPoint: "AboveMark" 140 1657 basemark 0
AnchorPoint: "AboveBase" 103 1271 mark 0
LayerCount: 2
Fore
SplineSet
49 1439 m 1
 74 1555 l 1
 164 1555 l 1
 119 1350 l 1
 -724 1350 l 1
 -643 1439 l 1
 49 1439 l 1
EndSplineSet
LCarets2: 1 0 
EndChar

StartChar: uni0E36
Encoding: 3638 3638 278
Width: 0
VWidth: 2982
Flags: W
HStem: 1350 89<-643 -36> 1350 67<36.4506 150.054> 1555 68<50.9613 169.383>
VStem: 173 66<1439.49 1549.87>
AnchorPoint: "AboveMark" 140 1657 basemark 0
AnchorPoint: "AboveBase" 103 1271 mark 0
LayerCount: 2
Fore
SplineSet
239 1513 m 0xb0
 239 1419 145 1350 72 1350 c 2
 -724 1350 l 1x70
 -643 1439 l 1
 -36 1439 l 1
 -54 1493 11 1623 130 1623 c 0
 195 1623 239 1576 239 1513 c 0xb0
116 1555 m 0
 64 1555 32 1506 32 1473 c 0
 32 1442 54 1417 87 1417 c 0
 130 1417 173 1457 173 1502 c 0
 173 1533 150 1555 116 1555 c 0
EndSplineSet
EndChar

StartChar: uni0E37
Encoding: 3639 3639 279
Width: 0
VWidth: 2982
Flags: W
HStem: 1350 205<-119 -54 74 119> 1350 89<-643 -143 -54 49>
DStem2: 30.0825 1350 119 1350 0.207912 0.978148<90.9883 209.651>
AnchorPoint: "AboveMark" 44 1657 basemark 0
AnchorPoint: "AboveBase" 103 1271 mark 0
LayerCount: 2
Fore
SplineSet
49 1439 m 1x40
 74 1555 l 1
 164 1555 l 1
 119 1350 l 1x80
 -724 1350 l 1
 -643 1439 l 1
 -143 1439 l 1x40
 -119 1555 l 1
 -30 1555 l 1x80
 -54 1439 l 1
 49 1439 l 1x40
EndSplineSet
EndChar

StartChar: uni0E38
Encoding: 3640 3640 280
Width: 0
VWidth: 2982
Flags: W
HStem: -474 21G<-359 -264.747> -215 89<-361 -302>
VStem: -410 215
DStem2: -359 -474 -269 -474 0.207912 0.978148<18.7121 265.191>
AnchorPoint: "BelowBase" -186 -85 mark 0
LayerCount: 2
Fore
SplineSet
-361 -126 m 1
 -195 -126 l 1
 -269 -474 l 1
 -359 -474 l 1
 -302 -215 l 1
 -410 -215 l 1
 -361 -126 l 1
EndSplineSet
Substitution2: "Thai Sara U Mai Ek Reordering" uni0E48.low
Substitution2: "Thai Sara U Mai Tho Reordering" uni0E49.low
Substitution2: "Thai Sara U Mai Tri Reordering" uni0E4A.low
Substitution2: "Thai Sara U Mai Chattawa Reordering" uni0E4B.low
Substitution2: "Thai Sara U Thanthakhat Reordering" uni0E4C.low
Substitution2: "Thai Sara U Nikhahit Reordering" uni0E4D
EndChar

StartChar: uni0E39
Encoding: 3641 3641 281
Width: 0
VWidth: 2982
Flags: W
HStem: -491 90<-581.98 -376.994> -215 89<-716 -683>
VStem: -698 91<-376.475 -216.07>
DStem2: -362.801 -491 -272.801 -491 0.207912 0.978148<128.944 373.408>
AnchorPoint: "BelowBase" -186 -85 mark 0
LayerCount: 2
Fore
SplineSet
-716 -126 m 1
 -575 -126 l 1
 -602 -252 l 2
 -604 -265 -607 -275 -607 -284 c 0
 -607 -352 -557 -401 -487 -401 c 0
 -408 -401 -329 -333 -312 -252 c 2
 -284 -126 l 1
 -195 -126 l 1
 -222 -252 l 2
 -250 -385 -376 -491 -508 -491 c 0
 -622 -491 -698 -412 -698 -307 c 0
 -698 -289 -696 -271 -692 -252 c 2
 -683 -215 l 1
 -763 -215 l 1
 -716 -126 l 1
EndSplineSet
Substitution2: "Thai Sara UU Mai Ek Reordering" uni0E48.low
Substitution2: "Thai Sara UU Mai Tho Reordering" uni0E49.low
Substitution2: "Thai Sara UU Mai Tri Reordering" uni0E4A.low
Substitution2: "Thai Sara UU Mai Chattawa Reordering" uni0E4B.low
Substitution2: "Thai Sara UU Thanthakhat Reordering" uni0E4C.low
Substitution2: "Thai Sara UU Nikhahit Reordering" uni0E4D
EndChar

StartChar: uni0E3A
Encoding: 3642 3642 282
Width: 0
VWidth: 2982
Flags: W
HStem: -258 151<-312.465 -187.79>
VStem: -327 154<-242.064 -122.965>
AnchorPoint: "BelowBase" -186 -85 mark 0
LayerCount: 2
Fore
SplineSet
-327 -197 m 0
 -327 -145 -275 -107 -235 -107 c 0
 -197 -107 -173 -132 -173 -166 c 0
 -173 -211 -215 -258 -267 -258 c 0
 -302 -258 -327 -233 -327 -197 c 0
EndSplineSet
Substitution2: "Thai Phinthu Maitaikhu Reordering" uni0E47
Substitution2: "Thai Phinthu Mai Ek Reordering" uni0E48.low
Substitution2: "Thai Phinthu Mai Tho Reordering" uni0E49.low
Substitution2: "Thai Phinthu Mai Tri Reordering" uni0E4A.low
Substitution2: "Thai Phinthu Mai Chattawa Reordering" uni0E4B.low
Substitution2: "Thai Phinthu Thanthakhat Reordering" uni0E4C.low
Substitution2: "Thai Phinthu Nikhahit Reordering" uni0E4D
EndChar

StartChar: uni0E3F
Encoding: 3647 3647 283
Width: 1219
VWidth: 2982
Flags: W
HStem: 0 90<250 463 573 878.439> 795 89<421 634 743 1006.34> 1403 90<530 763 873 1101.04>
VStem: 1157 88<345.286 655.644> 1194 86<1049.82 1311.08>
DStem2: 111.117 -150 198.986 -150 0.207912 0.978148<263.631 984.62 1075.83 1606.15> 430 -150 519 -150 0.207912 0.978148<18.5041 153.583 264.487 966.763 1076.48 1588.3 1699.2 1831.7>
LayerCount: 2
Fore
SplineSet
1245 526 m 0xf0
 1245 260 972 0 662 0 c 2
 553 0 l 1
 519 -150 l 1
 430 -150 l 1
 463 0 l 1
 143 0 l 1
 461 1493 l 1
 784 1493 l 1
 814 1641 l 1
 904 1641 l 1
 873 1493 l 1
 967 1493 l 2
 1153 1493 1280 1367 1280 1204 c 0xe8
 1280 1059 1182 918 1032 839 c 1
 1164 784 1245 667 1245 526 c 0xf0
839 884 m 2
 1014 884 1194 1019 1194 1184 c 0
 1194 1305 1097 1403 949 1403 c 2
 853 1403 l 1
 743 884 l 1
 839 884 l 2
685 90 m 2
 920 90 1157 284 1157 506 c 0xf0
 1157 665 1027 795 835 795 c 2
 724 795 l 1
 573 90 l 1
 685 90 l 2
654 884 m 1
 763 1403 l 1
 530 1403 l 1
 421 884 l 1
 654 884 l 1
483 90 m 1
 634 795 l 1
 401 795 l 1
 250 90 l 1
 483 90 l 1
EndSplineSet
EndChar

StartChar: uni0E40
Encoding: 3648 3648 284
Width: 422
VWidth: 2982
Flags: W
HStem: 0 21G<168 262.221> 1174 20G<416.762 510>
VStem: 168 342
DStem2: 168 0 258 0 0.207912 0.978148<18.7121 1220.51>
LayerCount: 2
Fore
SplineSet
258 0 m 1
 168 0 l 1
 421 1194 l 1
 510 1194 l 1
 258 0 l 1
EndSplineSet
EndChar

StartChar: uni0E41
Encoding: 3649 3649 285
Width: 690
VWidth: 2982
Flags: W
HStem: 0 21G<168 262.221 436 530.238> 1174 20G<416.762 510 685.745 779>
VStem: 168 611
DStem2: 168 0 258 0 0.207912 0.978148<18.7121 1220.51> 436 0 526 0 0.207912 0.978148<18.7121 1220.72>
LayerCount: 2
Fore
SplineSet
258 0 m 1
 168 0 l 1
 421 1194 l 1
 510 1194 l 1
 258 0 l 1
526 0 m 1
 436 0 l 1
 690 1194 l 1
 779 1194 l 1
 526 0 l 1
EndSplineSet
EndChar

StartChar: uni0E42
Encoding: 3650 3650 286
Width: 422
VWidth: 2982
Flags: W
HStem: 0 90<275 333> 1674 90<307 395.289 463 936>
VStem: 463 88<1189.06 1607.28>
DStem2: 168 0 255.87 0 0.207912 0.978148<110.28 1475.76>
LayerCount: 2
Fore
SplineSet
168 0 m 1
 448 1318 l 2
 457 1361 463 1406 463 1448 c 0
 463 1572 414 1674 258 1674 c 1
 307 1764 l 1
 983 1764 l 1
 936 1674 l 1
 463 1674 l 1
 521 1625 551 1536 551 1437 c 0
 551 1399 546 1359 538 1318 c 2
 275 90 l 1
 383 90 l 1
 333 0 l 1
 168 0 l 1
EndSplineSet
EndChar

StartChar: uni0E43
Encoding: 3651 3651 287
Width: 472
VWidth: 2982
Flags: W
HStem: 0 90<327 374> 1685 94<395.547 646.929>
VStem: 228 90<1540 1611.63> 690 91<1472.61 1640.75>
DStem2: 218 0 307.87 0 0.207912 0.978148<110.696 1411.34>
LayerCount: 2
Fore
SplineSet
218 0 m 1
 474 1207 l 1
 521 1439 690 1453 690 1555 c 0
 690 1614 626 1685 530 1685 c 0
 423 1685 329 1605 318 1540 c 1
 228 1540 l 1
 252 1659 403 1779 549 1779 c 0
 685 1779 781 1681 781 1578 c 0
 781 1412 607 1406 564 1209 c 1
 327 90 l 1
 423 90 l 1
 374 0 l 1
 218 0 l 1
EndSplineSet
EndChar

StartChar: uni0E44
Encoding: 3652 3652 288
Width: 436
VWidth: 2982
Flags: W
HStem: 0 90<291 342> 1677 89<517 687>
VStem: 181 639
DStem2: 181 0 271.87 0 0.207912 0.978148<110.904 1566.37>
LayerCount: 2
Fore
SplineSet
181 0 m 1
 470 1352 l 2
 502 1497 602 1600 687 1677 c 1
 517 1677 l 1
 378 1531 l 1
 258 1672 l 1
 282 1793 l 1
 403 1659 l 1
 497 1766 l 1
 820 1766 l 1
 803 1685 l 1
 705 1619 596 1520 557 1350 c 1
 291 90 l 1
 391 90 l 1
 342 0 l 1
 181 0 l 1
EndSplineSet
EndChar

StartChar: uni0E45
Encoding: 3653 3653 289
Width: 880
VWidth: 2982
Flags: W
HStem: -455 21G<530 624.269> 1119 90<451.074 737.78>
VStem: 803 92<629.781 1049.57>
DStem2: 530 -455 620 -455 0.207912 0.978148<18.7121 1371.38>
LayerCount: 2
Fore
SplineSet
530 -455 m 1
 790 763 l 2
 799 806 803 848 803 891 c 0
 803 1014 756 1119 600 1119 c 0
 524 1119 427 1074 336 1010 c 1
 359 1110 l 1
 446 1171 538 1209 618 1209 c 0
 818 1209 895 1081 895 908 c 0
 895 861 891 814 880 763 c 2
 620 -455 l 1
 530 -455 l 1
EndSplineSet
EndChar

StartChar: uni0E46
Encoding: 3654 3654 290
Width: 1177
VWidth: 2982
Flags: W
HStem: -455 21G<826 920.222> 579 90<423.359 622> 925 96<697.054 896.257> 1187 20G<577 622.375>
VStem: 299 86<708.84 964.904> 1104 92<758.515 1042.58>
DStem2: 826 -455 916 -455 0.207912 0.978148<18.7121 1368.53>
LayerCount: 2
Fore
SplineSet
553 1085 m 1
 448 1032 385 920 385 822 c 0
 385 737 432 669 540 669 c 0
 562 669 591 671 622 679 c 1
 624 591 l 1
 587 581 553 579 524 579 c 0
 372 579 299 679 299 799 c 0
 299 947 406 1126 577 1191 c 1
 613 1207 l 1
 628 1175 l 1
 687 1041 748 1021 788 1021 c 0
 826 1021 895 1041 1012 1175 c 1
 1043 1215 l 1
 1077 1188 l 1
 1153 1126 1196 1027 1196 918 c 0
 1196 886 1194 855 1186 824 c 1
 916 -455 l 1
 826 -455 l 1
 1097 818 l 2
 1102 842 1104 865 1104 886 c 0
 1104 963 1077 1030 1032 1081 c 1
 947 991 857 925 763 925 c 0
 669 925 602 994 553 1085 c 1
EndSplineSet
EndChar

StartChar: uni0E47
Encoding: 3655 3655 291
Width: 0
VWidth: 2982
Flags: W
HStem: 1327 92<-116.098 108.452> 1350 89<-526.988 -430 16.4055 107.255> 1623 90<-500.936 231>
VStem: -624 86<1456.07 1582.7>
DStem2: -430 1439 -423 1350 0.872587 0.488459<-37.3647 149.805> -246 1542 -260 1442 0.855782 -0.517337<39.7528 285.865>
AnchorPoint: "AboveMark" -296 1271 mark 0
AnchorPoint: "AboveBase" 103 1271 mark 0
LayerCount: 2
Fore
SplineSet
-624 1500 m 0x70
 -624 1625 -479 1713 -359 1713 c 2
 282 1713 l 1
 231 1623 l 1
 -380 1623 l 2
 -474 1623 -538 1560 -538 1518 c 0
 -538 1480 -500 1442 -430 1439 c 1x70
 -246 1542 l 1
 -69 1435 l 1
 -43 1424 -13 1419 15 1419 c 0xb0
 45 1419 74 1424 105 1433 c 1
 119 1350 l 1x70
 79 1337 36 1327 -4 1327 c 0xb0
 -47 1327 -87 1337 -121 1354 c 1
 -260 1442 l 1
 -423 1350 l 1
 -436 1350 l 2
 -534 1350 -624 1408 -624 1500 c 0x70
EndSplineSet
Substitution2: "Thai Mark High Variant" uni0E47.high
Substitution2: "Thai Phinthu Maitaikhu Reordering" uni0E3A
EndChar

StartChar: uni0E48
Encoding: 3656 3656 292
Width: 0
VWidth: 2982
Flags: W
HStem: 1683 244<152 190>
VStem: 101 141
DStem2: 101 1683 190 1683 0.207912 0.978148<18.5041 249.272>
AnchorPoint: "AboveMark" 140 1657 mark 0
LayerCount: 2
Fore
SplineSet
190 1683 m 1
 101 1683 l 1
 152 1927 l 1
 242 1927 l 1
 190 1683 l 1
EndSplineSet
MultipleSubs2: "Thai Tone Nikhahit Attachment" uni0E4D uni0E48
Substitution2: "Thai Tone Low Variant" uni0E48.low
Substitution2: "Thai Sara U Mai Ek Reordering" uni0E38
Substitution2: "Thai Sara UU Mai Ek Reordering" uni0E39
Substitution2: "Thai Phinthu Mai Ek Reordering" uni0E3A
LCarets2: 1 0 
EndChar

StartChar: uni0E49
Encoding: 3657 3657 293
Width: 0
VWidth: 2982
Flags: W
HStem: 1683 90<30 361> 1835 90<-119 -55.9985>
VStem: -56 92<1773 1834.48>
AnchorPoint: "AboveMark" 140 1657 mark 0
LayerCount: 2
Fore
SplineSet
36 1822 m 0
 36 1793 32 1782 30 1773 c 1
 410 1773 l 1
 361 1683 l 1
 -79 1683 l 1
 -56 1790 l 1
 -51 1807 -51 1833 -92 1835 c 1
 -168 1835 l 1
 -119 1925 l 1
 -72 1925 l 2
 20 1925 36 1865 36 1822 c 0
EndSplineSet
MultipleSubs2: "Thai Tone Nikhahit Attachment" uni0E4D uni0E49
Substitution2: "Thai Tone Low Variant" uni0E49.low
Substitution2: "Thai Sara U Mai Tho Reordering" uni0E38
Substitution2: "Thai Sara UU Mai Tho Reordering" uni0E39
Substitution2: "Thai Phinthu Mai Tho Reordering" uni0E3A
EndChar

StartChar: uni0E4A
Encoding: 3658 3658 294
Width: 0
VWidth: 2982
Flags: W
HStem: 1683 90<-100.254 -51 457 701> 1905 90<-87.4496 111.205>
VStem: -195 94<1776.46 1886.55>
DStem2: 208 1854 143 1717 0.844509 0.535542<0 163.031>
AnchorPoint: "AboveMark" 140 1657 mark 0
LayerCount: 2
Fore
SplineSet
-195 1807 m 0
 -195 1894 -109 1995 36 1995 c 0
 137 1995 195 1934 208 1854 c 1
 389 1967 l 1
 500 1967 l 1
 457 1773 l 1
 750 1773 l 1
 701 1683 l 1
 349 1683 l 1
 389 1873 l 1
 143 1717 l 1
 139 1790 137 1905 20 1905 c 0
 -67 1905 -101 1856 -101 1826 c 0
 -101 1800 -85 1775 -51 1775 c 2
 -32 1775 l 1
 -51 1685 l 1
 -72 1685 l 2
 -152 1685 -195 1743 -195 1807 c 0
EndSplineSet
MultipleSubs2: "Thai Tone Nikhahit Attachment" uni0E4D uni0E4A
Substitution2: "Thai Tone Low Variant" uni0E4A.low
Substitution2: "Thai Sara U Mai Tri Reordering" uni0E38
Substitution2: "Thai Sara UU Mai Tri Reordering" uni0E39
Substitution2: "Thai Phinthu Mai Tri Reordering" uni0E3A
EndChar

StartChar: uni0E4B
Encoding: 3659 3659 295
Width: 0
VWidth: 2982
Flags: W
HStem: 1773 89<54 121 228 295>
VStem: 36 280
DStem2: 101 1683 190 1683 0.207912 0.978148<18.5041 94.1478 201.493 274.557>
AnchorPoint: "AboveMark" 140 1657 mark 0
LayerCount: 2
Fore
SplineSet
36 1775 m 1
 54 1860 l 1
 139 1860 l 1
 156 1952 l 1
 246 1952 l 1
 228 1862 l 1
 316 1862 l 1
 295 1773 l 1
 208 1773 l 1
 190 1683 l 1
 101 1683 l 1
 121 1775 l 1
 36 1775 l 1
EndSplineSet
MultipleSubs2: "Thai Tone Nikhahit Attachment" uni0E4D uni0E4B
Substitution2: "Thai Tone Low Variant" uni0E4B.low
Substitution2: "Thai Sara U Mai Chattawa Reordering" uni0E38
Substitution2: "Thai Sara UU Mai Chattawa Reordering" uni0E39
Substitution2: "Thai Phinthu Mai Chattawa Reordering" uni0E3A
EndChar

StartChar: uni0E4C
Encoding: 3660 3660 296
Width: 0
VWidth: 2982
Flags: W
HStem: 1793 89<204 410>
VStem: 101 89<1683 1786.81>
AnchorPoint: "AboveMark" 140 1657 mark 0
LayerCount: 2
Fore
SplineSet
101 1683 m 1
 114 1748 l 2
 121 1784 161 1882 278 1882 c 2
 461 1882 l 1
 410 1793 l 1
 258 1793 l 2
 220 1793 205 1764 203 1748 c 1
 190 1683 l 1
 101 1683 l 1
EndSplineSet
MultipleSubs2: "Thai Tone Nikhahit Attachment" uni0E4D uni0E4C
Substitution2: "Thai Tone Low Variant" uni0E4C.low
Substitution2: "Thai Sara U Thanthakhat Reordering" uni0E38
Substitution2: "Thai Sara UU Thanthakhat Reordering" uni0E39
Substitution2: "Thai Phinthu Thanthakhat Reordering" uni0E3A
EndChar

StartChar: uni0E4D
Encoding: 3661 3661 297
Width: 0
VWidth: 2982
Flags: W
HStem: 1316 70<29.8575 150.609> 1523 68<47.3776 164.121>
VStem: -43 70<1389.64 1504.27> 168 69<1404.09 1519.24>
AnchorPoint: "AboveMark" 140 1657 basemark 0
AnchorPoint: "AboveBase" 183 1271 mark 0
LayerCount: 2
Fore
SplineSet
-43 1426 m 0
 -43 1500 32 1591 126 1591 c 0
 192 1591 237 1544 237 1480 c 0
 237 1386 143 1316 67 1316 c 0
 2 1316 -43 1363 -43 1426 c 0
111 1523 m 0
 64 1523 27 1480 27 1437 c 0
 27 1408 49 1386 83 1386 c 0
 132 1386 168 1429 168 1471 c 0
 168 1502 145 1523 111 1523 c 0
EndSplineSet
Substitution2: "Thai Mark High Variant" uni0E4D.high
Substitution2: "Thai Sara U Nikhahit Reordering" uni0E38
Substitution2: "Thai Sara UU Nikhahit Reordering" uni0E39
Substitution2: "Thai Phinthu Nikhahit Reordering" uni0E3A
LCarets2: 1 0 
EndChar

StartChar: uni0E4E
Encoding: 3662 3662 298
Width: 0
VWidth: 2982
Flags: W
HStem: 1459 72<-326.782 -114.404> 1790 75<-46.3095 32> 2140 73<87.7676 389.216>
VStem: -419 75<1551.17 1683.74> -150 76<1895.09 2032.21>
AnchorPoint: "AboveBase" 103 1271 mark 0
LayerCount: 2
Fore
SplineSet
282 2140 m 0
 101 2140 -74 2055 -74 1952 c 0
 -74 1901 -9 1873 54 1865 c 1
 119 1865 l 1
 32 1790 l 1
 4 1790 l 2
 -295 1790 -344 1641 -344 1605 c 0
 -344 1560 -289 1531 -224 1531 c 0
 -158 1531 -119 1558 -107 1574 c 1
 -51 1538 l 1
 -96 1484 -171 1459 -237 1459 c 0
 -342 1459 -419 1511 -419 1589 c 0
 -419 1643 -383 1807 -119 1854 c 1
 -137 1873 -150 1899 -150 1931 c 0
 -150 2095 74 2213 299 2213 c 0
 336 2213 374 2211 414 2205 c 1
 387 2131 l 1
 349 2138 314 2140 282 2140 c 0
EndSplineSet
EndChar

